<?xml version="1.0" standalone="no"?>
<!DOCTYPE svg PUBLIC "-//W3C//DTD SVG 1.1//EN" "http://www.w3.org/Graphics/SVG/1.1/DTD/svg11.dtd" >
<svg>
<metadata>
Created by FontForge 20120731 at Tue Nov  1 13:30:06 2016
 By ,,,
Copyright (c) 2001-2009 Typotheque.com All rights reserved. Cyrillic designed by Alexei Kassian and Gayaneh Bagdasaryan.
</metadata>
<defs>
<font id="FedraSansAltStd-BookItalic" horiz-adv-x="420" >
  <font-face 
    font-family="Fedra Sans Alt Std Book"
    font-weight="400"
    font-style="italic"
    font-stretch="normal"
    units-per-em="1000"
    panose-1="2 0 5 3 2 0 0 9 0 4"
    ascent="780"
    descent="-220"
    x-height="546"
    cap-height="707"
    bbox="-274 -284 1318 953"
    underline-thickness="50"
    underline-position="-50"
    slope="-6"
    unicode-range="U+0020-FB04"
  />
<missing-glyph horiz-adv-x="712" 
d="M305 375v27h27v-27h-27zM380 525v27h27v-27h-27zM305 525v27h27v-27h-27zM230 525v27h27v-27h-27zM80 0v27h27v-27h-27zM155 0v27h27v-27h-27zM230 0v27h27v-27h-27zM305 0v27h27v-27h-27zM380 0v27h27v-27h-27zM80 75v27h27v-27h-27zM80 150v27h27v-27h-27zM80 225v27
h27v-27h-27zM80 300v27h27v-27h-27zM80 375v27h27v-27h-27zM80 450v27h27v-27h-27zM80 525v27h27v-27h-27zM80 600v27h27v-27h-27zM80 675v27h27v-27h-27zM155 675v27h27v-27h-27zM230 675v27h27v-27h-27zM305 675v27h27v-27h-27zM380 675v27h27v-27h-27zM455 675v27h27v-27
h-27zM530 675v27h27v-27h-27zM530 0v27h27v-27h-27zM455 0v27h27v-27h-27zM605 0v27h27v-27h-27zM605 675v27h27v-27h-27zM305 300v27h27v-27h-27zM305 150v27h27v-27h-27zM380 375v27h27v-27h-27zM455 375v27h27v-27h-27zM455 450v27h27v-27h-27zM455 525v27h27v-27h-27z
M605 600v27h27v-27h-27zM605 525v27h27v-27h-27zM605 375v27h27v-27h-27zM605 300v27h27v-27h-27zM605 150v27h27v-27h-27zM605 75v27h27v-27h-27zM605 225v27h27v-27h-27zM605 450v27h27v-27h-27z" />
    <glyph glyph-name="f_f" unicode="ff" horiz-adv-x="609" 
d="M49 -205l73 688h-80l7 63h79l6 48q6 55 27 93t54.5 55.5t67 24.5t76.5 7q91 0 160 -28q50 28 139 28q24 0 61 -7t49 -12l-21 -60l-15 3q-14 3 -39 6.5t-44 3.5q-132 0 -143 -114l-6 -48h120l-7 -63h-119l-73 -688h-74l73 688h-225l-72 -688h-74zM202 546h225l5 48
q6 59 31 99q-64 15 -112 15q-131 0 -144 -114z" />
    <glyph glyph-name="fi" unicode="fi" horiz-adv-x="558" 
d="M48 -205l73 688h-80l7 63h80l3 26q12 111 65 156.5t138 45.5q17 0 69.5 -3.5t81.5 -3.5q17 0 64 5l9 -56q-42 -15 -107 -15q-26 0 -69 3t-56 3q-59 0 -85.5 -34.5t-34.5 -101.5l-2 -25h301l-57 -546h-76l50 483h-225l-73 -688h-76z" />
    <glyph glyph-name="fl" unicode="fl" horiz-adv-x="557" 
d="M48 -205l73 688h-80l7 63h80l3 26q12 111 65 156.5t138 45.5q19 0 68.5 -3.5t76.5 -3.5q34 0 50 2l-82 -769h-75l74 703q-23 -1 -65.5 1.5t-54.5 2.5q-59 0 -85.5 -34.5t-34.5 -101.5l-2 -25h116l-7 -63h-116l-73 -688h-76z" />
    <glyph glyph-name="f_f_i" unicode="ffi" horiz-adv-x="857" 
d="M49 -205l73 688h-80l7 63h79l6 48q6 56 27 93.5t54.5 55t67.5 24.5t77 7q23 0 83.5 -11t74.5 -16q46 27 115 27q17 0 69.5 -2.5t81.5 -2.5q34 0 64 3l4 -57q-39 -14 -103 -14q-23 0 -66 3t-59 3q-59 0 -85.5 -34.5t-33.5 -101.5l-3 -25h302l-58 -546h-76l51 483h-225
l-73 -688h-76l73 688h-225l-72 -688h-74zM202 546h225l3 26q7 72 35 120q-80 16 -114 16q-131 0 -144 -114z" />
    <glyph glyph-name="f_f_l" unicode="ffl" horiz-adv-x="856" 
d="M49 -205l73 688h-80l7 63h79l6 48q6 56 27 93.5t54.5 55t67.5 24.5t77 7q37 0 87.5 -10t70.5 -17q46 27 115 27q18 0 67.5 -3.5t76.5 -3.5q34 0 50 2l-81 -769h-76l75 703q-23 -1 -65.5 1.5t-54.5 2.5q-59 0 -86 -34.5t-34 -101.5l-2 -25h116l-7 -63h-116l-73 -688h-76
l73 688h-225l-72 -688h-74zM202 546h225l2 26q9 75 36 120q-75 16 -114 16q-131 0 -144 -114z" />
    <glyph glyph-name="f_h" unicode="fh" horiz-adv-x="851" 
d="M48 -205l73 688h-80l7 63h80l3 26q20 202 203 202q19 0 68.5 -3.5t76.5 -3.5q34 0 50 2l-32 -315l17 13q17 13 22.5 17t23.5 16.5t27.5 18.5t26.5 15.5t29 14t26.5 8t26.5 3.5q54 0 74.5 -20.5t20.5 -68.5q0 -17 -6 -77l-42 -394h-76l41 378q6 58 6 67q0 25 -10 34.5
t-38 9.5q-17 0 -54 -21t-78.5 -50t-44.5 -31l-41 -387h-76l73 702q-17 -1 -63 2t-56 3q-59 0 -86 -34.5t-34 -101.5l-2 -25h116l-7 -63h-116l-73 -688h-76z" />
    <glyph glyph-name="f_b" unicode="fb" horiz-adv-x="856" 
d="M517 -8q-66 0 -143 22l72 689q-22 -1 -65 1.5t-55 2.5q-59 0 -85.5 -34.5t-34.5 -101.5l-2 -25h116l-7 -63h-116l-73 -688h-76l73 688h-80l7 63h80l3 26q12 111 65 156.5t138 45.5q19 0 68.5 -3.5t76.5 -3.5q35 0 51 2l-32 -298q34 23 56.5 36.5t61 27.5t72.5 14
q123 0 123 -160q0 -68 -17.5 -135.5t-51.5 -127.5t-92.5 -97t-132.5 -37zM524 56q46 0 83 23t60 59t38.5 81.5t21.5 88t6 81.5q0 53 -16 73t-48 20q-63 0 -179 -77l-35 -339q45 -10 69 -10z" />
    <glyph glyph-name="f_j" unicode="fj" horiz-adv-x="559" 
d="M243 -222q-38 0 -67 11l20 62q15 -6 56 -6q59 0 85.5 35t33.5 102l52 501h-225l-73 -688h-76l73 688h-80l6 63h80l3 26q12 111 65 156.5t138 45.5q17 0 69 -2.5t82 -2.5q35 0 64 3l5 -57q-38 -14 -102 -14q-24 1 -67 3.5t-58 2.5q-60 0 -86.5 -34.5t-33.5 -101.5l-3 -25
h302l-59 -565q-12 -111 -65.5 -157t-138.5 -46z" />
    <glyph glyph-name="f_k" unicode="fk" horiz-adv-x="809" 
d="M49 -205l73 688h-80l6 63h80l3 26q12 111 65.5 156.5t137.5 45.5q19 0 68.5 -3.5t76.5 -3.5q23 -1 50 2l-81 -769h-76l74 703q-22 -1 -64.5 1.5t-55.5 2.5q-59 0 -86 -34.5t-33 -101.5l-3 -25h116l-6 -63h-116l-73 -688h-76zM692 -14l-191 302l201 258h89l-202 -255
l180 -280z" />
    <glyph glyph-name="f_f_j" unicode="ffj" horiz-adv-x="857" 
d="M49 -205l73 688h-80l7 63h79l6 48q6 56 27 93.5t54.5 55t67.5 24.5t77 7q23 0 83.5 -11t74.5 -16q46 27 115 27q17 0 69.5 -2.5t81.5 -2.5q34 0 64 3l4 -57q-39 -14 -103 -14q-23 0 -66 3t-59 3q-59 0 -85.5 -34.5t-33.5 -101.5l-3 -25h302l-60 -564
q-11 -111 -61.5 -156.5t-134.5 -45.5q-41 0 -75 13l19 65q38 -11 65 -11q58 0 81 33.5t31 102.5l52 500h-225l-73 -688h-76l73 688h-225l-72 -688h-74zM202 546h225l3 26q7 72 35 120q-80 16 -114 16q-131 0 -144 -114z" />
    <glyph glyph-name="f_idieresis" unicode="f&#xef;" horiz-adv-x="563" 
d="M49 -205l72 688h-80l7 63h80l6 60q7 86 49 127t106 41q44 0 88 -20l-20 -61q-37 16 -74 16q-65 0 -75 -98l-6 -65h119l-6 -63h-119l-73 -688h-74zM377 0l57 546h76l-57 -546h-76zM393 669l10 93h77l-10 -93h-77zM536 669l10 93h77l-10 -93h-77z" />
    <glyph glyph-name="f_igrave" unicode="f&#xec;" horiz-adv-x="563" 
d="M49 -205l72 688h-80l7 63h80l6 60q7 86 49 127t106 41q44 0 88 -20l-20 -61q-37 16 -74 16q-65 0 -75 -98l-6 -65h119l-6 -63h-119l-73 -688h-74zM507 609l-108 145l56 43l96 -153zM377 0l57 546h76l-57 -546h-76z" />
    <glyph glyph-name="aogonek_j" unicode="&#x105;j" horiz-adv-x="778" 
d="M383 -233q-143 0 -143 108q0 37 26 72t66 59l10 93q-63 -57 -108.5 -84.5t-84.5 -27.5q-55 0 -82.5 44.5t-27.5 118.5q0 68 22.5 138t62.5 129t103 96.5t137 37.5q53 0 99 -8l-57 -543q-35 -20 -62 -50t-28 -59t18.5 -44.5t58.5 -15.5q163 0 179 152l59 563h76l-60 -568
q-6 -60 -33 -103.5t-66.5 -65.5t-80 -32t-84.5 -10zM168 59q31 0 86.5 40t94.5 77l33 307q-8 2 -34 2q-70 0 -125 -54t-81 -127t-26 -146q0 -44 13 -71.5t39 -27.5zM640 669l10 93h77l-10 -93h-77z" />
    <glyph glyph-name=".notdef" horiz-adv-x="712" 
d="M305 375v27h27v-27h-27zM380 525v27h27v-27h-27zM305 525v27h27v-27h-27zM230 525v27h27v-27h-27zM80 0v27h27v-27h-27zM155 0v27h27v-27h-27zM230 0v27h27v-27h-27zM305 0v27h27v-27h-27zM380 0v27h27v-27h-27zM80 75v27h27v-27h-27zM80 150v27h27v-27h-27zM80 225v27
h27v-27h-27zM80 300v27h27v-27h-27zM80 375v27h27v-27h-27zM80 450v27h27v-27h-27zM80 525v27h27v-27h-27zM80 600v27h27v-27h-27zM80 675v27h27v-27h-27zM155 675v27h27v-27h-27zM230 675v27h27v-27h-27zM305 675v27h27v-27h-27zM380 675v27h27v-27h-27zM455 675v27h27v-27
h-27zM530 675v27h27v-27h-27zM530 0v27h27v-27h-27zM455 0v27h27v-27h-27zM605 0v27h27v-27h-27zM605 675v27h27v-27h-27zM305 300v27h27v-27h-27zM305 150v27h27v-27h-27zM380 375v27h27v-27h-27zM455 375v27h27v-27h-27zM455 450v27h27v-27h-27zM455 525v27h27v-27h-27z
M605 600v27h27v-27h-27zM605 525v27h27v-27h-27zM605 375v27h27v-27h-27zM605 300v27h27v-27h-27zM605 150v27h27v-27h-27zM605 75v27h27v-27h-27zM605 225v27h27v-27h-27zM605 450v27h27v-27h-27z" />
    <glyph glyph-name=".null" horiz-adv-x="0" 
 />
    <glyph glyph-name="nonmarkingreturn" horiz-adv-x="333" 
 />
    <glyph glyph-name="space" unicode=" " horiz-adv-x="255" 
 />
    <glyph glyph-name="exclam" unicode="!" horiz-adv-x="275" 
d="M90 170l11 138l42 399h75l-43 -399l-18 -138h-67zM62 0l9 85h87l-9 -85h-87z" />
    <glyph glyph-name="quotedbl" unicode="&#x22;" horiz-adv-x="323" 
d="M82 560l20 204h69l-32 -204h-57zM233 560l20 203h69l-31 -203h-58z" />
    <glyph glyph-name="numbersign" unicode="#" horiz-adv-x="596" 
d="M95 0l24 153h-89l8 64h92l21 131h-99l6 65h104l25 154h71l-24 -154h171l23 154h72l-24 -154h84l-6 -65h-89l-21 -131h96l-8 -64h-99l-24 -153h-72l25 153h-171l-24 -153h-72zM201 217h171l22 131h-171z" />
    <glyph glyph-name="dollar" unicode="$" horiz-adv-x="491" 
d="M167 -99l10 94q-100 4 -167 38l31 63q77 -31 143 -35l21 196q-62 26 -96.5 57.5t-34.5 85.5q0 64 46.5 100.5t115.5 46.5l11 97h67l-10 -93q79 -3 142 -30l-26 -58q-71 22 -123 24l-19 -179q36 -15 56.5 -25.5t46.5 -28t38 -40t12 -49.5q0 -76 -54 -118.5t-133 -49.5
l-10 -96h-67zM351 153q0 25 -21 43t-61 35l-18 -167q100 16 100 89zM152 411q0 -40 62 -73l15 146q-77 -15 -77 -73z" />
    <glyph glyph-name="percent" unicode="%" horiz-adv-x="782" 
d="M205 388q-64 0 -99.5 33.5t-35.5 97.5q0 80 47 137.5t125 57.5q137 0 137 -131q0 -82 -47 -138.5t-127 -56.5zM211 445q50 0 76.5 38.5t26.5 90.5q0 86 -77 86q-50 0 -75 -42t-25 -95q0 -78 74 -78zM548 -9q-64 0 -99.5 33.5t-35.5 97.5q0 80 47 137.5t126 57.5
q137 0 137 -131q0 -82 -47.5 -138.5t-127.5 -56.5zM554 48q50 0 76.5 38.5t26.5 90.5q0 86 -77 86q-50 0 -75 -41.5t-25 -94.5q0 -79 74 -79zM112 61l-39 42l587 531l38 -42z" />
    <glyph glyph-name="ampersand" unicode="&#x26;" horiz-adv-x="683" 
d="M680 375q-59 -49 -153 -62q12 -26 12 -72q0 -102 -79.5 -176.5t-205.5 -74.5q-91 0 -151.5 42t-60.5 111q0 79 40 133.5t119 96.5q-48 36 -70.5 72.5t-22.5 92.5q0 83 61 129.5t152 46.5q63 0 110.5 -32t53.5 -88l-75 -13q-5 34 -35.5 53t-70.5 19q-53 0 -87.5 -30
t-34.5 -79q0 -59 43 -100t102.5 -57.5t127.5 -16.5q113 0 189 48zM268 52q53 0 92.5 17.5t60.5 46.5t31 60.5t10 65.5q0 41 -13 68q-100 1 -188 36q-68 -35 -105 -79t-37 -111q0 -49 40 -76.5t109 -27.5z" />
    <glyph glyph-name="quotesingle" unicode="'" horiz-adv-x="172" 
d="M82 560l20 204h69l-31 -204h-58z" />
    <glyph glyph-name="parenleft" unicode="(" horiz-adv-x="339" 
d="M207 -222q-81 66 -125.5 187t-44.5 235q0 102 30 210.5t94.5 207.5t150.5 151l40 -51q-109 -71 -172 -217.5t-63 -289.5q0 -102 37 -211.5t104 -169.5z" />
    <glyph glyph-name="parenright" unicode=")" horiz-adv-x="340" 
d="M20 -222l-40 52q107 81 172.5 232.5t65.5 296.5q0 99 -37 202.5t-107 156.5l51 51q83 -57 128.5 -173t45.5 -237q0 -161 -76 -327t-203 -254z" />
    <glyph glyph-name="asterisk" unicode="*" horiz-adv-x="427" 
d="M94 466l-28 60l105 44l17 -38zM174 598l-96 45l41 60l82 -65zM189 408l24 109h46l-1 -109h-69zM228 652l-1 110h69l-23 -110h-45zM366 466l-82 64l28 40l95 -43zM314 600l-18 38l95 65l28 -59z" />
    <glyph glyph-name="plus" unicode="+" horiz-adv-x="575" 
d="M221 54l23 216h-215l8 66l214 -1l23 222h69l-25 -223l228 2l-8 -66h-227l-22 -216h-68z" />
    <glyph glyph-name="comma" unicode="," horiz-adv-x="221" 
d="M-11 -144q28 63 37 103t20 137h89q-8 -82 -22.5 -128t-56.5 -112h-67z" />
    <glyph glyph-name="hyphen" unicode="-" horiz-adv-x="485" 
d="M88 254l7 68h298l-7 -68h-298z" />
    <glyph glyph-name="period" unicode="." horiz-adv-x="219" 
d="M34 0l9 87h90l-9 -87h-90z" />
    <glyph glyph-name="slash" unicode="/" horiz-adv-x="363" 
d="M-8 -62l319 831h70l-319 -831h-70z" />
    <glyph glyph-name="zero" unicode="0" horiz-adv-x="611" 
d="M273 -10q-109 0 -173 65t-64 183q0 140 80.5 230.5t215.5 90.5q109 0 172.5 -64.5t63.5 -184.5q0 -139 -81.5 -229.5t-213.5 -90.5zM280 54q97 0 154.5 71t57.5 174q0 89 -42.5 142.5t-124.5 53.5q-99 0 -154.5 -69t-55.5 -175q0 -90 41.5 -143.5t123.5 -53.5z" />
    <glyph glyph-name="one" unicode="1" horiz-adv-x="340" 
d="M132 0l51 486h-142l6 59l219 7l-58 -552h-76z" />
    <glyph glyph-name="two" unicode="2" horiz-adv-x="473" 
d="M21 0l7 62q19 15 60 47.5t67.5 53.5t62 55t56.5 62t36.5 63.5t15.5 69.5q0 79 -96 79q-61 0 -120 -36l-26 54q28 21 71 36t87 15q83 0 123 -41t40 -97q0 -181 -278 -356h274l-7 -67h-373z" />
    <glyph glyph-name="three" unicode="3" horiz-adv-x="463" 
d="M134 -169q-79 0 -150 35l23 62q65 -30 129 -30q81 0 128.5 50.5t47.5 117.5q0 55 -42.5 87t-120.5 38l-2 55q68 17 116 66.5t48 103.5q0 78 -102 78q-64 0 -119 -22l-17 57q61 32 149 32q75 0 120 -35t45 -100q0 -56 -37 -108.5t-99 -83.5q139 -44 139 -164
q0 -96 -72.5 -167.5t-183.5 -71.5z" />
    <glyph glyph-name="four" unicode="4" horiz-adv-x="548" 
d="M266 -160l21 195h-281l7 69l283 442h120l-47 -446h125l-6 -65h-125l-21 -195h-76zM86 100h208l41 393z" />
    <glyph glyph-name="five" unicode="5" horiz-adv-x="497" 
d="M170 -171q-88 0 -165 30l21 63q80 -25 150 -25q80 0 126.5 44t46.5 118q0 42 -26.5 74t-71.5 51t-91 29t-97 15l33 318h334l-6 -64h-264l-19 -193q124 -19 204.5 -73t80.5 -147q0 -102 -72 -171t-184 -69z" />
    <glyph glyph-name="six" unicode="6" horiz-adv-x="542" 
d="M261 -11q-104 0 -156.5 60.5t-52.5 174.5q0 71 10 137t34.5 132t62 114.5t97 78.5t134.5 30q55 0 93 -17l-22 -65q-37 14 -86 14q-178 0 -229 -246q76 34 148 34q85 0 139.5 -49.5t54.5 -140.5q0 -111 -59.5 -184t-167.5 -73zM271 52q69 0 103.5 54.5t34.5 131.5
q0 133 -133 133q-54 0 -140 -36q-6 -57 -6 -116q0 -79 36.5 -123t104.5 -44z" />
    <glyph glyph-name="seven" unicode="7" horiz-adv-x="462" 
d="M95 -175l-61 31l338 626h-324l7 64h400l-7 -66z" />
    <glyph glyph-name="eight" unicode="8" horiz-adv-x="528" 
d="M228 -10q-82 0 -137.5 40.5t-55.5 108.5q0 141 177 232q-36 27 -56 46t-37 51t-17 70q0 83 61 129.5t152 46.5q67 0 116.5 -36.5t49.5 -99.5q0 -123 -154 -209q61 -40 98.5 -84t37.5 -101q0 -92 -71.5 -143t-163.5 -51zM242 52q62 0 102.5 36t40.5 96q0 24 -11.5 46.5
t-37 45t-38.5 32.5t-42 30q-30 -18 -51 -33.5t-44.5 -39t-36 -51.5t-12.5 -60q0 -48 36.5 -75t93.5 -27zM280 401q124 72 124 169q0 39 -30.5 61t-75.5 22q-53 0 -87.5 -30.5t-34.5 -80.5q0 -28 20.5 -58t35.5 -43t48 -40z" />
    <glyph glyph-name="nine" unicode="9" horiz-adv-x="544" 
d="M147 -167q-54 0 -92 17l22 65q34 -14 86 -14q174 0 227 238q-66 -26 -146 -26q-85 0 -139.5 49.5t-54.5 140.5q0 112 59.5 184.5t167.5 72.5q208 0 208 -236q0 -71 -10 -137t-34.5 -131.5t-61.5 -114t-97 -78.5t-135 -30zM262 178q63 0 138 28q8 66 8 124q0 79 -36.5 123
t-104.5 44q-70 0 -104.5 -54.5t-34.5 -131.5q0 -133 134 -133z" />
    <glyph glyph-name="colon" unicode=":" horiz-adv-x="285" 
d="M65 0l10 87h90l-9 -87h-91zM113 459l10 87h90l-10 -87h-90z" />
    <glyph glyph-name="semicolon" unicode=";" horiz-adv-x="282" 
d="M19 -144q28 63 37 103t19 137h89q-8 -82 -22.5 -128t-56.5 -112h-66zM111 459l10 87h89l-9 -87h-90z" />
    <glyph glyph-name="less" unicode="&#x3c;" horiz-adv-x="503" 
d="M422 64l-384 190l10 99l424 192l-8 -74l-370 -168l335 -164z" />
    <glyph glyph-name="equal" unicode="=" horiz-adv-x="697" 
d="M87 166l7 66h494l-7 -66h-494zM109 376l7 66h494l-7 -66h-494z" />
    <glyph glyph-name="greater" unicode="&#x3e;" horiz-adv-x="502" 
d="M30 64l8 75l369 164l-334 168l8 74l383 -192l-10 -99z" />
    <glyph glyph-name="question" unicode="?" horiz-adv-x="354" 
d="M75 163q-6 24 -6 50q0 37 13.5 69.5t33.5 55.5t44 46t44 42t33.5 42.5t13.5 48.5q0 57 -50.5 88.5t-115.5 37.5l23 66q90 -7 156.5 -52.5t66.5 -128.5q0 -44 -18 -80t-44.5 -61t-53.5 -48t-48 -51t-25 -59q-1 -13 1 -57zM52 0l8 85h87l-9 -85h-86z" />
    <glyph glyph-name="at" unicode="@" horiz-adv-x="775" 
d="M323 -72q-132 0 -204 71t-72 203q0 106 31.5 199.5t89 163t145 110t194.5 40.5q116 0 177 -59t61 -174q0 -80 -25.5 -153.5t-84.5 -127t-142 -53.5q-35 0 -54 17t-14 49q-21 -21 -57.5 -40.5t-62.5 -19.5q-84 0 -84 94q0 104 59.5 178t160.5 74q58 0 102 -22l-50 -223
q-4 -16 -4 -25q0 -23 16 -23q46 0 81 26.5t53.5 69t27 86t8.5 86.5q0 181 -177 181q-93 0 -166.5 -36t-119.5 -98.5t-70 -142t-24 -169.5q0 -217 222 -217q74 0 152 19l7 -59q-68 -25 -176 -25zM324 215q25 0 55 17t52 39l38 169q-20 5 -35 5q-71 0 -108 -55.5t-37 -130.5
q0 -22 7 -33t28 -11z" />
    <glyph glyph-name="A" unicode="A" horiz-adv-x="636" 
d="M-34 0l352 707h118l148 -707h-82l-53 266h-270l-131 -266h-82zM210 330h225l-53 276l-11 60l-27 -61z" />
    <glyph glyph-name="B" unicode="B" horiz-adv-x="614" 
d="M67 0l75 707h192q202 0 202 -157q0 -59 -31 -108t-86 -64v-3q58 -7 94.5 -49t36.5 -101q0 -114 -70.5 -169.5t-189.5 -55.5h-223zM155 66h123q44 0 76 6.5t59 22t41 46.5t14 77q0 33 -14 56t-31.5 34t-49 17t-51.5 7t-54 1h-86zM189 396h100q81 0 121.5 33.5t40.5 112.5
q0 43 -22 67t-50.5 30t-72.5 6h-91z" />
    <glyph glyph-name="C" unicode="C" horiz-adv-x="638" 
d="M378 -10q-146 0 -232.5 86t-86.5 234q0 183 104.5 293t287.5 110q100 0 164 -28l-27 -63q-65 23 -143 23q-145 0 -224.5 -90.5t-79.5 -239.5q0 -122 70.5 -188t192.5 -66q88 0 152 21l15 -66q-82 -26 -193 -26z" />
    <glyph glyph-name="D" unicode="D" horiz-adv-x="728" 
d="M67 0l75 707h187q157 0 253 -77.5t96 -234.5q0 -194 -108.5 -294.5t-305.5 -100.5h-197zM153 66h126q154 0 236 82t82 243q0 128 -74 189t-204 61h-105z" />
    <glyph glyph-name="E" unicode="E" horiz-adv-x="567" 
d="M67 0l75 707h393l-7 -65h-314l-26 -254h291l-6 -66h-292l-27 -257h337l-7 -65h-417z" />
    <glyph glyph-name="F" unicode="F" horiz-adv-x="494" 
d="M67 0l75 707h352l-6 -65h-274l-28 -274h251l-7 -66h-252l-31 -302h-80z" />
    <glyph glyph-name="G" unicode="G" horiz-adv-x="665" 
d="M378 -10q-146 0 -232.5 85.5t-86.5 234.5q0 183 105 293t286 110q105 0 166 -28l-29 -62q-66 22 -142 22q-145 0 -224 -90t-79 -240q0 -123 70 -188.5t192 -65.5q50 0 94 11l27 278h80l-33 -326q-89 -34 -194 -34z" />
    <glyph glyph-name="H" unicode="H" horiz-adv-x="738" 
d="M67 0l75 707h79l-33 -320h380l33 320h80l-74 -707h-80l35 322h-381l-34 -322h-80z" />
    <glyph glyph-name="I" unicode="I" horiz-adv-x="278" 
d="M67 0l75 707h79l-74 -707h-80z" />
    <glyph glyph-name="J" unicode="J" horiz-adv-x="279" 
d="M-62 -187l-27 59q91 48 126.5 108.5t47.5 170.5l58 556h79l-58 -554q-13 -129 -63 -210.5t-163 -129.5z" />
    <glyph glyph-name="K" unicode="K" horiz-adv-x="602" 
d="M480 -19l-270 386l1 16l308 324h100l-318 -327l252 -359zM67 0l75 707h79l-74 -707h-80z" />
    <glyph glyph-name="L" unicode="L" horiz-adv-x="486" 
d="M67 0l75 707h79l-67 -639h307l-7 -68h-387z" />
    <glyph glyph-name="M" unicode="M" horiz-adv-x="889" 
d="M6 0l231 707h107l53 -661l296 661h106l-20 -707h-78l24 610l-273 -610h-126l-49 612l-192 -612h-79z" />
    <glyph glyph-name="N" unicode="N" horiz-adv-x="724" 
d="M67 0l76 707h116l264 -649l66 649h79l-76 -707h-123l-256 633l-66 -633h-80z" />
    <glyph glyph-name="O" unicode="O" horiz-adv-x="801" 
d="M359 -11q-143 0 -221 85.5t-78 232.5q0 184 104.5 297.5t285.5 113.5q143 0 222 -85.5t79 -232.5q0 -185 -105 -298t-287 -113zM369 55q143 0 221 97t78 245q0 116 -59 184.5t-171 68.5q-141 0 -219 -95.5t-78 -242.5q0 -116 58 -186.5t170 -70.5z" />
    <glyph glyph-name="P" unicode="P" horiz-adv-x="592" 
d="M67 0l75 707h229q95 0 151 -48.5t56 -141.5q0 -130 -86.5 -193.5t-220.5 -63.5h-96l-27 -260h-81zM182 326h94q217 0 217 184q0 133 -150 133h-128z" />
    <glyph glyph-name="Q" unicode="Q" horiz-adv-x="815" 
d="M359 -11q-143 0 -221 85.5t-78 232.5q0 184 104.5 297.5t285.5 113.5q143 0 222 -85.5t79 -232.5q0 -190 -110 -303l95 -108l-54 -42l-94 105q-94 -63 -229 -63zM369 55q99 0 171 51l-98 111l56 44l93 -107q77 94 77 243q0 116 -59 184.5t-171 68.5q-141 0 -219 -95.5
t-78 -242.5q0 -116 58 -186.5t170 -70.5z" />
    <glyph glyph-name="R" unicode="R" horiz-adv-x="641" 
d="M525 -18l-198 322q-31 -3 -85 -3h-61l-33 -301h-81l75 707h218q94 0 151.5 -45t57.5 -127q0 -76 -41 -133t-119 -79l192 -305zM187 365h93q204 0 204 167q0 111 -151 111h-118z" />
    <glyph glyph-name="S" unicode="S" horiz-adv-x="523" 
d="M210 -11q-48 0 -105 14t-91 34l31 67q96 -45 171 -45q166 0 166 134q0 31 -21.5 57.5t-54 45.5t-70 43t-70 48t-54 62.5t-21.5 85.5q0 86 65 133t160 47q104 0 178 -41l-26 -62q-77 34 -155 34q-63 0 -103.5 -25.5t-40.5 -83.5q0 -36 30 -67.5t73 -57t86 -53.5t73 -70.5
t30 -93.5q0 -100 -71.5 -153t-179.5 -53z" />
    <glyph glyph-name="T" unicode="T" horiz-adv-x="571" 
d="M212 0l67 640h-242l8 67h563l-8 -67h-241l-67 -640h-80z" />
    <glyph glyph-name="U" unicode="U" horiz-adv-x="724" 
d="M337 -12q-51 0 -94 10t-80.5 33t-59 66.5t-21.5 104.5q0 26 2 40l49 465h81l-48 -458q-2 -26 -2 -36q0 -157 174 -157q90 0 146 49t69 168l45 434h76l-46 -437q-8 -81 -36.5 -139t-71.5 -87.5t-87.5 -42.5t-95.5 -13z" />
    <glyph glyph-name="V" unicode="V" horiz-adv-x="655" 
d="M226 0l-172 707h83l150 -650l330 650h84l-365 -707h-110z" />
    <glyph glyph-name="W" unicode="W" horiz-adv-x="964" 
d="M182 0l-105 707h83l87 -643l226 643h74l106 -645l253 645h80l-283 -707h-110l-96 588l-204 -588h-111z" />
    <glyph glyph-name="X" unicode="X" horiz-adv-x="588" 
d="M-29 0l290 373l-163 334h89l127 -273l202 273h87l-256 -333l184 -374h-89l-148 309l-231 -309h-92z" />
    <glyph glyph-name="Y" unicode="Y" horiz-adv-x="591" 
d="M219 0l29 274l-184 433h89l144 -365l235 365h86l-291 -432l-28 -275h-80z" />
    <glyph glyph-name="Z" unicode="Z" horiz-adv-x="559" 
d="M5 0l7 70l431 565h-345l7 72h438l-6 -63l-434 -573h394l-7 -71h-485z" />
    <glyph glyph-name="bracketleft" unicode="[" horiz-adv-x="287" 
d="M24 -220l103 974h176l-6 -64h-100l-89 -846h100l-7 -64h-177z" />
    <glyph glyph-name="backslash" unicode="\" horiz-adv-x="365" 
d="M225 -62l-145 831h70l146 -831h-71z" />
    <glyph glyph-name="bracketright" unicode="]" horiz-adv-x="286" 
d="M-24 -220l6 64h100l89 846h-100l7 64h177l-103 -974h-176z" />
    <glyph glyph-name="asciicircum" unicode="^" horiz-adv-x="545" 
d="M14 294l205 413h101l104 -413h-79l-81 359l-171 -359h-79z" />
    <glyph glyph-name="underscore" unicode="_" horiz-adv-x="562" 
d="M-17 -165l6 68h500l-7 -68h-499z" />
    <glyph glyph-name="grave" unicode="`" horiz-adv-x="572" 
d="M387 614l-184 119l38 60l177 -129z" />
    <glyph glyph-name="a" unicode="a" horiz-adv-x="510" 
d="M142 -13q-55 0 -82.5 44.5t-27.5 118.5q0 68 22.5 138t62.5 129t103 96.5t137 37.5q53 0 99 -8l-56 -543h-76l11 99q-63 -57 -108.5 -84.5t-84.5 -27.5zM161 59q31 0 86.5 40t94.5 77l33 307q-8 2 -34 2q-70 0 -125 -54t-81 -127t-26 -146q0 -44 13 -71.5t39 -27.5z" />
    <glyph glyph-name="b" unicode="b" horiz-adv-x="528" 
d="M189 -8q-67 0 -142 22l78 741h75l-29 -284q35 23 56.5 36t60.5 27.5t73 14.5q122 0 122 -160q0 -68 -17.5 -135.5t-51.5 -127.5t-92.5 -97t-132.5 -37zM196 56q57 0 100 34t66 87.5t33.5 107t10.5 104.5q0 53 -16.5 73t-48.5 20q-63 0 -178 -77l-36 -339q45 -10 69 -10z
" />
    <glyph glyph-name="c" unicode="c" horiz-adv-x="450" 
d="M172 -12q-48 0 -78.5 32.5t-41 74t-10.5 89.5q0 160 72 268t196 108q77 0 128 -49l-42 -48q-43 33 -91 33q-51 0 -89 -30t-57 -78t-28 -95.5t-9 -94.5q0 -66 16.5 -103.5t39.5 -37.5q72 0 182 57l27 -54q-36 -22 -59.5 -34t-67.5 -25t-88 -13z" />
    <glyph glyph-name="d" unicode="d" horiz-adv-x="513" 
d="M144 -13q-107 0 -107 178q0 169 92 277.5t231 107.5h25l22 204h76l-81 -754h-76l11 99q-112 -112 -193 -112zM163 59q36 0 88 36.5t93 79.5l33 310q-9 1 -43 1q-59 0 -111 -44t-81 -113.5t-29 -143.5q0 -73 12.5 -99.5t37.5 -26.5z" />
    <glyph glyph-name="e" unicode="e" horiz-adv-x="468" 
d="M173 -12q-129 0 -129 204q0 100 29 182.5t90 134.5t144 52q69 0 103 -35.5t34 -89.5q0 -94 -143 -146l-178 -66v-27q0 -141 63 -141q65 0 171 55l27 -57q-37 -21 -61.5 -32.5t-66 -22.5t-83.5 -11zM130 291l159 62q38 15 59.5 36t21.5 44q0 33 -19.5 48t-46.5 15
q-137 0 -174 -205z" />
    <glyph glyph-name="f" unicode="f" horiz-adv-x="311" 
d="M49 -205l72 688h-80l7 63h80l4 43q4 45 18 78.5t33.5 53.5t47 32t55 16.5t60.5 4.5q55 0 103 -18l-20 -61q-50 14 -92 14q-63 0 -94 -27t-36 -88l-5 -48h119l-6 -63h-119l-73 -688h-74z" />
    <glyph glyph-name="g" unicode="g" horiz-adv-x="509" 
d="M147 -230q-95 0 -172 22l18 68q86 -23 142 -23q40 0 68.5 5t55 19.5t42 44t20.5 74.5l13 119q-61 -58 -106 -85t-87 -27q-57 0 -82 40.5t-25 123.5q0 160 93.5 280t229.5 120q51 0 99 -8l-61 -579q-5 -54 -29 -93.5t-60 -60.5t-75.5 -30.5t-83.5 -9.5zM160 59
q31 0 88 41.5t93 75.5l33 307q-8 2 -34 2q-64 0 -117.5 -48.5t-83 -122.5t-29.5 -152q0 -58 12.5 -80.5t37.5 -22.5z" />
    <glyph glyph-name="h" unicode="h" horiz-adv-x="525" 
d="M46 0l80 754h77l-32 -298q41 35 63.5 52t60.5 34.5t74 17.5q52 0 73.5 -25t21.5 -80q0 -30 -4 -61l-43 -394h-76l42 378q3 32 3 55q0 30 -9.5 42.5t-33.5 12.5q-57 0 -180 -101l-41 -387h-76z" />
    <glyph glyph-name="i" unicode="i" horiz-adv-x="233" 
d="M47 0l57 546h76l-57 -546h-76zM120 669l10 93h77l-10 -93h-77z" />
    <glyph glyph-name="j" unicode="j" horiz-adv-x="233" 
d="M-76 -220q-41 0 -75 13l19 65q36 -11 65 -11q58 0 81 33.5t30 102.5l60 563h76l-60 -564q-11 -111 -61.5 -156.5t-134.5 -45.5zM117 669l10 93h77l-10 -93h-77z" />
    <glyph glyph-name="k" unicode="k" horiz-adv-x="482" 
d="M365 -14l-192 302l201 258h90l-203 -255l181 -280zM46 0l79 754h77l-80 -754h-76z" />
    <glyph glyph-name="l" unicode="l" horiz-adv-x="233" 
d="M46 0l79 754h77l-80 -754h-76z" />
    <glyph glyph-name="m" unicode="m" horiz-adv-x="799" 
d="M47 0l57 546h77l-9 -89q36 31 56 47t60 36t74 20q51 0 72.5 -23t20.5 -72q113 95 191 95q51 0 71.5 -24t20.5 -79q0 -32 -4 -63l-42 -394h-76l41 378q4 29 4 55q0 31 -10 43.5t-36 12.5q-32 0 -69 -22.5t-96 -72.5l-42 -394h-76l41 378q5 37 5 55q0 31 -10 42.5t-36 11.5
q-29 0 -68 -24t-100 -76l-41 -387h-76z" />
    <glyph glyph-name="n" unicode="n" horiz-adv-x="526" 
d="M47 0l57 546h77l-9 -90q41 35 63.5 52t60.5 34.5t74 17.5q52 0 73 -25t21 -80q0 -26 -3 -61l-43 -394h-76l41 378q4 27 4 52q0 32 -9.5 45t-34.5 13q-56 0 -179 -101l-41 -387h-76z" />
    <glyph glyph-name="o" unicode="o" horiz-adv-x="515" 
d="M200 -12q-74 0 -117 55t-43 137q0 173 75 276.5t197 103.5q75 0 116 -55.5t41 -131.5q0 -69 -14.5 -134t-44.5 -123t-84 -93t-126 -35zM219 54q71 0 121.5 86.5t50.5 217.5q0 72 -24 105t-78 33q-69 0 -119.5 -88t-50.5 -213q0 -141 100 -141z" />
    <glyph glyph-name="p" unicode="p" horiz-adv-x="529" 
d="M22 -220l83 766h75l-7 -76q105 78 189 78q122 0 122 -160q0 -68 -17.5 -135.5t-51 -127t-92 -96.5t-132.5 -37q-34 0 -69 7l-24 -219h-76zM197 56q57 0 100 34t66 87.5t33.5 107t10.5 104.5q0 53 -16.5 73t-48.5 20q-63 0 -177 -78l-36 -338q56 -10 68 -10z" />
    <glyph glyph-name="q" unicode="q" horiz-adv-x="510" 
d="M301 -220l34 319q-66 -57 -110 -84.5t-83 -27.5q-56 0 -81.5 42t-25.5 126q0 104 41.5 194.5t116 146t164.5 55.5q53 0 99 -8l-79 -763h-76zM161 59q31 0 86.5 40t94.5 77l33 307q-9 2 -34 2q-96 0 -163 -99t-67 -221q0 -62 12.5 -84t37.5 -22z" />
    <glyph glyph-name="r" unicode="r" horiz-adv-x="350" 
d="M47 0l57 546h76l-9 -91q1 1 11.5 11t15.5 14t16.5 14t19.5 15.5t20 14t22.5 13t22.5 9.5t24 7.5t23 2.5q6 0 26 -2l-15 -71q-5 1 -24 1q-22 0 -59.5 -21.5t-56 -36.5t-54.5 -45l-40 -381h-76z" />
    <glyph glyph-name="s" unicode="s" horiz-adv-x="417" 
d="M154 -9q-92 0 -149 25l22 66q68 -25 132 -25q18 0 36.5 3t39 11t33.5 25t13 41q0 29 -21.5 55t-52.5 46.5t-62.5 43t-53 54.5t-21.5 71q0 78 50.5 113.5t128.5 35.5q82 0 142 -30l-23 -59q-72 26 -129 26q-41 0 -69 -18t-28 -57q0 -29 22 -55t53 -47t62.5 -43.5t53.5 -57
t22 -75.5t-18.5 -71.5t-49 -46.5t-64 -23.5t-69.5 -7.5z" />
    <glyph glyph-name="t" unicode="t" horiz-adv-x="373" 
d="M181 -12q-99 0 -102 106q-2 21 1 41l38 347h-80l7 64h81l11 112h75l-11 -112h169l-6 -64h-170l-37 -345q-9 -80 45 -80q50 0 114 33l17 -58q-67 -44 -152 -44z" />
    <glyph glyph-name="u" unicode="u" horiz-adv-x="525" 
d="M159 -11q-56 0 -80 26t-24 86q0 22 3 48l43 397h76l-42 -378q-3 -32 -3 -53q0 -34 10.5 -47t36.5 -13q70 0 175 103l42 388h76l-58 -546h-76l9 90q-50 -50 -93 -75.5t-95 -25.5z" />
    <glyph glyph-name="v" unicode="v" horiz-adv-x="473" 
d="M135 0l-92 546h83l71 -492l146 307q45 97 45 166q0 7 -2 19h78q1 -3 1 -19q0 -76 -48 -174l-171 -353h-111z" />
    <glyph glyph-name="w" unicode="w" horiz-adv-x="776" 
d="M135 0l-91 546h82l71 -492l180 313l-30 179h82l71 -492l146 307q44 91 44 165q0 14 -1 20h79q0 -2 0.5 -10t0.5 -9q0 -74 -48 -174l-171 -353h-113l-44 273l-157 -273h-101z" />
    <glyph glyph-name="x" unicode="x" horiz-adv-x="460" 
d="M-24 0l218 291l-114 255h81l83 -192l138 192h83l-192 -257l126 -289h-82l-93 224l-163 -224h-85z" />
    <glyph glyph-name="y" unicode="y" horiz-adv-x="477" 
d="M66 -220l107 220h-41l-85 546h82l70 -492l147 307q45 90 45 166q0 4 -0.5 10t-0.5 9h79q0 -2 0.5 -10t0.5 -9q0 -72 -48 -174l-277 -573h-79z" />
    <glyph glyph-name="z" unicode="z" horiz-adv-x="460" 
d="M1 0l7 66l338 414h-268l7 66h356l-7 -63l-342 -418h302l-7 -65h-386z" />
    <glyph glyph-name="braceleft" unicode="{" horiz-adv-x="331" 
d="M225 -220q-38 0 -66.5 4.5t-54.5 16.5t-40 36t-14 59q0 22 6 49l42 199q7 33 -14 63.5t-58 30.5l7 70q37 0 65 30t28 65v206q0 164 203 164h20l-7 -64h-23q-61 0 -90 -25t-29 -80l1 -182q0 -123 -100 -146v-2q74 -27 74 -103q0 -18 -5 -43l-40 -184q-3 -15 -3 -28
q0 -72 101 -72h24l-7 -64h-20z" />
    <glyph glyph-name="bar" unicode="|" horiz-adv-x="233" 
d="M24 -220l103 974h73l-102 -974h-74z" />
    <glyph glyph-name="braceright" unicode="}" horiz-adv-x="331" 
d="M-24 -220l7 64h23q119 0 119 100l-1 184q0 110 100 146v2q-74 19 -74 101q0 24 5 45l40 182q3 18 3 33q0 71 -101 71h-24l8 65h20q174 0 174 -119q0 -18 -5 -45l-43 -206q-8 -35 13.5 -65t58.5 -30l-7 -70q-37 0 -65 -30.5t-28 -63.5l1 -199q0 -41 -11.5 -71.5t-29.5 -48
t-46 -28t-55 -14t-62 -3.5h-20z" />
    <glyph glyph-name="asciitilde" unicode="~" horiz-adv-x="581" 
d="M401 285q-53 0 -117 30t-100 30q-44 0 -90 -30l-34 54q64 53 133 53q53 0 112 -31t100 -31q43 0 87 33l39 -48q-58 -60 -130 -60z" />
    <glyph glyph-name="uni00A0" unicode="&#xa0;" horiz-adv-x="255" 
 />
    <glyph glyph-name="exclamdown" unicode="&#xa1;" horiz-adv-x="242" 
d="M35 -161l42 399l18 138h67l-11 -138l-42 -399h-74zM94 461l9 85h87l-9 -85h-87z" />
    <glyph glyph-name="cent" unicode="&#xa2;" horiz-adv-x="467" 
d="M209 -45l8 75q-186 22 -186 196q0 117 61 195t177 90l9 82h67l-9 -79q69 -7 103 -29l-28 -56q-35 15 -82 20l-38 -356q40 1 102 14l4 -60q-57 -16 -113 -18l-8 -74h-67zM108 232q0 -67 29.5 -98t86.5 -38l38 353q-79 -10 -116.5 -68.5t-37.5 -148.5z" />
    <glyph glyph-name="sterling" unicode="&#xa3;" horiz-adv-x="463" 
d="M19 0l7 65q38 16 64.5 57t31.5 84h-95l6 62h97q2 17 4.5 47t3.5 40q5 60 27 100t61.5 60.5t81.5 28t102 9.5l-2 -65q-39 -4 -59 -6.5t-49.5 -11t-44 -22t-27 -38.5t-14.5 -60q-1 -25 -7 -82h177l-6 -62h-182q-11 -88 -83 -141h288l-7 -65h-375z" />
    <glyph glyph-name="currency" unicode="&#xa4;" horiz-adv-x="546" 
d="M104 138l-39 39l70 69q-36 43 -36 106q0 66 35 106l-68 68l38 38l70 -70q53 32 104 32q62 0 105 -30l68 69l40 -40l-67 -67q34 -39 34 -106q0 -68 -36 -107l68 -68l-38 -39l-69 69q-53 -28 -105 -28q-58 0 -102 30zM278 242q55 0 83 30.5t28 79.5q0 48 -28.5 79.5
t-82.5 31.5q-53 0 -82 -31.5t-29 -79.5t29.5 -79t81.5 -31z" />
    <glyph glyph-name="yen" unicode="&#xa5;" horiz-adv-x="614" 
d="M31 80l7 65h208l1 11l-39 98h-158l6 65h123l-97 227h85l128 -320l206 320h81l-151 -227h129l-7 -65h-166l-64 -97l-1 -12h220l-7 -65h-220l-9 -80h-75l9 80h-209z" />
    <glyph glyph-name="brokenbar" unicode="&#xa6;" horiz-adv-x="277" 
d="M46 -220l38 362h74l-38 -362h-74zM111 392l38 361h74l-38 -361h-74z" />
    <glyph glyph-name="section" unicode="&#xa7;" horiz-adv-x="566" 
d="M107 -55q-64 0 -111 40l32 64q46 -37 85 -37q23 0 38 21t19 43.5t4 46.5q0 31 -8 95l-3 32q-4 44 -4 68q0 127 68 204t193 77q84 0 142 -44l-32 -60q-58 39 -117 39q-55 0 -55 -101q0 -22 3 -43l6 -50q8 -74 8 -108q0 -125 -72.5 -206t-195.5 -81zM216 23q88 54 88 189
q0 12 -5 72l-6 63q-4 46 -4 63q0 76 22 109l-2 3q-76 -45 -76 -181q0 -30 3 -60l6 -62q4 -33 4 -74q0 -72 -31 -120z" />
    <glyph glyph-name="dieresis" unicode="&#xa8;" horiz-adv-x="408" 
d="M162 669l10 93h75l-10 -93h-75zM359 669l9 93h75l-10 -93h-74z" />
    <glyph glyph-name="copyright" unicode="&#xa9;" horiz-adv-x="791" 
d="M393 55q-94 0 -144 49.5t-48 130.5q2 107 63.5 173t171.5 66q71 0 117 -28l-25 -47q-46 21 -97 21q-73 0 -120 -46.5t-48 -132.5q-1 -64 40.5 -97t106.5 -33q40 0 96 16l13 -48q-67 -24 -126 -24zM343 -107q-143 0 -225 85t-82 227q0 182 111.5 299.5t291.5 117.5
q145 0 225.5 -86t80.5 -226q0 -181 -110 -299t-292 -118zM352 -53q155 0 243.5 102t88.5 253q0 120 -66 193t-190 73q-151 0 -240.5 -101t-89.5 -252q0 -117 64.5 -192.5t189.5 -75.5z" />
    <glyph glyph-name="ordfeminine" unicode="&#xaa;" horiz-adv-x="397" 
d="M161 387q-68 0 -68 111q0 91 54.5 154.5t136.5 63.5q30 0 65 -7l-34 -317h-59l7 49q-61 -54 -102 -54zM172 440q16 0 45.5 19t49.5 37l18 166l-16 1q-46 2 -82 -47.5t-36 -112.5t21 -63zM62 296l6 55h278l-7 -55h-277z" />
    <glyph glyph-name="guillemotleft" unicode="&#xab;" horiz-adv-x="432" 
d="M123 52l-83 220l129 220l54 -22l-108 -198l66 -195zM298 52l-83 220l130 220l53 -22l-108 -198l66 -195z" />
    <glyph glyph-name="logicalnot" unicode="&#xac;" horiz-adv-x="617" 
d="M449 112l16 158h-402l6 67h475l-24 -225h-71z" />
    <glyph glyph-name="registered" unicode="&#xae;" horiz-adv-x="549" 
d="M298 311q-41 0 -80 11.5t-74.5 36t-57 69.5t-21.5 104q0 104 65.5 164t166.5 60q94 0 162.5 -55.5t68.5 -168.5q0 -103 -65 -162t-165 -59zM303 353q78 0 128.5 47.5t50.5 131.5q0 89 -54.5 135.5t-129.5 46.5q-81 0 -133.5 -44.5t-52.5 -133.5q0 -55 20.5 -94t53 -57
t61 -25t56.5 -7zM413 417q-48 2 -72 27q-18 18 -51 70h-34v-91h-47v242h90q84 0 84 -75q0 -47 -45 -68q32 -44 36 -48q9 -9 45 -24zM256 547h31q51 0 51 42q0 22 -10 32t-36 10h-36v-84z" />
    <glyph glyph-name="macron" unicode="&#xaf;" horiz-adv-x="529" 
d="M163 670l7 64h261l-7 -64h-261z" />
    <glyph glyph-name="degree" unicode="&#xb0;" horiz-adv-x="401" 
d="M207 404q-74 0 -109 40t-28 118q7 68 56 111.5t118 43.5q73 0 110.5 -41t30.5 -114q-8 -73 -57 -115.5t-121 -42.5zM215 458q44 0 70.5 27t32.5 77q5 47 -16.5 74t-64.5 27t-69.5 -27t-31.5 -74q-6 -51 16 -77.5t63 -26.5z" />
    <glyph glyph-name="plusminus" unicode="&#xb1;" horiz-adv-x="545" 
d="M219 123l19 183h-183l7 67l183 -1l20 184h71l-21 -184l184 1l-7 -67h-183l-19 -183h-71zM23 0l7 68h437l-7 -68h-437z" />
    <glyph glyph-name="twosuperior" unicode="&#xb2;" horiz-adv-x="307" 
d="M-3 415l5 51q12 8 35.5 24t35 24t31.5 22t30 22.5t25 21.5t22.5 22.5t16 21.5t12.5 23t5 23q4 29 -12.5 44t-44.5 15q-53 0 -92 -34q-1 3 -11.5 21t-11.5 21q52 49 128 49q53 0 84.5 -29t26.5 -81q-4 -34 -21.5 -64t-51.5 -57.5t-57.5 -42.5t-66.5 -41h181l-6 -56h-263z
" />
    <glyph glyph-name="threesuperior" unicode="&#xb3;" horiz-adv-x="301" 
d="M114 410q-55 0 -106 16l19 51q45 -13 86 -13q85 0 90 55q4 36 -21 50t-81 18l4 39q94 8 99 64q1 22 -14.5 33.5t-41.5 11.5q-35 0 -73 -17q-1 3 -6 21.5t-6 21.5q50 26 100 26t80 -24.5t26 -64.5q-7 -62 -70 -86q38 -8 56 -33t15 -59q-6 -57 -50.5 -83.5t-105.5 -26.5z
" />
    <glyph glyph-name="acute" unicode="&#xb4;" horiz-adv-x="569" 
d="M258 618l-30 48l186 135l38 -60z" />
    <glyph glyph-name="mu" unicode="&#xb5;" horiz-adv-x="534" 
d="M21 -220l81 766h76l-41 -378q-4 -31 -4 -57q0 -32 11 -44.5t37 -12.5q29 0 61.5 18.5t73.5 52.5l40 34l41 387h76l-58 -546h-75l9 90q-6 -5 -35.5 -30.5t-45 -37t-45.5 -24t-58 -12.5q-34 2 -46 6l-22 -212h-76z" />
    <glyph glyph-name="paragraph" unicode="&#xb6;" horiz-adv-x="576" 
d="M262 -220q-39 0 -68 11l21 61q15 -5 55 -5q60 0 86 35.5t34 100.5l75 724h76l-76 -725q-22 -202 -203 -202zM250 270q-95 0 -148 45.5t-53 138.5q0 122 63 187.5t183 65.5h77l-45 -437h-77z" />
    <glyph glyph-name="periodcentered" unicode="&#xb7;" horiz-adv-x="238" 
d="M77 314l9 87h90l-9 -87h-90z" />
    <glyph glyph-name="cedilla" unicode="&#xb8;" horiz-adv-x="457" 
d="M164 -239l-21 44q59 34 66 77q2 23 -16 67h74q16 -32 13 -66q-7 -77 -116 -122z" />
    <glyph glyph-name="onesuperior" unicode="&#xb9;" horiz-adv-x="253" 
d="M95 415l33 312h-89l5 53q7 0 79 2t78 2l-39 -369h-67z" />
    <glyph glyph-name="ordmasculine" unicode="&#xba;" horiz-adv-x="405" 
d="M207 385q-49 0 -79.5 37.5t-30.5 91.5q0 92 41.5 149t113.5 57q53 0 81 -38t28 -93q0 -81 -38 -142.5t-116 -61.5zM216 435q41 0 63 50t22 102q0 33 -15.5 58t-44.5 25q-42 0 -62.5 -47.5t-20.5 -101.5q0 -36 14 -61t44 -25zM62 298l7 53h278l-7 -53h-278z" />
    <glyph glyph-name="guillemotright" unicode="&#xbb;" horiz-adv-x="432" 
d="M81 52l-52 25l106 195l-66 198l59 22l82 -220zM256 52l-52 25l106 195l-66 198l59 22l82 -220z" />
    <glyph glyph-name="onequarter" unicode="&#xbc;" horiz-adv-x="791" 
d="M562 1l9 88h-168l6 57l155 221h101l-24 -226h62l-5 -52h-62l-10 -88h-64zM460 141h116l20 189zM120 415l33 312h-89l5 53q7 0 79 2t78 2l-39 -369h-67zM91 76l-36 40l582 535l34 -38z" />
    <glyph glyph-name="onehalf" unicode="&#xbd;" horiz-adv-x="788" 
d="M401 0l5 51q12 8 35.5 24t35 24t31.5 22t30 22.5t25 21.5t22.5 22.5t16 21.5t12.5 23t5 23q4 29 -12.5 44t-44.5 15q-53 0 -92 -34q-1 3 -11.5 21t-11.5 21q52 49 128 49q53 0 84.5 -29t26.5 -81q-4 -34 -21.5 -64t-51.5 -57.5t-57.5 -42.5t-66.5 -41h181l-6 -56h-263z
M120 415l33 312h-89l5 53q7 0 79 2t78 2l-39 -369h-67zM82 76l-36 40l582 535l34 -38z" />
    <glyph glyph-name="threequarters" unicode="&#xbe;" horiz-adv-x="794" 
d="M565 1l9 88h-168l6 57l155 221h101l-24 -226h62l-5 -52h-62l-10 -88h-64zM105 76l-36 40l582 535l34 -38zM130 410q-55 0 -106 16l19 51q45 -13 86 -13q85 0 90 55q4 36 -21 50t-81 18l4 39q94 8 99 64q1 22 -14.5 33.5t-41.5 11.5q-35 0 -73 -17q-1 3 -6 21.5t-6 21.5
q50 26 100 26t80 -24.5t26 -64.5q-7 -62 -70 -86q38 -8 56 -33t15 -59q-6 -57 -50.5 -83.5t-105.5 -26.5zM463 141h116l20 189z" />
    <glyph glyph-name="questiondown" unicode="&#xbf;" horiz-adv-x="322" 
d="M225 -163q-90 7 -156.5 52.5t-66.5 128.5q0 44 18 80t44.5 61t53.5 47.5t48 51t25 59.5q1 13 -1 57l68 9q6 -24 6 -50q0 -37 -13.5 -69.5t-33.5 -55.5t-44 -46.5t-44 -42t-33.5 -42.5t-13.5 -49q0 -39 27.5 -67.5t63.5 -41.5t75 -16zM186 461l9 85h86l-8 -85h-87z" />
    <glyph glyph-name="Agrave" unicode="&#xc0;" horiz-adv-x="636" 
d="M439 736l-220 65l27 72l211 -82zM-34 0l352 707h118l148 -707h-82l-53 266h-270l-131 -266h-82zM210 330h225l-53 276l-11 60l-27 -61z" />
    <glyph glyph-name="Aacute" unicode="&#xc1;" horiz-adv-x="636" 
d="M-34 0l352 707h118l148 -707h-82l-53 266h-270l-131 -266h-82zM210 330h225l-53 276l-11 60l-27 -61zM313 737l-16 54l229 80l19 -70z" />
    <glyph glyph-name="Acircumflex" unicode="&#xc2;" horiz-adv-x="636" 
d="M-34 0l352 707h118l148 -707h-82l-53 266h-270l-131 -266h-82zM210 330h225l-53 276l-11 60l-27 -61zM526 737l-136 69l-155 -68l-21 54l182 85l160 -85z" />
    <glyph glyph-name="Atilde" unicode="&#xc3;" horiz-adv-x="636" 
d="M-34 0l352 707h118l148 -707h-82l-53 266h-270l-131 -266h-82zM210 330h225l-53 276l-11 60l-27 -61zM442 747q-20 0 -62 18.5t-60 18.5q-36 0 -73 -25l-27 43q52 45 106 45q25 0 65 -18t58 -18q35 0 74 27l25 -45q-52 -46 -106 -46z" />
    <glyph glyph-name="Adieresis" unicode="&#xc4;" horiz-adv-x="636" 
d="M-34 0l352 707h118l148 -707h-82l-53 266h-270l-131 -266h-82zM210 330h225l-53 276l-11 60l-27 -61zM239 764l9 92h74l-9 -92h-74zM448 764l9 92h74l-9 -92h-74z" />
    <glyph glyph-name="Aring" unicode="&#xc5;" horiz-adv-x="636" 
d="M-34 0l352 707h118l148 -707h-82l-53 266h-270l-131 -266h-82zM210 330h225l-53 276l-11 60l-27 -61zM383 736q-38 0 -64.5 20t-26.5 54q0 46 31 74.5t77 28.5q36 0 62.5 -22t26.5 -56q0 -45 -30 -72t-76 -27zM386 771q24 0 41 16t17 40q0 21 -14 34.5t-35 13.5
q-26 0 -42 -15.5t-16 -40.5q0 -22 14 -35t35 -13z" />
    <glyph glyph-name="AE" unicode="&#xc6;" horiz-adv-x="906" 
d="M-50 0l468 707h455l-6 -65h-314l-27 -254h293l-8 -66h-291l-28 -257h338l-7 -65h-416l35 322h-197l-206 -322h-89zM286 387h162l28 255h-26z" />
    <glyph glyph-name="Ccedilla" unicode="&#xc7;" horiz-adv-x="638" 
d="M378 -10q-146 0 -232.5 86t-86.5 234q0 183 104.5 293t287.5 110q100 0 164 -28l-27 -63q-65 23 -143 23q-145 0 -224.5 -90.5t-79.5 -239.5q0 -122 70.5 -188t192.5 -66q88 0 152 21l15 -66q-82 -26 -193 -26zM300 -239l-21 44q59 34 66 77q2 23 -16 67h74
q16 -32 13 -66q-7 -77 -116 -122z" />
    <glyph glyph-name="Egrave" unicode="&#xc8;" horiz-adv-x="567" 
d="M413 736l-220 65l27 72l211 -82zM67 0l75 707h393l-7 -65h-314l-26 -254h291l-6 -66h-292l-27 -257h337l-7 -65h-417z" />
    <glyph glyph-name="Eacute" unicode="&#xc9;" horiz-adv-x="567" 
d="M274 737l-16 54l229 80l19 -70zM67 0l75 707h393l-7 -65h-314l-26 -254h291l-6 -66h-292l-27 -257h337l-7 -65h-417z" />
    <glyph glyph-name="Ecircumflex" unicode="&#xca;" horiz-adv-x="567" 
d="M67 0l75 707h393l-7 -65h-314l-26 -254h291l-6 -66h-292l-27 -257h337l-7 -65h-417zM485 737l-136 69l-155 -68l-21 54l182 85l160 -85z" />
    <glyph glyph-name="Edieresis" unicode="&#xcb;" horiz-adv-x="567" 
d="M208 764l9 92h74l-9 -92h-74zM417 764l9 92h74l-9 -92h-74zM67 0l75 707h393l-7 -65h-314l-26 -254h291l-6 -66h-292l-27 -257h337l-7 -65h-417z" />
    <glyph glyph-name="Igrave" unicode="&#xcc;" horiz-adv-x="278" 
d="M231 736l-220 65l27 72l211 -82zM67 0l75 707h79l-74 -707h-80z" />
    <glyph glyph-name="Iacute" unicode="&#xcd;" horiz-adv-x="278" 
d="M67 0l75 707h79l-74 -707h-80zM135 737l-16 54l229 80l19 -70z" />
    <glyph glyph-name="Icircumflex" unicode="&#xce;" horiz-adv-x="278" 
d="M67 0l75 707h79l-74 -707h-80zM332 737l-136 69l-155 -68l-21 54l182 85l160 -85z" />
    <glyph glyph-name="Idieresis" unicode="&#xcf;" horiz-adv-x="278" 
d="M67 0l75 707h79l-74 -707h-80zM47 764l9 92h74l-9 -92h-74zM256 764l9 92h74l-9 -92h-74z" />
    <glyph glyph-name="Eth" unicode="&#xd0;" horiz-adv-x="753" 
d="M55 320l7 65h71l34 322h187q157 0 253 -77.5t96 -234.5q0 -194 -108.5 -294.5t-305.5 -100.5h-197l34 320h-71zM178 66h126q154 0 236 82t82 243q0 128 -74 189t-204 61h-105l-27 -256h147l-7 -65h-147z" />
    <glyph glyph-name="Ntilde" unicode="&#xd1;" horiz-adv-x="724" 
d="M480 747q-20 0 -62 18.5t-60 18.5q-36 0 -73 -25l-27 43q52 45 106 45q25 0 65 -18t58 -18q35 0 74 27l25 -45q-52 -46 -106 -46zM67 0l76 707h116l264 -649l66 649h79l-76 -707h-123l-256 633l-66 -633h-80z" />
    <glyph glyph-name="Ograve" unicode="&#xd2;" horiz-adv-x="801" 
d="M507 736l-220 65l27 72l211 -82zM359 -11q-143 0 -221 85.5t-78 232.5q0 184 104.5 297.5t285.5 113.5q143 0 222 -85.5t79 -232.5q0 -185 -105 -298t-287 -113zM369 55q143 0 221 97t78 245q0 116 -59 184.5t-171 68.5q-141 0 -219 -95.5t-78 -242.5q0 -116 58 -186.5
t170 -70.5z" />
    <glyph glyph-name="Oacute" unicode="&#xd3;" horiz-adv-x="801" 
d="M362 737l-16 54l229 80l19 -70zM359 -11q-143 0 -221 85.5t-78 232.5q0 184 104.5 297.5t285.5 113.5q143 0 222 -85.5t79 -232.5q0 -185 -105 -298t-287 -113zM369 55q143 0 221 97t78 245q0 116 -59 184.5t-171 68.5q-141 0 -219 -95.5t-78 -242.5q0 -116 58 -186.5
t170 -70.5z" />
    <glyph glyph-name="Ocircumflex" unicode="&#xd4;" horiz-adv-x="801" 
d="M587 737l-136 69l-155 -68l-21 54l182 85l160 -85zM359 -11q-143 0 -221 85.5t-78 232.5q0 184 104.5 297.5t285.5 113.5q143 0 222 -85.5t79 -232.5q0 -185 -105 -298t-287 -113zM369 55q143 0 221 97t78 245q0 116 -59 184.5t-171 68.5q-141 0 -219 -95.5t-78 -242.5
q0 -116 58 -186.5t170 -70.5z" />
    <glyph glyph-name="Otilde" unicode="&#xd5;" horiz-adv-x="801" 
d="M507 747q-21 0 -63 18.5t-59 18.5q-35 0 -73 -25l-27 43q52 45 106 45q25 0 65 -18t58 -18q35 0 74 27l25 -45q-52 -46 -106 -46zM359 -11q-143 0 -221 85.5t-78 232.5q0 184 104.5 297.5t285.5 113.5q143 0 222 -85.5t79 -232.5q0 -185 -105 -298t-287 -113zM369 55
q143 0 221 97t78 245q0 116 -59 184.5t-171 68.5q-141 0 -219 -95.5t-78 -242.5q0 -116 58 -186.5t170 -70.5z" />
    <glyph glyph-name="Odieresis" unicode="&#xd6;" horiz-adv-x="801" 
d="M306 764l9 92h74l-9 -92h-74zM515 764l9 92h74l-9 -92h-74zM359 -11q-143 0 -221 85.5t-78 232.5q0 184 104.5 297.5t285.5 113.5q143 0 222 -85.5t79 -232.5q0 -185 -105 -298t-287 -113zM369 55q143 0 221 97t78 245q0 116 -59 184.5t-171 68.5q-141 0 -219 -95.5
t-78 -242.5q0 -116 58 -186.5t170 -70.5z" />
    <glyph glyph-name="multiply" unicode="&#xd7;" horiz-adv-x="547" 
d="M427 81l-160 180l-191 -173l-43 48l191 173l-154 171l51 47l153 -172l196 176l44 -48l-198 -177l162 -179z" />
    <glyph glyph-name="Oslash" unicode="&#xd8;" horiz-adv-x="826" 
d="M88 -29l-41 39l84 87q-58 82 -58 210q0 184 104.5 297.5t285.5 113.5q123 0 202 -66l79 81l41 -40l-80 -84q59 -80 59 -209q0 -185 -105 -298t-287 -113q-127 0 -202 67zM190 157l419 438q-60 55 -158 55q-141 0 -219 -96t-78 -242q0 -95 36 -155zM382 55q143 0 221.5 97
t78.5 245q0 89 -37 151l-420 -436q59 -57 157 -57z" />
    <glyph glyph-name="Ugrave" unicode="&#xd9;" horiz-adv-x="725" 
d="M487 736l-220 65l27 72l211 -82zM337 -12q-51 0 -94 10t-80.5 33t-59 66.5t-21.5 104.5q0 26 2 40l49 465h81l-48 -458q-2 -26 -2 -36q0 -157 174 -157q90 0 146 49t69 168l45 434h76l-46 -437q-8 -81 -36.5 -139t-71.5 -87.5t-87.5 -42.5t-95.5 -13z" />
    <glyph glyph-name="Uacute" unicode="&#xda;" horiz-adv-x="725" 
d="M344 737l-16 54l229 80l19 -70zM337 -12q-51 0 -94 10t-80.5 33t-59 66.5t-21.5 104.5q0 26 2 40l49 465h81l-48 -458q-2 -26 -2 -36q0 -157 174 -157q90 0 146 49t69 168l45 434h76l-46 -437q-8 -81 -36.5 -139t-71.5 -87.5t-87.5 -42.5t-95.5 -13z" />
    <glyph glyph-name="Ucircumflex" unicode="&#xdb;" horiz-adv-x="725" 
d="M337 -12q-51 0 -94 10t-80.5 33t-59 66.5t-21.5 104.5q0 26 2 40l49 465h81l-48 -458q-2 -26 -2 -36q0 -157 174 -157q90 0 146 49t69 168l45 434h76l-46 -437q-8 -81 -36.5 -139t-71.5 -87.5t-87.5 -42.5t-95.5 -13zM557 737l-136 69l-155 -68l-21 54l182 85l160 -85z
" />
    <glyph glyph-name="Udieresis" unicode="&#xdc;" horiz-adv-x="725" 
d="M264 764l9 92h74l-9 -92h-74zM473 764l9 92h74l-9 -92h-74zM337 -12q-51 0 -94 10t-80.5 33t-59 66.5t-21.5 104.5q0 26 2 40l49 465h81l-48 -458q-2 -26 -2 -36q0 -157 174 -157q90 0 146 49t69 168l45 434h76l-46 -437q-8 -81 -36.5 -139t-71.5 -87.5t-87.5 -42.5
t-95.5 -13z" />
    <glyph glyph-name="Yacute" unicode="&#xdd;" horiz-adv-x="591" 
d="M219 0l29 274l-184 433h89l144 -365l235 365h86l-291 -432l-28 -275h-80zM284 737l-16 54l229 80l19 -70z" />
    <glyph glyph-name="Thorn" unicode="&#xde;" horiz-adv-x="591" 
d="M67 0l75 707h79l-13 -129h121q52 0 91.5 -8t73 -27.5t51 -57.5t17.5 -93q0 -125 -78.5 -188.5t-206.5 -63.5h-115l-14 -140h-81zM201 513l-32 -306h92q104 0 160 42t56 139q0 69 -39 97t-111 28h-126z" />
    <glyph glyph-name="germandbls" unicode="&#xdf;" horiz-adv-x="578" 
d="M24 -220l82 793q11 106 71.5 153.5t151.5 47.5q61 0 112.5 -38.5t51.5 -110.5q0 -36 -21.5 -71.5t-47.5 -58t-47.5 -47t-21.5 -41.5q0 -23 18.5 -46t45 -43.5t53 -44t45 -58.5t18.5 -76q0 -52 -32.5 -87.5t-73.5 -48.5t-85 -13q-70 0 -143 25l19 64q59 -21 120 -21
q49 0 84 20.5t35 50.5q0 33 -18.5 61t-44.5 49t-52 43t-44.5 52.5t-18.5 66.5q0 25 14 49t33.5 43t39.5 38.5t34 44t14 50.5q0 35 -28.5 58t-67.5 23q-68 0 -100 -34.5t-38 -100.5l-83 -792h-75z" />
    <glyph glyph-name="agrave" unicode="&#xe0;" horiz-adv-x="510" 
d="M142 -13q-55 0 -82.5 44.5t-27.5 118.5q0 68 22.5 138t62.5 129t103 96.5t137 37.5q53 0 99 -8l-56 -543h-76l11 99q-63 -57 -108.5 -84.5t-84.5 -27.5zM161 59q31 0 86.5 40t94.5 77l33 307q-8 2 -34 2q-70 0 -125 -54t-81 -127t-26 -146q0 -44 13 -71.5t39 -27.5z
M413 615l-184 119l38 60l177 -129z" />
    <glyph glyph-name="aacute" unicode="&#xe1;" horiz-adv-x="510" 
d="M142 -13q-55 0 -82.5 44.5t-27.5 118.5q0 68 22.5 138t62.5 129t103 96.5t137 37.5q53 0 99 -8l-56 -543h-76l11 99q-63 -57 -108.5 -84.5t-84.5 -27.5zM161 59q31 0 86.5 40t94.5 77l33 307q-8 2 -34 2q-70 0 -125 -54t-81 -127t-26 -146q0 -44 13 -71.5t39 -27.5z
M300 618l-30 48l186 135l38 -60z" />
    <glyph glyph-name="acircumflex" unicode="&#xe2;" horiz-adv-x="510" 
d="M491 621l-132 90l-151 -90l-32 50l191 115l160 -115zM142 -13q-55 0 -82.5 44.5t-27.5 118.5q0 68 22.5 138t62.5 129t103 96.5t137 37.5q53 0 99 -8l-56 -543h-76l11 99q-63 -57 -108.5 -84.5t-84.5 -27.5zM161 59q31 0 86.5 40t94.5 77l33 307q-8 2 -34 2
q-70 0 -125 -54t-81 -127t-26 -146q0 -44 13 -71.5t39 -27.5z" />
    <glyph glyph-name="atilde" unicode="&#xe3;" horiz-adv-x="510" 
d="M142 -13q-55 0 -82.5 44.5t-27.5 118.5q0 68 22.5 138t62.5 129t103 96.5t137 37.5q53 0 99 -8l-56 -543h-76l11 99q-63 -57 -108.5 -84.5t-84.5 -27.5zM161 59q31 0 86.5 40t94.5 77l33 307q-8 2 -34 2q-70 0 -125 -54t-81 -127t-26 -146q0 -44 13 -71.5t39 -27.5z
M416 646q-20 0 -62 18t-60 18q-38 0 -70 -24l-29 42q47 47 105 47q26 0 64.5 -18t56.5 -18q34 0 73 27l27 -43q-45 -49 -105 -49z" />
    <glyph glyph-name="adieresis" unicode="&#xe4;" horiz-adv-x="510" 
d="M220 669l10 93h75l-10 -93h-75zM417 669l9 93h75l-10 -93h-74zM142 -13q-55 0 -82.5 44.5t-27.5 118.5q0 68 22.5 138t62.5 129t103 96.5t137 37.5q53 0 99 -8l-56 -543h-76l11 99q-63 -57 -108.5 -84.5t-84.5 -27.5zM161 59q31 0 86.5 40t94.5 77l33 307q-8 2 -34 2
q-70 0 -125 -54t-81 -127t-26 -146q0 -44 13 -71.5t39 -27.5z" />
    <glyph glyph-name="aring" unicode="&#xe5;" horiz-adv-x="510" 
d="M142 -13q-55 0 -82.5 44.5t-27.5 118.5q0 68 22.5 138t62.5 129t103 96.5t137 37.5q53 0 99 -8l-56 -543h-76l11 99q-63 -57 -108.5 -84.5t-84.5 -27.5zM161 59q31 0 86.5 40t94.5 77l33 307q-8 2 -34 2q-70 0 -125 -54t-81 -127t-26 -146q0 -44 13 -71.5t39 -27.5z
M354 616q-42 0 -71.5 22.5t-29.5 60.5q0 51 34.5 82.5t85.5 31.5q41 0 70 -24t29 -62q0 -50 -33.5 -80.5t-84.5 -30.5zM357 657q28 0 46 17t18 44q0 24 -15 38t-38 14q-29 0 -46.5 -17t-17.5 -45q0 -24 14.5 -37.5t38.5 -13.5z" />
    <glyph glyph-name="ae" unicode="&#xe6;" horiz-adv-x="767" 
d="M144 -13q-55 0 -81.5 48.5t-26.5 129.5q0 166 92.5 276t230.5 110q49 0 93 -8l-7 -62q65 80 162 80q72 0 104 -34t32 -90q0 -94 -143 -146l-177 -66q0 -5 -0.5 -14t-0.5 -13q0 -142 65 -142q54 0 170 55l27 -57q-37 -21 -61 -32.5t-66 -22.5t-84 -11q-101 0 -120 125
q-128 -126 -209 -126zM163 59q31 0 86.5 41t92.5 76l33 307l-41 2q-89 3 -155 -91t-66 -209q0 -73 12.5 -99.5t37.5 -26.5zM431 292l157 62q81 34 81 80q0 32 -19 47t-46 15q-40 0 -71.5 -17.5t-51 -48t-31.5 -64.5t-19 -74z" />
    <glyph glyph-name="ccedilla" unicode="&#xe7;" horiz-adv-x="449" 
d="M172 -12q-48 0 -78.5 32.5t-41 74t-10.5 89.5q0 160 72 268t196 108q77 0 128 -49l-42 -48q-43 33 -91 33q-51 0 -89 -30t-57 -78t-28 -95.5t-9 -94.5q0 -66 16.5 -103.5t39.5 -37.5q72 0 182 57l27 -54q-36 -22 -59.5 -34t-67.5 -25t-88 -13zM147 -239l-21 44
q59 34 66 77q2 23 -16 67h74q16 -32 13 -66q-7 -77 -116 -122z" />
    <glyph glyph-name="egrave" unicode="&#xe8;" horiz-adv-x="468" 
d="M173 -12q-129 0 -129 204q0 100 29 182.5t90 134.5t144 52q69 0 103 -35.5t34 -89.5q0 -94 -143 -146l-178 -66v-27q0 -141 63 -141q65 0 171 55l27 -57q-37 -21 -61.5 -32.5t-66 -22.5t-83.5 -11zM130 291l159 62q38 15 59.5 36t21.5 44q0 33 -19.5 48t-46.5 15
q-137 0 -174 -205zM333 615l-184 119l38 60l177 -129z" />
    <glyph glyph-name="eacute" unicode="&#xe9;" horiz-adv-x="468" 
d="M173 -12q-129 0 -129 204q0 100 29 182.5t90 134.5t144 52q69 0 103 -35.5t34 -89.5q0 -94 -143 -146l-178 -66v-27q0 -141 63 -141q65 0 171 55l27 -57q-37 -21 -61.5 -32.5t-66 -22.5t-83.5 -11zM130 291l159 62q38 15 59.5 36t21.5 44q0 33 -19.5 48t-46.5 15
q-137 0 -174 -205zM234 618l-30 48l186 135l38 -60z" />
    <glyph glyph-name="ecircumflex" unicode="&#xea;" horiz-adv-x="468" 
d="M173 -12q-129 0 -129 204q0 100 29 182.5t90 134.5t144 52q69 0 103 -35.5t34 -89.5q0 -94 -143 -146l-178 -66v-27q0 -141 63 -141q65 0 171 55l27 -57q-37 -21 -61.5 -32.5t-66 -22.5t-83.5 -11zM130 291l159 62q38 15 59.5 36t21.5 44q0 33 -19.5 48t-46.5 15
q-137 0 -174 -205zM440 621l-132 90l-151 -90l-32 50l191 115l160 -115z" />
    <glyph glyph-name="edieresis" unicode="&#xeb;" horiz-adv-x="468" 
d="M173 -12q-129 0 -129 204q0 100 29 182.5t90 134.5t144 52q69 0 103 -35.5t34 -89.5q0 -94 -143 -146l-178 -66v-27q0 -141 63 -141q65 0 171 55l27 -57q-37 -21 -61.5 -32.5t-66 -22.5t-83.5 -11zM130 291l159 62q38 15 59.5 36t21.5 44q0 33 -19.5 48t-46.5 15
q-137 0 -174 -205zM168 669l10 93h75l-10 -93h-75zM365 669l9 93h75l-10 -93h-74z" />
    <glyph glyph-name="igrave" unicode="&#xec;" horiz-adv-x="233" 
d="M47 0l57 546h76l-57 -546h-76zM191 615l-184 119l38 60l177 -129z" />
    <glyph glyph-name="iacute" unicode="&#xed;" horiz-adv-x="233" 
d="M103 618l-30 48l186 135l38 -60zM47 0l57 546h76l-57 -546h-76z" />
    <glyph glyph-name="icircumflex" unicode="&#xee;" horiz-adv-x="233" 
d="M298 621l-132 90l-151 -90l-32 50l191 115l160 -115zM47 0l57 546h76l-57 -546h-76z" />
    <glyph glyph-name="idieresis" unicode="&#xef;" horiz-adv-x="233" 
d="M18 669l10 93h75l-10 -93h-75zM215 669l9 93h75l-10 -93h-74zM47 0l57 546h76l-57 -546h-76z" />
    <glyph glyph-name="eth" unicode="&#xf0;" horiz-adv-x="523" 
d="M200 -12q-74 0 -117 56.5t-43 135.5q0 171 73.5 273.5t192.5 104.5q29 0 53 -11q-13 41 -33 78l-97 -34l-18 48l86 29q-23 30 -47 50l49 51q36 -26 67 -68l98 34l19 -47l-88 -31q75 -134 75 -298q0 -61 -14.5 -122.5t-44.5 -119t-85 -93.5t-126 -36zM224 54
q73 0 120.5 89.5t47.5 214.5q0 70 -25.5 104t-81.5 34q-68 0 -116.5 -92.5t-48.5 -208.5q0 -141 104 -141z" />
    <glyph glyph-name="ntilde" unicode="&#xf1;" horiz-adv-x="526" 
d="M380 646q-20 0 -62 18t-60 18q-38 0 -70 -24l-29 42q47 47 105 47q26 0 64.5 -18t56.5 -18q34 0 73 27l27 -43q-45 -49 -105 -49zM47 0l57 546h77l-9 -90q41 35 63.5 52t60.5 34.5t74 17.5q52 0 73 -25t21 -80q0 -26 -3 -61l-43 -394h-76l41 378q4 27 4 52q0 32 -9.5 45
t-34.5 13q-56 0 -179 -101l-41 -387h-76z" />
    <glyph glyph-name="ograve" unicode="&#xf2;" horiz-adv-x="515" 
d="M350 615l-184 119l38 60l177 -129zM200 -12q-74 0 -117 55t-43 137q0 173 75 276.5t197 103.5q75 0 116 -55.5t41 -131.5q0 -69 -14.5 -134t-44.5 -123t-84 -93t-126 -35zM219 54q71 0 121.5 86.5t50.5 217.5q0 72 -24 105t-78 33q-69 0 -119.5 -88t-50.5 -213
q0 -141 100 -141z" />
    <glyph glyph-name="oacute" unicode="&#xf3;" horiz-adv-x="515" 
d="M254 618l-30 48l186 135l38 -60zM200 -12q-74 0 -117 55t-43 137q0 173 75 276.5t197 103.5q75 0 116 -55.5t41 -131.5q0 -69 -14.5 -134t-44.5 -123t-84 -93t-126 -35zM219 54q71 0 121.5 86.5t50.5 217.5q0 72 -24 105t-78 33q-69 0 -119.5 -88t-50.5 -213
q0 -141 100 -141z" />
    <glyph glyph-name="ocircumflex" unicode="&#xf4;" horiz-adv-x="515" 
d="M457 621l-132 90l-151 -90l-32 50l191 115l160 -115zM200 -12q-74 0 -117 55t-43 137q0 173 75 276.5t197 103.5q75 0 116 -55.5t41 -131.5q0 -69 -14.5 -134t-44.5 -123t-84 -93t-126 -35zM219 54q71 0 121.5 86.5t50.5 217.5q0 72 -24 105t-78 33q-69 0 -119.5 -88
t-50.5 -213q0 -141 100 -141z" />
    <glyph glyph-name="otilde" unicode="&#xf5;" horiz-adv-x="515" 
d="M200 -12q-74 0 -117 55t-43 137q0 173 75 276.5t197 103.5q75 0 116 -55.5t41 -131.5q0 -69 -14.5 -134t-44.5 -123t-84 -93t-126 -35zM219 54q71 0 121.5 86.5t50.5 217.5q0 72 -24 105t-78 33q-69 0 -119.5 -88t-50.5 -213q0 -141 100 -141zM375 646q-21 0 -63 18
t-59 18q-38 0 -70 -24l-29 42q47 47 105 47q26 0 64.5 -18t56.5 -18q34 0 73 27l27 -43q-45 -49 -105 -49z" />
    <glyph glyph-name="odieresis" unicode="&#xf6;" horiz-adv-x="515" 
d="M171 669l10 93h75l-10 -93h-75zM368 669l9 93h75l-10 -93h-74zM200 -12q-74 0 -117 55t-43 137q0 173 75 276.5t197 103.5q75 0 116 -55.5t41 -131.5q0 -69 -14.5 -134t-44.5 -123t-84 -93t-126 -35zM219 54q71 0 121.5 86.5t50.5 217.5q0 72 -24 105t-78 33
q-69 0 -119.5 -88t-50.5 -213q0 -141 100 -141z" />
    <glyph glyph-name="divide" unicode="&#xf7;" horiz-adv-x="643" 
d="M251 68l8 78h80l-9 -78h-79zM63 270l7 66h509l-7 -66h-509zM292 461l9 79h79l-8 -79h-80z" />
    <glyph glyph-name="oslash" unicode="&#xf8;" horiz-adv-x="546" 
d="M35 -28l-36 30l76 90q-16 42 -16 88q0 171 75 275.5t196 104.5q65 0 108 -48l54 62l36 -31l-62 -73q22 -46 22 -97q0 -69 -14.5 -134t-44.5 -123t-84 -93t-126 -35q-73 0 -119 59zM140 167l250 289q-25 40 -83 40q-66 0 -117 -84.5t-52 -211.5q0 -13 2 -33zM237 54
q70 0 121 85.5t52 215.5q0 11 -3 47l-255 -295q22 -53 85 -53z" />
    <glyph glyph-name="ugrave" unicode="&#xf9;" horiz-adv-x="525" 
d="M159 -11q-56 0 -80 26t-24 86q0 22 3 48l43 397h76l-42 -378q-3 -32 -3 -53q0 -34 10.5 -47t36.5 -13q70 0 175 103l42 388h76l-58 -546h-76l9 90q-50 -50 -93 -75.5t-95 -25.5zM342 614l-184 119l38 60l177 -129z" />
    <glyph glyph-name="uacute" unicode="&#xfa;" horiz-adv-x="525" 
d="M256 618l-30 48l186 135l38 -60zM159 -11q-56 0 -80 26t-24 86q0 22 3 48l43 397h76l-42 -378q-3 -32 -3 -53q0 -34 10.5 -47t36.5 -13q70 0 175 103l42 388h76l-58 -546h-76l9 90q-50 -50 -93 -75.5t-95 -25.5z" />
    <glyph glyph-name="ucircumflex" unicode="&#xfb;" horiz-adv-x="525" 
d="M444 621l-132 90l-151 -90l-32 50l191 115l160 -115zM159 -11q-56 0 -80 26t-24 86q0 22 3 48l43 397h76l-42 -378q-3 -32 -3 -53q0 -34 10.5 -47t36.5 -13q70 0 175 103l42 388h76l-58 -546h-76l9 90q-50 -50 -93 -75.5t-95 -25.5z" />
    <glyph glyph-name="udieresis" unicode="&#xfc;" horiz-adv-x="525" 
d="M162 669l10 93h75l-10 -93h-75zM359 669l9 93h75l-10 -93h-74zM159 -11q-56 0 -80 26t-24 86q0 22 3 48l43 397h76l-42 -378q-3 -32 -3 -53q0 -34 10.5 -47t36.5 -13q70 0 175 103l42 388h76l-58 -546h-76l9 90q-50 -50 -93 -75.5t-95 -25.5z" />
    <glyph glyph-name="yacute" unicode="&#xfd;" horiz-adv-x="477" 
d="M66 -220l107 220h-41l-85 546h82l70 -492l147 307q45 90 45 166q0 4 -0.5 10t-0.5 9h79q0 -2 0.5 -10t0.5 -9q0 -72 -48 -174l-277 -573h-79zM236 618l-30 48l186 135l38 -60z" />
    <glyph glyph-name="thorn" unicode="&#xfe;" horiz-adv-x="532" 
d="M21 -220l106 973h76l-30 -276q105 74 179 74q66 0 100 -38t34 -123q0 -75 -18 -144.5t-52.5 -127t-93 -92t-132.5 -34.5q-29 0 -69 6l-24 -218h-76zM197 57q57 0 100 34t66 87t34 107t11 104q0 97 -64 97q-60 0 -178 -82l-38 -337q58 -10 69 -10z" />
    <glyph glyph-name="ydieresis" unicode="&#xff;" horiz-adv-x="477" 
d="M136 669l10 93h75l-10 -93h-75zM333 669l9 93h75l-10 -93h-74zM66 -220l107 220h-41l-85 546h82l70 -492l147 307q45 90 45 166q0 4 -0.5 10t-0.5 9h79q0 -2 0.5 -10t0.5 -9q0 -72 -48 -174l-277 -573h-79z" />
    <glyph glyph-name="Amacron" unicode="&#x100;" horiz-adv-x="636" 
d="M-34 0l352 707h118l148 -707h-82l-53 266h-270l-131 -266h-82zM210 330h225l-53 276l-11 60l-27 -61zM241 766l7 64h282l-7 -64h-282z" />
    <glyph glyph-name="amacron" unicode="&#x101;" horiz-adv-x="510" 
d="M142 -13q-55 0 -82.5 44.5t-27.5 118.5q0 68 22.5 138t62.5 129t103 96.5t137 37.5q53 0 99 -8l-56 -543h-76l11 99q-63 -57 -108.5 -84.5t-84.5 -27.5zM161 59q31 0 86.5 40t94.5 77l33 307q-8 2 -34 2q-70 0 -125 -54t-81 -127t-26 -146q0 -44 13 -71.5t39 -27.5z
M222 670l7 64h261l-7 -64h-261z" />
    <glyph glyph-name="Abreve" unicode="&#x102;" horiz-adv-x="636" 
d="M-34 0l352 707h118l148 -707h-82l-53 266h-270l-131 -266h-82zM210 330h225l-53 276l-11 60l-27 -61zM377 753q-45 0 -82.5 25t-53.5 56l44 38q41 -58 100 -58q68 0 112 57l34 -36q-61 -82 -154 -82z" />
    <glyph glyph-name="abreve" unicode="&#x103;" horiz-adv-x="510" 
d="M142 -13q-55 0 -82.5 44.5t-27.5 118.5q0 68 22.5 138t62.5 129t103 96.5t137 37.5q53 0 99 -8l-56 -543h-76l11 99q-63 -57 -108.5 -84.5t-84.5 -27.5zM161 59q31 0 86.5 40t94.5 77l33 307q-8 2 -34 2q-70 0 -125 -54t-81 -127t-26 -146q0 -44 13 -71.5t39 -27.5z
M343 645q-44 0 -82 25t-54 56l44 39q39 -58 100 -58q68 0 112 57l34 -37q-63 -82 -154 -82z" />
    <glyph glyph-name="Aogonek" unicode="&#x104;" horiz-adv-x="636" 
d="M503 -225q-62 0 -85 28t-20 73q5 66 102 131l-51 259h-270l-131 -266h-82l352 707h118l148 -707q-41 -24 -76.5 -55t-37.5 -59q-3 -27 12 -37.5t46 -10.5q29 0 45 8l12 -55q-28 -16 -82 -16zM210 330h225l-64 336z" />
    <glyph glyph-name="aogonek" unicode="&#x105;" horiz-adv-x="510" 
d="M318 -225q-54 0 -79.5 25.5t-25.5 67.5q0 38 34 76.5t78 65.5l10 89q-63 -57 -108.5 -84.5t-84.5 -27.5q-55 0 -82.5 44.5t-27.5 118.5q0 68 22.5 138t62.5 129t103 96.5t137 37.5q53 0 99 -8l-57 -543q-41 -24 -76.5 -56t-36.5 -60q-1 -27 13 -36.5t45 -9.5q26 0 45 8
l12 -55q-30 -16 -83 -16zM161 59q31 0 86.5 40t94.5 77l33 307q-8 2 -34 2q-70 0 -125 -54t-81 -127t-26 -146q0 -44 13 -71.5t39 -27.5z" />
    <glyph glyph-name="Cacute" unicode="&#x106;" horiz-adv-x="638" 
d="M378 -10q-146 0 -232.5 86t-86.5 234q0 183 104.5 293t287.5 110q100 0 164 -28l-27 -63q-65 23 -143 23q-145 0 -224.5 -90.5t-79.5 -239.5q0 -122 70.5 -188t192.5 -66q88 0 152 21l15 -66q-82 -26 -193 -26zM352 737l-16 54l229 80l19 -70z" />
    <glyph glyph-name="cacute" unicode="&#x107;" horiz-adv-x="450" 
d="M250 618l-30 48l186 135l38 -60zM172 -12q-48 0 -78.5 32.5t-41 74t-10.5 89.5q0 160 72 268t196 108q77 0 128 -49l-42 -48q-43 33 -91 33q-51 0 -89 -30t-57 -78t-28 -95.5t-9 -94.5q0 -66 16.5 -103.5t39.5 -37.5q72 0 182 57l27 -54q-36 -22 -59.5 -34t-67.5 -25
t-88 -13z" />
    <glyph glyph-name="Ccircumflex" unicode="&#x108;" horiz-adv-x="638" 
d="M378 -10q-146 0 -232.5 86t-86.5 234q0 183 104.5 293t287.5 110q100 0 164 -28l-27 -63q-65 23 -143 23q-145 0 -224.5 -90.5t-79.5 -239.5q0 -122 70.5 -188t192.5 -66q88 0 152 21l15 -66q-82 -26 -193 -26zM593 737l-136 69l-155 -68l-21 54l182 85l160 -85z" />
    <glyph glyph-name="ccircumflex" unicode="&#x109;" horiz-adv-x="450" 
d="M448 621l-132 90l-151 -90l-32 50l191 115l160 -115zM172 -12q-48 0 -78.5 32.5t-41 74t-10.5 89.5q0 160 72 268t196 108q77 0 128 -49l-42 -48q-43 33 -91 33q-51 0 -89 -30t-57 -78t-28 -95.5t-9 -94.5q0 -66 16.5 -103.5t39.5 -37.5q72 0 182 57l27 -54
q-36 -22 -59.5 -34t-67.5 -25t-88 -13z" />
    <glyph glyph-name="Cdotaccent" unicode="&#x10a;" horiz-adv-x="638" 
d="M407 765l9 92h74l-9 -92h-74zM378 -10q-146 0 -232.5 86t-86.5 234q0 183 104.5 293t287.5 110q100 0 164 -28l-27 -63q-65 23 -143 23q-145 0 -224.5 -90.5t-79.5 -239.5q0 -122 70.5 -188t192.5 -66q88 0 152 21l15 -66q-82 -26 -193 -26z" />
    <glyph glyph-name="cdotaccent" unicode="&#x10b;" horiz-adv-x="450" 
d="M172 -12q-48 0 -78.5 32.5t-41 74t-10.5 89.5q0 160 72 268t196 108q77 0 128 -49l-42 -48q-43 33 -91 33q-51 0 -89 -30t-57 -78t-28 -95.5t-9 -94.5q0 -66 16.5 -103.5t39.5 -37.5q72 0 182 57l27 -54q-36 -22 -59.5 -34t-67.5 -25t-88 -13zM282 669l10 93h77l-10 -93
h-77z" />
    <glyph glyph-name="Ccaron" unicode="&#x10c;" horiz-adv-x="638" 
d="M416 739l-159 85l30 54l135 -69l155 68l21 -54zM378 -10q-146 0 -232.5 86t-86.5 234q0 183 104.5 293t287.5 110q100 0 164 -28l-27 -63q-65 23 -143 23q-145 0 -224.5 -90.5t-79.5 -239.5q0 -122 70.5 -188t192.5 -66q88 0 152 21l15 -66q-82 -26 -193 -26z" />
    <glyph glyph-name="ccaron" unicode="&#x10d;" horiz-adv-x="450" 
d="M298 616l-161 116l37 50l132 -93l153 91l29 -48zM172 -12q-48 0 -78.5 32.5t-41 74t-10.5 89.5q0 160 72 268t196 108q77 0 128 -49l-42 -48q-43 33 -91 33q-51 0 -89 -30t-57 -78t-28 -95.5t-9 -94.5q0 -66 16.5 -103.5t39.5 -37.5q72 0 182 57l27 -54
q-36 -22 -59.5 -34t-67.5 -25t-88 -13z" />
    <glyph glyph-name="Dcaron" unicode="&#x10e;" horiz-adv-x="728" 
d="M342 739l-159 85l30 54l135 -69l155 68l21 -54zM67 0l75 707h187q157 0 253 -77.5t96 -234.5q0 -194 -108.5 -294.5t-305.5 -100.5h-197zM153 66h126q154 0 236 82t82 243q0 128 -74 189t-204 61h-105z" />
    <glyph glyph-name="dcaron" unicode="&#x10f;" horiz-adv-x="513" 
d="M144 -13q-107 0 -107 178q0 169 92 277.5t231 107.5h25l22 204h76l-81 -754h-76l11 99q-112 -112 -193 -112zM163 59q36 0 88 36.5t93 79.5l33 310q-9 1 -43 1q-59 0 -111 -44t-81 -113.5t-29 -143.5q0 -73 12.5 -99.5t37.5 -26.5zM511 553l44 202h72l-55 -202h-61z" />
    <glyph glyph-name="Dcroat" unicode="&#x110;" horiz-adv-x="753" 
d="M55 320l7 66h71l34 321h187q157 0 253 -77.5t96 -234.5q0 -194 -108.5 -294.5t-305.5 -100.5h-197l34 320h-71zM178 66h126q154 0 236 82t82 243q0 128 -74 189t-204 61h-105l-27 -255h147l-7 -66h-147z" />
    <glyph glyph-name="dcroat" unicode="&#x111;" horiz-adv-x="513" 
d="M251 617l7 57h140l9 80h76l-9 -80h87l-7 -57h-86l-66 -617h-76l11 99q-112 -112 -193 -112q-107 0 -107 178q0 169 92 277.5t231 107.5h25l7 67h-141zM163 59q36 0 88 36.5t93 79.5l33 310q-9 1 -43 1q-59 0 -111 -44t-81 -113.5t-29 -143.5q0 -73 12.5 -99.5t37.5 -26.5
z" />
    <glyph glyph-name="Emacron" unicode="&#x112;" horiz-adv-x="567" 
d="M202 766l7 64h282l-7 -64h-282zM67 0l75 707h393l-7 -65h-314l-26 -254h291l-6 -66h-292l-27 -257h337l-7 -65h-417z" />
    <glyph glyph-name="emacron" unicode="&#x113;" horiz-adv-x="468" 
d="M173 -12q-129 0 -129 204q0 100 29 182.5t90 134.5t144 52q69 0 103 -35.5t34 -89.5q0 -94 -143 -146l-178 -66v-27q0 -141 63 -141q65 0 171 55l27 -57q-37 -21 -61.5 -32.5t-66 -22.5t-83.5 -11zM130 291l159 62q38 15 59.5 36t21.5 44q0 33 -19.5 48t-46.5 15
q-137 0 -174 -205zM181 670l7 64h261l-7 -64h-261z" />
    <glyph glyph-name="Ebreve" unicode="&#x114;" horiz-adv-x="567" 
d="M347 755q-45 0 -82.5 25t-53.5 56l44 38q41 -58 100 -58q68 0 112 57l34 -36q-61 -82 -154 -82zM67 0l75 707h393l-7 -65h-314l-26 -254h291l-6 -66h-292l-27 -257h337l-7 -65h-417z" />
    <glyph glyph-name="ebreve" unicode="&#x115;" horiz-adv-x="468" 
d="M173 -12q-129 0 -129 204q0 100 29 182.5t90 134.5t144 52q69 0 103 -35.5t34 -89.5q0 -94 -143 -146l-178 -66v-27q0 -141 63 -141q65 0 171 55l27 -57q-37 -21 -61.5 -32.5t-66 -22.5t-83.5 -11zM130 291l159 62q38 15 59.5 36t21.5 44q0 33 -19.5 48t-46.5 15
q-137 0 -174 -205zM312 645q-44 0 -82 25t-54 56l44 39q39 -58 100 -58q68 0 112 57l34 -37q-63 -82 -154 -82z" />
    <glyph glyph-name="Edotaccent" unicode="&#x116;" horiz-adv-x="567" 
d="M308 765l9 92h74l-9 -92h-74zM67 0l75 707h393l-7 -65h-314l-26 -254h291l-6 -66h-292l-27 -257h337l-7 -65h-417z" />
    <glyph glyph-name="edotaccent" unicode="&#x117;" horiz-adv-x="468" 
d="M173 -12q-129 0 -129 204q0 100 29 182.5t90 134.5t144 52q69 0 103 -35.5t34 -89.5q0 -94 -143 -146l-178 -66v-27q0 -141 63 -141q65 0 171 55l27 -57q-37 -21 -61.5 -32.5t-66 -22.5t-83.5 -11zM130 291l159 62q38 15 59.5 36t21.5 44q0 33 -19.5 48t-46.5 15
q-137 0 -174 -205zM256 669l10 93h77l-10 -93h-77z" />
    <glyph glyph-name="Eogonek" unicode="&#x118;" horiz-adv-x="567" 
d="M402 -225q-112 0 -104 105q5 61 94 120h-325l75 707h393l-7 -65h-314l-26 -254h291l-6 -66h-292l-27 -257h337l-8 -65q-110 -65 -113 -113q-3 -28 12 -38.5t46 -10.5q29 0 45 8l12 -55q-28 -16 -83 -16z" />
    <glyph glyph-name="eogonek" unicode="&#x119;" horiz-adv-x="469" 
d="M268 -225q-51 0 -76 25.5t-25 69.5q0 56 69 125q-35 -7 -63 -7q-129 0 -129 204q0 100 29 182.5t90 134.5t144 52q69 0 103 -35.5t34 -89.5q0 -94 -143 -146l-178 -66v-27q0 -141 63 -141q65 0 171 55l27 -57q-50 -29 -97.5 -81.5t-47.5 -90.5q0 -45 49 -45q24 0 55 9
l12 -55q-38 -16 -87 -16zM130 291l159 62q38 15 59.5 36t21.5 44q0 33 -19.5 48t-46.5 15q-137 0 -174 -205z" />
    <glyph glyph-name="Ecaron" unicode="&#x11a;" horiz-adv-x="567" 
d="M334 739l-159 85l30 54l135 -69l155 68l21 -54zM67 0l75 707h393l-7 -65h-314l-26 -254h291l-6 -66h-292l-27 -257h337l-7 -65h-417z" />
    <glyph glyph-name="ecaron" unicode="&#x11b;" horiz-adv-x="468" 
d="M173 -12q-129 0 -129 204q0 100 29 182.5t90 134.5t144 52q69 0 103 -35.5t34 -89.5q0 -94 -143 -146l-178 -66v-27q0 -141 63 -141q65 0 171 55l27 -57q-37 -21 -61.5 -32.5t-66 -22.5t-83.5 -11zM130 291l159 62q38 15 59.5 36t21.5 44q0 33 -19.5 48t-46.5 15
q-137 0 -174 -205zM288 616l-161 116l37 50l132 -93l153 91l29 -48z" />
    <glyph glyph-name="Gcircumflex" unicode="&#x11c;" horiz-adv-x="665" 
d="M593 737l-136 69l-155 -68l-21 54l182 85l160 -85zM378 -10q-146 0 -232.5 85.5t-86.5 234.5q0 183 105 293t286 110q105 0 166 -28l-29 -62q-66 22 -142 22q-145 0 -224 -90t-79 -240q0 -123 70 -188.5t192 -65.5q50 0 94 11l27 278h80l-33 -326q-89 -34 -194 -34z" />
    <glyph glyph-name="gcircumflex" unicode="&#x11d;" horiz-adv-x="509" 
d="M481 621l-132 90l-151 -90l-32 50l191 115l160 -115zM147 -230q-95 0 -172 22l18 68q86 -23 142 -23q40 0 68.5 5t55 19.5t42 44t20.5 74.5l13 119q-61 -58 -106 -85t-87 -27q-57 0 -82 40.5t-25 123.5q0 160 93.5 280t229.5 120q51 0 99 -8l-61 -579q-5 -54 -29 -93.5
t-60 -60.5t-75.5 -30.5t-83.5 -9.5zM160 59q31 0 88 41.5t93 75.5l33 307q-8 2 -34 2q-64 0 -117.5 -48.5t-83 -122.5t-29.5 -152q0 -58 12.5 -80.5t37.5 -22.5z" />
    <glyph glyph-name="Gbreve" unicode="&#x11e;" horiz-adv-x="665" 
d="M432 753q-45 0 -82.5 25t-53.5 56l44 38q41 -58 100 -58q68 0 112 57l34 -36q-62 -82 -154 -82zM378 -10q-146 0 -232.5 85.5t-86.5 234.5q0 183 105 293t286 110q105 0 166 -28l-29 -62q-66 22 -142 22q-145 0 -224 -90t-79 -240q0 -123 70 -188.5t192 -65.5q50 0 94 11
l27 278h80l-33 -326q-89 -34 -194 -34z" />
    <glyph glyph-name="gbreve" unicode="&#x11f;" horiz-adv-x="509" 
d="M147 -230q-95 0 -172 22l18 68q86 -23 142 -23q40 0 68.5 5t55 19.5t42 44t20.5 74.5l13 119q-61 -58 -106 -85t-87 -27q-57 0 -82 40.5t-25 123.5q0 160 93.5 280t229.5 120q51 0 99 -8l-61 -579q-5 -54 -29 -93.5t-60 -60.5t-75.5 -30.5t-83.5 -9.5zM160 59
q31 0 88 41.5t93 75.5l33 307q-8 2 -34 2q-64 0 -117.5 -48.5t-83 -122.5t-29.5 -152q0 -58 12.5 -80.5t37.5 -22.5zM329 645q-44 0 -82 25t-54 56l44 39q39 -58 100 -58q68 0 112 57l34 -37q-63 -82 -154 -82z" />
    <glyph glyph-name="Gdotaccent" unicode="&#x120;" horiz-adv-x="665" 
d="M423 765l9 92h74l-9 -92h-74zM378 -10q-146 0 -232.5 85.5t-86.5 234.5q0 183 105 293t286 110q105 0 166 -28l-29 -62q-66 22 -142 22q-145 0 -224 -90t-79 -240q0 -123 70 -188.5t192 -65.5q50 0 94 11l27 278h80l-33 -326q-89 -34 -194 -34z" />
    <glyph glyph-name="gdotaccent" unicode="&#x121;" horiz-adv-x="509" 
d="M302 669l10 93h77l-10 -93h-77zM147 -230q-95 0 -172 22l18 68q86 -23 142 -23q40 0 68.5 5t55 19.5t42 44t20.5 74.5l13 119q-61 -58 -106 -85t-87 -27q-57 0 -82 40.5t-25 123.5q0 160 93.5 280t229.5 120q51 0 99 -8l-61 -579q-5 -54 -29 -93.5t-60 -60.5t-75.5 -30.5
t-83.5 -9.5zM160 59q31 0 88 41.5t93 75.5l33 307q-8 2 -34 2q-64 0 -117.5 -48.5t-83 -122.5t-29.5 -152q0 -58 12.5 -80.5t37.5 -22.5z" />
    <glyph glyph-name="Gcommaaccent" unicode="&#x122;" horiz-adv-x="666" 
d="M300 -261l44 202h72l-55 -202h-61zM378 -10q-146 0 -232.5 85.5t-86.5 234.5q0 183 105 293t286 110q105 0 166 -28l-29 -62q-66 22 -142 22q-145 0 -224 -90t-79 -240q0 -123 70 -188.5t192 -65.5q50 0 94 11l27 278h80l-33 -326q-89 -34 -194 -34z" />
    <glyph glyph-name="gcommaaccent" unicode="&#x123;" horiz-adv-x="509" 
d="M431 807l-44 -202h-72l55 202h61zM147 -230q-95 0 -172 22l18 68q86 -23 142 -23q40 0 68.5 5t55 19.5t42 44t20.5 74.5l13 119q-61 -58 -106 -85t-87 -27q-57 0 -82 40.5t-25 123.5q0 160 93.5 280t229.5 120q51 0 99 -8l-61 -579q-5 -54 -29 -93.5t-60 -60.5
t-75.5 -30.5t-83.5 -9.5zM160 59q31 0 88 41.5t93 75.5l33 307q-8 2 -34 2q-64 0 -117.5 -48.5t-83 -122.5t-29.5 -152q0 -58 12.5 -80.5t37.5 -22.5z" />
    <glyph glyph-name="Hcircumflex" unicode="&#x124;" horiz-adv-x="738" 
d="M67 0l75 707h79l-33 -320h380l33 320h80l-74 -707h-80l35 322h-381l-34 -322h-80zM558 737l-136 69l-155 -68l-21 54l182 85l160 -85z" />
    <glyph glyph-name="hcircumflex" unicode="&#x125;" horiz-adv-x="525" 
d="M46 0l80 754h77l-32 -298q41 35 63.5 52t60.5 34.5t74 17.5q52 0 73.5 -25t21.5 -80q0 -30 -4 -61l-43 -394h-76l42 378q3 32 3 55q0 30 -9.5 42.5t-33.5 12.5q-57 0 -180 -101l-41 -387h-76zM309 745l-136 69l-155 -68l-21 54l182 85l160 -85z" />
    <glyph glyph-name="Hbar" unicode="&#x126;" horiz-adv-x="769" 
d="M71 502l7 59h63l16 146h79l-15 -146h380l15 146h80l-16 -146h71l-6 -59h-71l-52 -502h-80l35 322h-381l-34 -322h-80l53 502h-64zM203 387h380l12 115h-380z" />
    <glyph glyph-name="hbar" unicode="&#x127;" horiz-adv-x="525" 
d="M30 617l6 55h81l9 82h77l-9 -82h133l-7 -55h-132l-17 -161q41 35 63.5 52t60.5 34.5t74 17.5q52 0 73.5 -25t21.5 -80q0 -30 -4 -61l-43 -394h-76l42 378q3 32 3 55q0 30 -9.5 42.5t-33.5 12.5q-57 0 -180 -101l-41 -387h-76l65 617h-81z" />
    <glyph glyph-name="Itilde" unicode="&#x128;" horiz-adv-x="278" 
d="M67 0l75 707h79l-74 -707h-80zM246 747q-20 0 -62 18.5t-60 18.5q-36 0 -73 -25l-27 43q52 45 106 45q25 0 65 -18t58 -18q35 0 74 27l25 -45q-52 -46 -106 -46z" />
    <glyph glyph-name="itilde" unicode="&#x129;" horiz-adv-x="233" 
d="M47 0l57 546h76l-57 -546h-76zM223 646q-21 0 -63 18t-59 18q-38 0 -70 -24l-29 42q47 47 105 47q26 0 64.5 -18t56.5 -18q34 0 73 27l27 -43q-45 -49 -105 -49z" />
    <glyph glyph-name="Imacron" unicode="&#x12a;" horiz-adv-x="278" 
d="M67 0l75 707h79l-74 -707h-80zM48 766l7 64h282l-7 -64h-282z" />
    <glyph glyph-name="imacron" unicode="&#x12b;" horiz-adv-x="233" 
d="M47 0l57 546h76l-57 -546h-76zM30 670l7 64h261l-7 -64h-261z" />
    <glyph glyph-name="Ibreve" unicode="&#x12c;" horiz-adv-x="278" 
d="M67 0l75 707h79l-74 -707h-80zM185 753q-45 0 -82.5 25t-53.5 56l44 38q41 -58 100 -58q68 0 112 57l34 -36q-61 -82 -154 -82z" />
    <glyph glyph-name="ibreve" unicode="&#x12d;" horiz-adv-x="233" 
d="M47 0l57 546h76l-57 -546h-76zM150 645q-44 0 -82 25t-54 56l44 39q39 -58 100 -58q68 0 112 57l34 -37q-63 -82 -154 -82z" />
    <glyph glyph-name="Iogonek" unicode="&#x12e;" horiz-adv-x="277" 
d="M65 -225q-61 0 -84 28.5t-20 73.5q5 70 107 132l74 698h79l-76 -708q-107 -63 -112 -113q-3 -27 12 -37.5t46 -10.5q26 0 45 8l12 -55q-30 -16 -83 -16z" />
    <glyph glyph-name="iogonek" unicode="&#x12f;" horiz-adv-x="233" 
d="M128 -154l12 -55q-34 -15 -75 -15q-53 0 -82.5 24.5t-29.5 72.5q0 34 28.5 72.5t66.5 65.5l56 535h76l-57 -546q-34 -20 -65.5 -55.5t-32.5 -64.5q-1 -22 14.5 -31.5t39.5 -9.5q29 0 49 7zM126 669l10 93h77l-10 -93h-77z" />
    <glyph glyph-name="Idotaccent" unicode="&#x130;" horiz-adv-x="278" 
d="M150 765l9 92h74l-9 -92h-74zM67 0l75 707h79l-74 -707h-80z" />
    <glyph glyph-name="dotlessi" unicode="&#x131;" horiz-adv-x="233" 
d="M47 0l57 546h76l-57 -546h-76z" />
    <glyph glyph-name="IJ" unicode="&#x132;" horiz-adv-x="557" 
d="M67 0l75 707h79l-74 -707h-80zM216 -187l-27 59q91 48 126.5 108.5t47.5 170.5l58 556h79l-58 -554q-13 -129 -63 -210.5t-163 -129.5z" />
    <glyph glyph-name="ij" unicode="&#x133;" horiz-adv-x="480" 
d="M171 -220q-41 0 -75 13l19 65q36 -11 65 -11q58 0 81 33.5t30 102.5l60 563h76l-60 -564q-11 -111 -61.5 -156.5t-134.5 -45.5zM47 0l57 546h76l-57 -546h-76zM123 669l10 93h77l-10 -93h-77zM369 669l10 93h77l-10 -93h-77z" />
    <glyph glyph-name="Jcircumflex" unicode="&#x134;" horiz-adv-x="279" 
d="M-62 -187l-27 59q91 48 126.5 108.5t47.5 170.5l58 556h79l-58 -554q-13 -129 -63 -210.5t-163 -129.5zM334 737l-136 69l-155 -68l-21 54l182 85l160 -85z" />
    <glyph glyph-name="jcircumflex" unicode="&#x135;" horiz-adv-x="233" 
d="M294 621l-132 90l-151 -90l-32 50l191 115l160 -115zM-76 -220q-41 0 -75 13l19 65q36 -11 65 -11q58 0 81 33.5t30 102.5l60 563h76l-60 -564q-11 -111 -61.5 -156.5t-134.5 -45.5z" />
    <glyph glyph-name="Kcommaaccent" unicode="&#x136;" horiz-adv-x="602" 
d="M201 -261l44 202h72l-55 -202h-61zM480 -19l-270 386l1 16l308 324h100l-318 -327l252 -359zM67 0l75 707h79l-74 -707h-80z" />
    <glyph glyph-name="kcommaaccent" unicode="&#x137;" horiz-adv-x="481" 
d="M144 -261l44 202h72l-55 -202h-61zM365 -14l-192 302l201 258h90l-203 -255l181 -280zM46 0l79 754h77l-80 -754h-76z" />
    <glyph glyph-name="Lacute" unicode="&#x139;" horiz-adv-x="486" 
d="M159 737l-16 54l229 80l19 -70zM67 0l75 707h79l-67 -639h307l-7 -68h-387z" />
    <glyph glyph-name="lacute" unicode="&#x13a;" horiz-adv-x="233" 
d="M126 785l-16 54l229 80l19 -70zM46 0l79 754h77l-80 -754h-76z" />
    <glyph glyph-name="Lcommaaccent" unicode="&#x13b;" horiz-adv-x="487" 
d="M184 -261l44 202h72l-55 -202h-61zM67 0l75 707h79l-67 -639h307l-7 -68h-387z" />
    <glyph glyph-name="lcommaaccent" unicode="&#x13c;" horiz-adv-x="232" 
d="M10 -261l44 202h72l-55 -202h-61zM46 0l79 754h77l-80 -754h-76z" />
    <glyph glyph-name="Lcaron" unicode="&#x13d;" horiz-adv-x="486" 
d="M278 555l44 202h72l-55 -202h-61zM67 0l75 707h79l-67 -639h307l-7 -68h-387z" />
    <glyph glyph-name="lcaron" unicode="&#x13e;" horiz-adv-x="263" 
d="M227 553l44 202h72l-55 -202h-61zM46 0l79 754h77l-80 -754h-76z" />
    <glyph glyph-name="Ldot" unicode="&#x13f;" horiz-adv-x="493" 
d="M67 0l75 707h79l-67 -639h307l-7 -68h-387zM313 314l9 87h90l-9 -87h-90z" />
    <glyph glyph-name="ldot" unicode="&#x140;" horiz-adv-x="299" 
d="M232 314l9 87h90l-9 -87h-90zM46 0l79 754h77l-80 -754h-76z" />
    <glyph glyph-name="Lslash" unicode="&#x141;" horiz-adv-x="510" 
d="M41 268l6 63l84 46l35 330h79l-30 -284l135 74l-7 -64l-135 -74l-30 -291h307l-7 -68h-387l33 313z" />
    <glyph glyph-name="lslash" unicode="&#x142;" horiz-adv-x="308" 
d="M26 286l7 63l84 45l38 360h77l-34 -316l94 50l-6 -61l-94 -51l-40 -376h-76l35 332z" />
    <glyph glyph-name="Nacute" unicode="&#x143;" horiz-adv-x="724" 
d="M357 737l-16 54l229 80l19 -70zM67 0l76 707h116l264 -649l66 649h79l-76 -707h-123l-256 633l-66 -633h-80z" />
    <glyph glyph-name="nacute" unicode="&#x144;" horiz-adv-x="526" 
d="M267 618l-30 48l186 135l38 -60zM47 0l57 546h77l-9 -90q41 35 63.5 52t60.5 34.5t74 17.5q52 0 73 -25t21 -80q0 -26 -3 -61l-43 -394h-76l41 378q4 27 4 52q0 32 -9.5 45t-34.5 13q-56 0 -179 -101l-41 -387h-76z" />
    <glyph glyph-name="Ncommaaccent" unicode="&#x145;" horiz-adv-x="723" 
d="M244 -261l44 202h72l-55 -202h-61zM67 0l76 707h116l264 -649l66 649h79l-76 -707h-123l-256 633l-66 -633h-80z" />
    <glyph glyph-name="ncommaaccent" unicode="&#x146;" horiz-adv-x="525" 
d="M159 -261l44 202h72l-55 -202h-61zM46 0l57 546h77l-9 -90q41 35 63.5 52t60.5 34.5t74 17.5q52 0 73 -25t21 -80q0 -26 -3 -61l-43 -394h-76l41 378q4 27 4 52q0 32 -9.5 45t-34.5 13q-56 0 -179 -101l-41 -387h-76z" />
    <glyph glyph-name="Ncaron" unicode="&#x147;" horiz-adv-x="724" 
d="M412 739l-159 85l30 54l135 -69l155 68l21 -54zM67 0l76 707h116l264 -649l66 649h79l-76 -707h-123l-256 633l-66 -633h-80z" />
    <glyph glyph-name="ncaron" unicode="&#x148;" horiz-adv-x="526" 
d="M304 616l-161 116l37 50l132 -93l153 91l29 -48zM47 0l57 546h77l-9 -90q41 35 63.5 52t60.5 34.5t74 17.5q52 0 73 -25t21 -80q0 -26 -3 -61l-43 -394h-76l41 378q4 27 4 52q0 32 -9.5 45t-34.5 13q-56 0 -179 -101l-41 -387h-76z" />
    <glyph glyph-name="napostrophe" unicode="&#x149;" horiz-adv-x="546" 
d="M-7 556q38 84 47 207h83q-3 -68 -20 -114.5t-47 -92.5h-63zM66 0l57 546h77l-9 -90q41 35 63.5 52t60.5 34.5t74 17.5q52 0 73 -25t21 -80q0 -26 -3 -61l-43 -394h-76l41 378q4 27 4 52q0 32 -9.5 45t-34.5 13q-56 0 -179 -101l-41 -387h-76z" />
    <glyph glyph-name="Eng" unicode="&#x14a;" horiz-adv-x="723" 
d="M393 -220q-41 0 -75 13l18 65q38 -11 65 -11q57 0 81 33t31 98l2 22h-46l-256 633l-66 -633h-80l76 707h116l264 -649l66 649h79l-80 -739q-11 -98 -56.5 -143t-138.5 -45z" />
    <glyph glyph-name="eng" unicode="&#x14b;" horiz-adv-x="526" 
d="M219 -220q-39 0 -75 13l19 65q38 -11 65 -11q58 0 81 33.5t31 102.5l43 394q4 38 4 50q0 34 -10.5 47.5t-35.5 13.5q-52 0 -177 -101l-41 -387h-76l57 546h77l-9 -90q2 2 18 15l24 19.5t25 19t30 19.5t30 15.5t33.5 12t32.5 3.5q56 0 77.5 -24t21.5 -79q0 -29 -3 -63
l-45 -412q-12 -111 -62.5 -156.5t-134.5 -45.5z" />
    <glyph glyph-name="Omacron" unicode="&#x14c;" horiz-adv-x="801" 
d="M306 766l7 64h282l-7 -64h-282zM359 -11q-143 0 -221 85.5t-78 232.5q0 184 104.5 297.5t285.5 113.5q143 0 222 -85.5t79 -232.5q0 -185 -105 -298t-287 -113zM369 55q143 0 221 97t78 245q0 116 -59 184.5t-171 68.5q-141 0 -219 -95.5t-78 -242.5q0 -116 58 -186.5
t170 -70.5z" />
    <glyph glyph-name="omacron" unicode="&#x14d;" horiz-adv-x="515" 
d="M181 670l7 64h261l-7 -64h-261zM200 -12q-74 0 -117 55t-43 137q0 173 75 276.5t197 103.5q75 0 116 -55.5t41 -131.5q0 -69 -14.5 -134t-44.5 -123t-84 -93t-126 -35zM219 54q71 0 121.5 86.5t50.5 217.5q0 72 -24 105t-78 33q-69 0 -119.5 -88t-50.5 -213
q0 -141 100 -141z" />
    <glyph glyph-name="Obreve" unicode="&#x14e;" horiz-adv-x="801" 
d="M443 754q-45 0 -82.5 25t-53.5 56l44 38q41 -58 100 -58q68 0 112 57l34 -36q-61 -82 -154 -82zM359 -11q-143 0 -221 85.5t-78 232.5q0 184 104.5 297.5t285.5 113.5q143 0 222 -85.5t79 -232.5q0 -185 -105 -298t-287 -113zM369 55q143 0 221 97t78 245
q0 116 -59 184.5t-171 68.5q-141 0 -219 -95.5t-78 -242.5q0 -116 58 -186.5t170 -70.5z" />
    <glyph glyph-name="obreve" unicode="&#x14f;" horiz-adv-x="515" 
d="M200 -12q-74 0 -117 55t-43 137q0 173 75 276.5t197 103.5q75 0 116 -55.5t41 -131.5q0 -69 -14.5 -134t-44.5 -123t-84 -93t-126 -35zM219 54q71 0 121.5 86.5t50.5 217.5q0 72 -24 105t-78 33q-69 0 -119.5 -88t-50.5 -213q0 -141 100 -141zM297 645q-44 0 -82 25
t-54 56l44 39q39 -58 100 -58q68 0 112 57l34 -37q-63 -82 -154 -82z" />
    <glyph glyph-name="Ohungarumlaut" unicode="&#x150;" horiz-adv-x="801" 
d="M359 -11q-143 0 -221 85.5t-78 232.5q0 184 104.5 297.5t285.5 113.5q143 0 222 -85.5t79 -232.5q0 -185 -105 -298t-287 -113zM369 55q143 0 221 97t78 245q0 116 -59 184.5t-171 68.5q-141 0 -219 -95.5t-78 -242.5q0 -116 58 -186.5t170 -70.5zM313 737l-36 45
l189 152l43 -60zM500 736l-17 55l229 80l19 -71z" />
    <glyph glyph-name="ohungarumlaut" unicode="&#x151;" horiz-adv-x="515" 
d="M177 617l-26 45l197 142l38 -61zM407 621l-28 46l188 124l35 -61zM200 -12q-74 0 -117 55t-43 137q0 173 75 276.5t197 103.5q75 0 116 -55.5t41 -131.5q0 -69 -14.5 -134t-44.5 -123t-84 -93t-126 -35zM219 54q71 0 121.5 86.5t50.5 217.5q0 72 -24 105t-78 33
q-69 0 -119.5 -88t-50.5 -213q0 -141 100 -141z" />
    <glyph glyph-name="OE" unicode="&#x152;" horiz-adv-x="1090" 
d="M359 -11q-143 0 -221 85.5t-78 232.5q0 184 104.5 297.5t285.5 113.5q131 0 207 -76l7 65h393l-7 -65h-313l-27 -254h292l-7 -66h-291l-28 -257h337l-6 -65h-417l6 61q-95 -72 -237 -72zM369 56q159 0 240 122l36 345q-53 126 -207 126q-141 0 -219 -95.5t-78 -241.5
q0 -116 58 -186t170 -70z" />
    <glyph glyph-name="oe" unicode="&#x153;" horiz-adv-x="801" 
d="M200 -12q-74 0 -117 55t-43 137q0 173 75 276.5t197 103.5q52 0 87 -29t52 -76q72 106 190 106q69 0 102.5 -35t33.5 -89q0 -94 -143 -146l-177 -66q-1 -8 -1 -27q0 -142 64 -142q65 0 171 55l27 -57q-38 -21 -62 -32.5t-65.5 -22.5t-83.5 -11q-88 0 -114 107
q-71 -107 -193 -107zM219 54q71 0 121.5 86.5t50.5 217.5q0 72 -24 105t-78 33q-67 0 -118.5 -87t-51.5 -214q0 -141 100 -141zM464 292l158 62q81 34 81 80q0 32 -19 47t-46 15q-40 0 -71.5 -17.5t-51.5 -48.5t-32 -64.5t-19 -73.5z" />
    <glyph glyph-name="Racute" unicode="&#x154;" horiz-adv-x="641" 
d="M525 -18l-198 322q-31 -3 -85 -3h-61l-33 -301h-81l75 707h218q94 0 151.5 -45t57.5 -127q0 -76 -41 -133t-119 -79l192 -305zM187 365h93q204 0 204 167q0 111 -151 111h-118zM266 737l-16 54l229 80l19 -70z" />
    <glyph glyph-name="racute" unicode="&#x155;" horiz-adv-x="350" 
d="M200 618l-30 48l186 135l38 -60zM47 0l57 546h76l-9 -91q1 1 11.5 11t15.5 14t16.5 14t19.5 15.5t20 14t22.5 13t22.5 9.5t24 7.5t23 2.5q6 0 26 -2l-15 -71q-5 1 -24 1q-22 0 -59.5 -21.5t-56 -36.5t-54.5 -45l-40 -381h-76z" />
    <glyph glyph-name="Rcommaaccent" unicode="&#x156;" horiz-adv-x="641" 
d="M525 -18l-198 322q-31 -3 -85 -3h-61l-33 -301h-81l75 707h218q94 0 151.5 -45t57.5 -127q0 -76 -41 -133t-119 -79l192 -305zM187 365h93q204 0 204 167q0 111 -151 111h-118zM222 -261l44 202h72l-55 -202h-61z" />
    <glyph glyph-name="rcommaaccent" unicode="&#x157;" horiz-adv-x="348" 
d="M11 -261l44 202h72l-55 -202h-61zM47 0l57 546h76l-9 -91q1 1 11.5 11t15.5 14t16.5 14t19.5 15.5t20 14t22.5 13t22.5 9.5t24 7.5t23 2.5q6 0 26 -2l-15 -71q-5 1 -24 1q-22 0 -59.5 -21.5t-56 -36.5t-54.5 -45l-40 -381h-76z" />
    <glyph glyph-name="Rcaron" unicode="&#x158;" horiz-adv-x="641" 
d="M525 -18l-198 322q-31 -3 -85 -3h-61l-33 -301h-81l75 707h218q94 0 151.5 -45t57.5 -127q0 -76 -41 -133t-119 -79l192 -305zM187 365h93q204 0 204 167q0 111 -151 111h-118zM331 739l-159 85l30 54l135 -69l155 68l21 -54z" />
    <glyph glyph-name="rcaron" unicode="&#x159;" horiz-adv-x="350" 
d="M239 616l-161 116l37 50l132 -93l153 91l29 -48zM47 0l57 546h76l-9 -91q1 1 11.5 11t15.5 14t16.5 14t19.5 15.5t20 14t22.5 13t22.5 9.5t24 7.5t23 2.5q6 0 26 -2l-15 -71q-5 1 -24 1q-22 0 -59.5 -21.5t-56 -36.5t-54.5 -45l-40 -381h-76z" />
    <glyph glyph-name="Sacute" unicode="&#x15a;" horiz-adv-x="523" 
d="M210 -11q-48 0 -105 14t-91 34l31 67q96 -45 171 -45q166 0 166 134q0 31 -21.5 57.5t-54 45.5t-70 43t-70 48t-54 62.5t-21.5 85.5q0 86 65 133t160 47q104 0 178 -41l-26 -62q-77 34 -155 34q-63 0 -103.5 -25.5t-40.5 -83.5q0 -36 30 -67.5t73 -57t86 -53.5t73 -70.5
t30 -93.5q0 -100 -71.5 -153t-179.5 -53zM249 737l-16 54l229 80l19 -70z" />
    <glyph glyph-name="sacute" unicode="&#x15b;" horiz-adv-x="417" 
d="M206 618l-30 48l186 135l38 -60zM154 -9q-92 0 -149 25l22 66q68 -25 132 -25q18 0 36.5 3t39 11t33.5 25t13 41q0 29 -21.5 55t-52.5 46.5t-62.5 43t-53 54.5t-21.5 71q0 78 50.5 113.5t128.5 35.5q82 0 142 -30l-23 -59q-72 26 -129 26q-41 0 -69 -18t-28 -57
q0 -29 22 -55t53 -47t62.5 -43.5t53.5 -57t22 -75.5t-18.5 -71.5t-49 -46.5t-64 -23.5t-69.5 -7.5z" />
    <glyph glyph-name="Scircumflex" unicode="&#x15c;" horiz-adv-x="523" 
d="M210 -11q-48 0 -105 14t-91 34l31 67q96 -45 171 -45q166 0 166 134q0 31 -21.5 57.5t-54 45.5t-70 43t-70 48t-54 62.5t-21.5 85.5q0 86 65 133t160 47q104 0 178 -41l-26 -62q-77 34 -155 34q-63 0 -103.5 -25.5t-40.5 -83.5q0 -36 30 -67.5t73 -57t86 -53.5t73 -70.5
t30 -93.5q0 -100 -71.5 -153t-179.5 -53zM466 737l-136 69l-155 -68l-21 54l182 85l160 -85z" />
    <glyph glyph-name="scircumflex" unicode="&#x15d;" horiz-adv-x="417" 
d="M392 621l-132 90l-151 -90l-32 50l191 115l160 -115zM154 -9q-92 0 -149 25l22 66q68 -25 132 -25q18 0 36.5 3t39 11t33.5 25t13 41q0 29 -21.5 55t-52.5 46.5t-62.5 43t-53 54.5t-21.5 71q0 78 50.5 113.5t128.5 35.5q82 0 142 -30l-23 -59q-72 26 -129 26
q-41 0 -69 -18t-28 -57q0 -29 22 -55t53 -47t62.5 -43.5t53.5 -57t22 -75.5t-18.5 -71.5t-49 -46.5t-64 -23.5t-69.5 -7.5z" />
    <glyph glyph-name="Scedilla" unicode="&#x15e;" horiz-adv-x="523" 
d="M210 -11q-48 0 -105 14t-91 34l31 67q96 -45 171 -45q166 0 166 134q0 31 -21.5 57.5t-54 45.5t-70 43t-70 48t-54 62.5t-21.5 85.5q0 86 65 133t160 47q104 0 178 -41l-26 -62q-77 34 -155 34q-63 0 -103.5 -25.5t-40.5 -83.5q0 -36 30 -67.5t73 -57t86 -53.5t73 -70.5
t30 -93.5q0 -100 -71.5 -153t-179.5 -53zM152 -239l-21 44q59 34 66 77q2 23 -16 67h74q16 -32 13 -66q-7 -77 -116 -122z" />
    <glyph glyph-name="scedilla" unicode="&#x15f;" horiz-adv-x="417" 
d="M154 -9q-92 0 -149 25l22 66q68 -25 132 -25q18 0 36.5 3t39 11t33.5 25t13 41q0 29 -21.5 55t-52.5 46.5t-62.5 43t-53 54.5t-21.5 71q0 78 50.5 113.5t128.5 35.5q82 0 142 -30l-23 -59q-72 26 -129 26q-41 0 -69 -18t-28 -57q0 -29 22 -55t53 -47t62.5 -43.5t53.5 -57
t22 -75.5t-18.5 -71.5t-49 -46.5t-64 -23.5t-69.5 -7.5zM89 -239l-21 44q59 34 66 77q2 23 -16 67h74q16 -32 13 -66q-7 -77 -116 -122z" />
    <glyph glyph-name="Scaron" unicode="&#x160;" horiz-adv-x="523" 
d="M305 739l-159 85l30 54l135 -69l155 68l21 -54zM210 -11q-48 0 -105 14t-91 34l31 67q96 -45 171 -45q166 0 166 134q0 31 -21.5 57.5t-54 45.5t-70 43t-70 48t-54 62.5t-21.5 85.5q0 86 65 133t160 47q104 0 178 -41l-26 -62q-77 34 -155 34q-63 0 -103.5 -25.5
t-40.5 -83.5q0 -36 30 -67.5t73 -57t86 -53.5t73 -70.5t30 -93.5q0 -100 -71.5 -153t-179.5 -53z" />
    <glyph glyph-name="scaron" unicode="&#x161;" horiz-adv-x="417" 
d="M253 616l-161 116l37 50l132 -93l153 91l29 -48zM154 -9q-92 0 -149 25l22 66q68 -25 132 -25q18 0 36.5 3t39 11t33.5 25t13 41q0 29 -21.5 55t-52.5 46.5t-62.5 43t-53 54.5t-21.5 71q0 78 50.5 113.5t128.5 35.5q82 0 142 -30l-23 -59q-72 26 -129 26q-41 0 -69 -18
t-28 -57q0 -29 22 -55t53 -47t62.5 -43.5t53.5 -57t22 -75.5t-18.5 -71.5t-49 -46.5t-64 -23.5t-69.5 -7.5z" />
    <glyph glyph-name="Tcommaaccent" unicode="&#x162;" horiz-adv-x="569" 
d="M173 -261l44 202h72l-55 -202h-61zM211 0l67 640h-242l8 67h563l-8 -67h-241l-67 -640h-80z" />
    <glyph glyph-name="tcommaaccent" unicode="&#x163;" horiz-adv-x="375" 
d="M109 -261l44 202h72l-55 -202h-61zM181 -12q-99 0 -102 106q-2 21 1 41l38 347h-80l7 64h81l11 112h75l-11 -112h169l-6 -64h-170l-37 -345q-9 -80 45 -80q50 0 114 33l17 -58q-67 -44 -152 -44z" />
    <glyph glyph-name="Tcaron" unicode="&#x164;" horiz-adv-x="571" 
d="M324 739l-159 85l30 54l135 -69l155 68l21 -54zM212 0l67 640h-242l8 67h563l-8 -67h-241l-67 -640h-80z" />
    <glyph glyph-name="tcaron" unicode="&#x165;" horiz-adv-x="373" 
d="M276 608l44 202h72l-55 -202h-61zM181 -12q-99 0 -102 106q-2 21 1 41l38 347h-80l7 64h81l11 112h75l-11 -112h169l-6 -64h-170l-37 -345q-9 -80 45 -80q50 0 114 33l17 -58q-67 -44 -152 -44z" />
    <glyph glyph-name="Tbar" unicode="&#x166;" horiz-adv-x="571" 
d="M98 340l7 58h148l26 242h-242l8 67h563l-8 -67h-241l-26 -242h151l-7 -58h-150l-35 -340h-80l35 340h-149z" />
    <glyph glyph-name="tbar" unicode="&#x167;" horiz-adv-x="373" 
d="M37 291l6 58h60l15 133h-80l7 64h81l11 112h75l-11 -112h169l-6 -64h-170l-15 -133h151l-6 -58h-151l-16 -154q-9 -80 45 -80q50 0 114 33l17 -58q-67 -44 -152 -44q-99 0 -102 106q-2 21 1 41l17 156h-60z" />
    <glyph glyph-name="Utilde" unicode="&#x168;" horiz-adv-x="725" 
d="M474 747q-20 0 -62 18.5t-60 18.5q-36 0 -73 -25l-27 43q52 45 106 45q25 0 65 -18t58 -18q35 0 74 27l25 -45q-52 -46 -106 -46zM337 -12q-51 0 -94 10t-80.5 33t-59 66.5t-21.5 104.5q0 26 2 40l49 465h81l-48 -458q-2 -26 -2 -36q0 -157 174 -157q90 0 146 49t69 168
l45 434h76l-46 -437q-8 -81 -36.5 -139t-71.5 -87.5t-87.5 -42.5t-95.5 -13z" />
    <glyph glyph-name="utilde" unicode="&#x169;" horiz-adv-x="525" 
d="M159 -11q-56 0 -80 26t-24 86q0 22 3 48l43 397h76l-42 -378q-3 -32 -3 -53q0 -34 10.5 -47t36.5 -13q70 0 175 103l42 388h76l-58 -546h-76l9 90q-50 -50 -93 -75.5t-95 -25.5zM384 646q-20 0 -62 18t-60 18q-38 0 -70 -24l-29 42q47 47 105 47q26 0 64.5 -18t56.5 -18
q34 0 73 27l27 -43q-45 -49 -105 -49z" />
    <glyph glyph-name="Umacron" unicode="&#x16a;" horiz-adv-x="725" 
d="M268 766l7 64h282l-7 -64h-282zM337 -12q-51 0 -94 10t-80.5 33t-59 66.5t-21.5 104.5q0 26 2 40l49 465h81l-48 -458q-2 -26 -2 -36q0 -157 174 -157q90 0 146 49t69 168l45 434h76l-46 -437q-8 -81 -36.5 -139t-71.5 -87.5t-87.5 -42.5t-95.5 -13z" />
    <glyph glyph-name="umacron" unicode="&#x16b;" horiz-adv-x="525" 
d="M159 -11q-56 0 -80 26t-24 86q0 22 3 48l43 397h76l-42 -378q-3 -32 -3 -53q0 -34 10.5 -47t36.5 -13q70 0 175 103l42 388h76l-58 -546h-76l9 90q-50 -50 -93 -75.5t-95 -25.5zM170 670l7 64h261l-7 -64h-261z" />
    <glyph glyph-name="Ubreve" unicode="&#x16c;" horiz-adv-x="725" 
d="M412 746q-45 0 -82.5 25t-53.5 56l44 38q41 -58 100 -58q68 0 112 57l34 -36q-62 -82 -154 -82zM337 -12q-51 0 -94 10t-80.5 33t-59 66.5t-21.5 104.5q0 26 2 40l49 465h81l-48 -458q-2 -26 -2 -36q0 -157 174 -157q90 0 146 49t69 168l45 434h76l-46 -437
q-8 -81 -36.5 -139t-71.5 -87.5t-87.5 -42.5t-95.5 -13z" />
    <glyph glyph-name="ubreve" unicode="&#x16d;" horiz-adv-x="525" 
d="M159 -11q-56 0 -80 26t-24 86q0 22 3 48l43 397h76l-42 -378q-3 -32 -3 -53q0 -34 10.5 -47t36.5 -13q70 0 175 103l42 388h76l-58 -546h-76l9 90q-50 -50 -93 -75.5t-95 -25.5zM305 645q-44 0 -82 25t-54 56l44 39q39 -58 100 -58q68 0 112 57l34 -37q-63 -82 -154 -82z
" />
    <glyph glyph-name="Uring" unicode="&#x16e;" horiz-adv-x="724" 
d="M407 709q-38 0 -64.5 20t-26.5 54q0 46 31 74.5t77 28.5q36 0 62.5 -22t26.5 -56q0 -45 -30 -72t-76 -27zM410 744q24 0 41 16t17 40q0 21 -14 34.5t-35 13.5q-26 0 -42 -15.5t-16 -40.5q0 -22 14 -35t35 -13zM337 -12q-51 0 -94 10t-80.5 33t-59 66.5t-21.5 104.5
q0 26 2 40l49 465h81l-48 -458q-2 -26 -2 -36q0 -157 174 -157q90 0 146 49t69 168l45 434h76l-46 -437q-8 -81 -36.5 -139t-71.5 -87.5t-87.5 -42.5t-95.5 -13z" />
    <glyph glyph-name="uring" unicode="&#x16f;" horiz-adv-x="525" 
d="M304 615q-42 0 -71.5 22.5t-29.5 60.5q0 51 34.5 82.5t85.5 31.5q41 0 70 -24t29 -62q0 -50 -33.5 -80.5t-84.5 -30.5zM307 656q28 0 46 17t18 44q0 24 -15 38t-38 14q-29 0 -46.5 -17t-17.5 -45q0 -24 14.5 -37.5t38.5 -13.5zM159 -11q-56 0 -80 26t-24 86q0 22 3 48
l43 397h76l-42 -378q-3 -32 -3 -53q0 -34 10.5 -47t36.5 -13q70 0 175 103l42 388h76l-58 -546h-76l9 90q-50 -50 -93 -75.5t-95 -25.5z" />
    <glyph glyph-name="Uhungarumlaut" unicode="&#x170;" horiz-adv-x="725" 
d="M337 -12q-51 0 -94 10t-80.5 33t-59 66.5t-21.5 104.5q0 26 2 40l49 465h81l-48 -458q-2 -26 -2 -36q0 -157 174 -157q90 0 146 49t69 168l45 434h76l-46 -437q-8 -81 -36.5 -139t-71.5 -87.5t-87.5 -42.5t-95.5 -13zM270 737l-36 45l189 152l43 -60zM457 736l-17 55
l229 80l19 -71z" />
    <glyph glyph-name="uhungarumlaut" unicode="&#x171;" horiz-adv-x="525" 
d="M159 -11q-56 0 -80 26t-24 86q0 22 3 48l43 397h76l-42 -378q-3 -32 -3 -53q0 -34 10.5 -47t36.5 -13q70 0 175 103l42 388h76l-58 -546h-76l9 90q-50 -50 -93 -75.5t-95 -25.5zM171 617l-26 45l197 142l38 -61zM401 621l-28 46l188 124l35 -61z" />
    <glyph glyph-name="Uogonek" unicode="&#x172;" horiz-adv-x="729" 
d="M353 -225q-116 0 -104 108q5 54 75 105q-241 8 -241 211q0 26 2 40l49 468h81l-48 -461q-2 -24 -2 -35q0 -155 174 -155q91 0 146.5 47.5t68.5 166.5l46 437h76l-47 -440q-22 -221 -195 -267q-108 -64 -113 -114q-3 -27 12 -37.5t45 -10.5q27 0 46 8l12 -55
q-30 -16 -83 -16z" />
    <glyph glyph-name="uogonek" unicode="&#x173;" horiz-adv-x="524" 
d="M333 -225q-62 0 -84.5 28t-19.5 75q5 67 110 133l8 79q-104 -101 -188 -101q-56 0 -80 26t-24 86q0 22 3 48l43 397h76l-42 -378q-4 -48 -4 -59q1 -30 11.5 -42t36.5 -12q29 0 69 23t56.5 36.5t49.5 43.5l42 388h76l-59 -546q-40 -23 -75 -54.5t-38 -59.5
q-3 -27 12 -37.5t46 -10.5q29 0 45 8l12 -55q-28 -16 -82 -16z" />
    <glyph glyph-name="Wcircumflex" unicode="&#x174;" horiz-adv-x="964" 
d="M644 737l-136 69l-155 -68l-21 54l182 85l160 -85zM182 0l-105 707h83l87 -643l226 643h74l106 -645l253 645h80l-283 -707h-110l-96 588l-204 -588h-111z" />
    <glyph glyph-name="wcircumflex" unicode="&#x175;" horiz-adv-x="776" 
d="M554 621l-132 90l-151 -90l-32 50l191 115l160 -115zM135 0l-91 546h82l71 -492l180 313l-30 179h82l71 -492l146 307q44 91 44 165q0 14 -1 20h79q0 -2 0.5 -10t0.5 -9q0 -74 -48 -174l-171 -353h-113l-44 273l-157 -273h-101z" />
    <glyph glyph-name="Ycircumflex" unicode="&#x176;" horiz-adv-x="591" 
d="M219 0l29 274l-184 433h89l144 -365l235 365h86l-291 -432l-28 -275h-80zM486 737l-136 69l-155 -68l-21 54l182 85l160 -85z" />
    <glyph glyph-name="ycircumflex" unicode="&#x177;" horiz-adv-x="477" 
d="M406 621l-132 90l-151 -90l-32 50l191 115l160 -115zM66 -220l107 220h-41l-85 546h82l70 -492l147 307q45 90 45 166q0 4 -0.5 10t-0.5 9h79q0 -2 0.5 -10t0.5 -9q0 -72 -48 -174l-277 -573h-79z" />
    <glyph glyph-name="Ydieresis" unicode="&#x178;" horiz-adv-x="591" 
d="M219 0l29 274l-184 433h89l144 -365l235 365h86l-291 -432l-28 -275h-80zM197 764l9 92h74l-9 -92h-74zM406 764l9 92h74l-9 -92h-74z" />
    <glyph glyph-name="Zacute" unicode="&#x179;" horiz-adv-x="559" 
d="M257 737l-16 54l229 80l19 -70zM5 0l7 70l431 565h-345l7 72h438l-6 -63l-434 -573h394l-7 -71h-485z" />
    <glyph glyph-name="zacute" unicode="&#x17a;" horiz-adv-x="460" 
d="M224 618l-30 48l186 135l38 -60zM1 0l7 66l338 414h-268l7 66h356l-7 -63l-342 -418h302l-7 -65h-386z" />
    <glyph glyph-name="Zdotaccent" unicode="&#x17b;" horiz-adv-x="559" 
d="M295 765l9 92h74l-9 -92h-74zM5 0l7 70l431 565h-345l7 72h438l-6 -63l-434 -573h394l-7 -71h-485z" />
    <glyph glyph-name="zdotaccent" unicode="&#x17c;" horiz-adv-x="460" 
d="M1 0l7 66l338 414h-268l7 66h356l-7 -63l-342 -418h302l-7 -65h-386zM239 669l10 93h77l-10 -93h-77z" />
    <glyph glyph-name="Zcaron" unicode="&#x17d;" horiz-adv-x="559" 
d="M321 739l-159 85l30 54l135 -69l155 68l21 -54zM5 0l7 70l431 565h-345l7 72h438l-6 -63l-434 -573h394l-7 -71h-485z" />
    <glyph glyph-name="zcaron" unicode="&#x17e;" horiz-adv-x="460" 
d="M269 616l-161 116l37 50l132 -93l153 91l29 -48zM1 0l7 66l338 414h-268l7 66h356l-7 -63l-342 -418h302l-7 -65h-386z" />
    <glyph glyph-name="uni018E" unicode="&#x18e;" horiz-adv-x="567" 
d="M510 707l-75 -707h-393l7 65h314l26 254h-291l6 66h292l27 257h-337l7 65h417z" />
    <glyph glyph-name="uni018F" unicode="&#x18f;" horiz-adv-x="757" 
d="M332 -12q-142 0 -212.5 80t-70.5 220q0 20 8 100h571q5 118 -53 190t-176 72q-126 0 -261 -66l-19 59q140 74 295 74q146 0 220 -83t74 -222q0 -185 -99 -304.5t-277 -119.5zM342 54q125 0 192.5 73t86.5 197h-492q-1 -11 -1 -32q2 -108 52.5 -173t161.5 -65z" />
    <glyph glyph-name="florin" unicode="&#x192;" horiz-adv-x="495" 
d="M0 -19l4 63q85 6 109 13q71 23 83 119l9 78h-104l7 65h106l6 48q6 49 23.5 85t41.5 57t57.5 34t66.5 17.5t74 4.5l-3 -65q-84 -8 -109 -17q-64 -27 -76 -119l-6 -45h112l-6 -65h-114l-11 -81q-8 -59 -33 -99t-64.5 -59.5t-80 -26.5t-92.5 -7z" />
    <glyph glyph-name="uni01DD" unicode="&#x1dd;" horiz-adv-x="475" 
d="M292 561q129 0 129 -204q0 -100 -29 -182.5t-90 -134.5t-144 -52q-69 0 -103 35.5t-34 89.5q0 94 143 146l178 66v27q0 141 -63 141q-65 0 -171 -55l-27 57q37 21 61.5 32.5t66 22.5t83.5 11zM335 258l-159 -62q-38 -15 -59.5 -36t-21.5 -44q0 -33 19.5 -48t46.5 -15
q137 0 174 205z" />
    <glyph glyph-name="uni01E2" unicode="&#x1e2;" horiz-adv-x="906" 
d="M505 766l7 64h282l-7 -64h-282zM-50 0l468 707h455l-6 -65h-314l-27 -254h293l-8 -66h-291l-28 -257h338l-7 -65h-416l35 322h-197l-206 -322h-89zM286 387h162l28 255h-26z" />
    <glyph glyph-name="uni01E3" unicode="&#x1e3;" horiz-adv-x="767" 
d="M144 -13q-55 0 -81.5 48.5t-26.5 129.5q0 166 92.5 276t230.5 110q49 0 93 -8l-7 -62q65 80 162 80q72 0 104 -34t32 -90q0 -94 -143 -146l-177 -66q0 -5 -0.5 -14t-0.5 -13q0 -142 65 -142q54 0 170 55l27 -57q-37 -21 -61 -32.5t-66 -22.5t-84 -11q-101 0 -120 125
q-128 -126 -209 -126zM163 59q31 0 86.5 41t92.5 76l33 307l-41 2q-89 3 -155 -91t-66 -209q0 -73 12.5 -99.5t37.5 -26.5zM431 292l157 62q81 34 81 80q0 32 -19 47t-46 15q-40 0 -71.5 -17.5t-51 -48t-31.5 -64.5t-19 -74zM333 670l7 64h261l-7 -64h-261z" />
    <glyph glyph-name="AEacute" unicode="&#x1fc;" horiz-adv-x="906" 
d="M563 737l-16 54l229 80l19 -70zM-50 0l468 707h455l-6 -65h-314l-27 -254h293l-8 -66h-291l-28 -257h338l-7 -65h-416l35 322h-197l-206 -322h-89zM286 387h162l28 255h-26z" />
    <glyph glyph-name="aeacute" unicode="&#x1fd;" horiz-adv-x="767" 
d="M144 -13q-55 0 -81.5 48.5t-26.5 129.5q0 166 92.5 276t230.5 110q49 0 93 -8l-7 -62q65 80 162 80q72 0 104 -34t32 -90q0 -94 -143 -146l-177 -66q0 -5 -0.5 -14t-0.5 -13q0 -142 65 -142q54 0 170 55l27 -57q-37 -21 -61 -32.5t-66 -22.5t-84 -11q-101 0 -120 125
q-128 -126 -209 -126zM163 59q31 0 86.5 41t92.5 76l33 307l-41 2q-89 3 -155 -91t-66 -209q0 -73 12.5 -99.5t37.5 -26.5zM431 292l157 62q81 34 81 80q0 32 -19 47t-46 15q-40 0 -71.5 -17.5t-51 -48t-31.5 -64.5t-19 -74zM410 618l-30 48l186 135l38 -60z" />
    <glyph glyph-name="Oslashacute" unicode="&#x1fe;" horiz-adv-x="826" 
d="M88 -29l-41 39l84 87q-58 82 -58 210q0 184 104.5 297.5t285.5 113.5q123 0 202 -66l79 81l41 -40l-80 -84q59 -80 59 -209q0 -185 -105 -298t-287 -113q-127 0 -202 67zM190 157l419 438q-60 55 -158 55q-141 0 -219 -96t-78 -242q0 -95 36 -155zM382 55q143 0 221.5 97
t78.5 245q0 89 -37 151l-420 -436q59 -57 157 -57zM351 737l-16 54l229 80l19 -70z" />
    <glyph glyph-name="oslashacute" unicode="&#x1ff;" horiz-adv-x="546" 
d="M35 -28l-36 30l76 90q-16 42 -16 88q0 171 75 275.5t196 104.5q65 0 108 -48l54 62l36 -31l-62 -73q22 -46 22 -97q0 -69 -14.5 -134t-44.5 -123t-84 -93t-126 -35q-73 0 -119 59zM140 167l250 289q-25 40 -83 40q-66 0 -117 -84.5t-52 -211.5q0 -13 2 -33zM237 54
q70 0 121 85.5t52 215.5q0 11 -3 47l-255 -295q22 -53 85 -53zM247 618l-30 48l186 135l38 -60z" />
    <glyph glyph-name="Scommaaccent" unicode="&#x218;" horiz-adv-x="523" 
d="M139 -261l44 202h72l-55 -202h-61zM210 -11q-48 0 -105 14t-91 34l31 67q96 -45 171 -45q166 0 166 134q0 31 -21.5 57.5t-54 45.5t-70 43t-70 48t-54 62.5t-21.5 85.5q0 86 65 133t160 47q104 0 178 -41l-26 -62q-77 34 -155 34q-63 0 -103.5 -25.5t-40.5 -83.5
q0 -36 30 -67.5t73 -57t86 -53.5t73 -70.5t30 -93.5q0 -100 -71.5 -153t-179.5 -53z" />
    <glyph glyph-name="scommaaccent" unicode="&#x219;" horiz-adv-x="417" 
d="M78 -261l44 202h72l-55 -202h-61zM154 -9q-92 0 -149 25l22 66q68 -25 132 -25q18 0 36.5 3t39 11t33.5 25t13 41q0 29 -21.5 55t-52.5 46.5t-62.5 43t-53 54.5t-21.5 71q0 78 50.5 113.5t128.5 35.5q82 0 142 -30l-23 -59q-72 26 -129 26q-41 0 -69 -18t-28 -57
q0 -29 22 -55t53 -47t62.5 -43.5t53.5 -57t22 -75.5t-18.5 -71.5t-49 -46.5t-64 -23.5t-69.5 -7.5z" />
    <glyph glyph-name="uni021A" unicode="&#x21a;" horiz-adv-x="569" 
d="M173 -261l44 202h72l-55 -202h-61zM211 0l67 640h-242l8 67h563l-8 -67h-241l-67 -640h-80z" />
    <glyph glyph-name="uni021B" unicode="&#x21b;" horiz-adv-x="375" 
d="M109 -261l44 202h72l-55 -202h-61zM181 -12q-99 0 -102 106q-2 21 1 41l38 347h-80l7 64h81l11 112h75l-11 -112h169l-6 -64h-170l-37 -345q-9 -80 45 -80q50 0 114 33l17 -58q-67 -44 -152 -44z" />
    <glyph glyph-name="uni0232" unicode="&#x232;" horiz-adv-x="591" 
d="M219 0l29 274l-184 433h89l144 -365l235 365h86l-291 -432l-28 -275h-80zM200 766l7 64h282l-7 -64h-282z" />
    <glyph glyph-name="uni0233" unicode="&#x233;" horiz-adv-x="477" 
d="M66 -220l107 220h-41l-85 546h82l70 -492l147 307q45 90 45 166q0 4 -0.5 10t-0.5 9h79q0 -2 0.5 -10t0.5 -9q0 -72 -48 -174l-277 -573h-79zM140 670l7 64h261l-7 -64h-261z" />
    <glyph glyph-name="uni0237" unicode="&#x237;" horiz-adv-x="233" 
d="M-76 -220q-41 0 -75 13l19 65q36 -11 65 -11q58 0 81 33.5t30 102.5l60 563h76l-60 -564q-11 -111 -61.5 -156.5t-134.5 -45.5z" />
    <glyph glyph-name="uni0259" unicode="&#x259;" horiz-adv-x="475" 
d="M292 561q129 0 129 -204q0 -100 -29 -182.5t-90 -134.5t-144 -52q-69 0 -103 35.5t-34 89.5q0 94 143 146l178 66v27q0 141 -63 141q-65 0 -171 -55l-27 57q37 21 61.5 32.5t66 22.5t83.5 11zM335 258l-159 -62q-38 -15 -59.5 -36t-21.5 -44q0 -33 19.5 -48t46.5 -15
q137 0 174 205z" />
    <glyph glyph-name="circumflex" unicode="&#x2c6;" horiz-adv-x="529" 
d="M432 621l-132 90l-151 -90l-32 50l191 115l160 -115z" />
    <glyph glyph-name="caron" unicode="&#x2c7;" horiz-adv-x="529" 
d="M317 616l-161 116l37 50l132 -93l153 91l29 -48z" />
    <glyph glyph-name="breve" unicode="&#x2d8;" horiz-adv-x="496" 
d="M325 645q-44 0 -82 25t-54 56l44 39q39 -58 100 -58q68 0 112 57l34 -37q-63 -82 -154 -82z" />
    <glyph glyph-name="dotaccent" unicode="&#x2d9;" horiz-adv-x="313" 
d="M133 669l10 93h77l-10 -93h-77z" />
    <glyph glyph-name="ring" unicode="&#x2da;" horiz-adv-x="525" 
d="M333 615q-42 0 -71.5 22.5t-29.5 60.5q0 51 34.5 82.5t85.5 31.5q41 0 70 -24t29 -62q0 -50 -33.5 -80.5t-84.5 -30.5zM336 656q28 0 46 17t18 44q0 24 -15 38t-38 14q-29 0 -46.5 -17t-17.5 -45q0 -24 14.5 -37.5t38.5 -13.5z" />
    <glyph glyph-name="ogonek" unicode="&#x2db;" horiz-adv-x="549" 
d="M449 -155l11 -55q-38 -15 -85 -15q-49 0 -75.5 25t-26.5 69q0 95 180 181l27 -40q-135 -73 -135 -129q0 -46 50 -46q26 0 54 10z" />
    <glyph glyph-name="tilde" unicode="&#x2dc;" horiz-adv-x="529" 
d="M393 646q-21 0 -63 18t-59 18q-38 0 -70 -24l-29 42q47 47 105 47q26 0 64.5 -18t56.5 -18q34 0 73 27l27 -43q-45 -49 -105 -49z" />
    <glyph glyph-name="hungarumlaut" unicode="&#x2dd;" horiz-adv-x="539" 
d="M135 617l-26 45l197 142l38 -61zM365 621l-28 46l188 124l35 -61z" />
    <glyph glyph-name="Sigma" unicode="&#x3a3;" horiz-adv-x="564" 
d="M16 0l7 72l236 280l-173 286l7 69h466l-6 -64h-378l174 -289l-239 -283h387l-7 -71h-474z" />
    <glyph glyph-name="alpha" unicode="&#x3b1;" horiz-adv-x="517" 
d="M149 -13q-55 0 -82.5 44.5t-27.5 118.5q0 67 16 135.5t45.5 129t79 98.5t109.5 38q68 0 95 -73l8 68h72l-57 -546h-76l12 112q-38 -55 -90.5 -90t-103.5 -35zM168 59q41 0 92.5 36.5t89.5 94.5l24 211q-38 83 -90 83q-51 0 -91 -55t-58.5 -127.5t-18.5 -143.5
q0 -44 13 -71.5t39 -27.5z" />
    <glyph glyph-name="beta" unicode="&#x3b2;" horiz-adv-x="521" 
d="M223 -12q-161 0 -161 231q0 45 4 85l21 213q12 120 76.5 188.5t153.5 68.5q152 0 152 -135q0 -109 -108 -183q54 -9 82.5 -53t28.5 -112q0 -124 -68.5 -213.5t-180.5 -89.5zM229 51q72 0 119 68.5t47 160.5q0 67 -20.5 96.5t-75.5 29.5q-16 0 -39.5 -6.5t-36.5 -12
t-44.5 -20t-34.5 -15.5l-6 -51q-4 -60 -4 -83q0 -167 95 -167zM149 408q67 28 75 31q168 73 168 191q0 80 -90 80q-56 0 -93 -48.5t-47 -139.5z" />
    <glyph glyph-name="gamma" unicode="&#x3b3;" horiz-adv-x="454" 
d="M116 -220q3 88 20 224q-12 265 -106 542h83q69 -204 87 -445q151 265 176 445h79q-8 -52 -26.5 -109.5t-50 -123t-53.5 -108t-63.5 -115t-52.5 -93.5l1 -27q0 -26 -1 -26q-3 -90 -17 -164h-76z" />
    <glyph glyph-name="delta" unicode="&#x3b4;" horiz-adv-x="505" 
d="M204 -12q-76 0 -122.5 51t-46.5 141q0 123 55.5 207t145.5 118q-82 53 -82 121q0 75 53 111.5t134 36.5q80 0 153 -29l-21 -60q-75 25 -141 25q-106 0 -106 -74q0 -17 6.5 -32t21 -28.5t25.5 -21.5t33.5 -22t30.5 -19q51 -33 83 -78.5t32 -121.5q0 -153 -75 -239
t-179 -86zM218 54q49 0 88 42t57 98t18 110q0 47 -13.5 80t-31.5 50.5t-51 37.5q-85 -36 -128.5 -113t-43.5 -169q0 -136 105 -136z" />
    <glyph glyph-name="pi" unicode="&#x3c0;" horiz-adv-x="545" 
d="M67 0l50 476h-68l8 70h475l-6 -70h-61l-51 -476h-77l51 476h-194l-51 -476h-76z" />
    <glyph glyph-name="phi" unicode="&#x3c6;" horiz-adv-x="640" 
d="M228 -220l22 213q-91 1 -148.5 55t-57.5 142q0 116 39.5 210.5t102.5 145.5h76q-61 -47 -99.5 -139.5t-38.5 -200.5q0 -65 31.5 -107t100.5 -46l35 329q8 77 45.5 127.5t100.5 50.5q81 0 118.5 -52.5t37.5 -142.5q0 -92 -26 -168.5t-88 -133t-153 -67.5l-23 -216h-75z
M332 57q82 16 132.5 98t50.5 193q0 147 -78 147q-32 0 -48 -31t-23 -96z" />
    <glyph glyph-name="omega" unicode="&#x3c9;" horiz-adv-x="698" 
d="M179 -9q-62 0 -100 48t-38 128q0 240 162 379h83q-166 -135 -166 -365q0 -122 77 -122q38 0 66 39.5t35 109.5l16 152h75l-15 -148q-2 -28 -2 -48q0 -105 60 -105q37 0 64.5 28.5t41 72t19.5 82t6 71.5q0 139 -79 233h85q73 -104 73 -217q0 -61 -13 -119t-38 -108
t-67.5 -80.5t-96.5 -30.5q-39 0 -71 27.5t-35 77.5q-22 -52 -62 -78.5t-80 -26.5z" />
    <glyph glyph-name="Wgrave" unicode="&#x1e80;" horiz-adv-x="964" 
d="M584 736l-220 65l27 72l211 -82zM182 0l-105 707h83l87 -643l226 643h74l106 -645l253 645h80l-283 -707h-110l-96 588l-204 -588h-111z" />
    <glyph glyph-name="wgrave" unicode="&#x1e81;" horiz-adv-x="776" 
d="M458 615l-184 119l38 60l177 -129zM135 0l-91 546h82l71 -492l180 313l-30 179h82l71 -492l146 307q44 91 44 165q0 14 -1 20h79q0 -2 0.5 -10t0.5 -9q0 -74 -48 -174l-171 -353h-113l-44 273l-157 -273h-101z" />
    <glyph glyph-name="Wacute" unicode="&#x1e82;" horiz-adv-x="964" 
d="M445 737l-16 54l229 80l19 -70zM182 0l-105 707h83l87 -643l226 643h74l106 -645l253 645h80l-283 -707h-110l-96 588l-204 -588h-111z" />
    <glyph glyph-name="wacute" unicode="&#x1e83;" horiz-adv-x="776" 
d="M360 618l-30 48l186 135l38 -60zM135 0l-91 546h82l71 -492l180 313l-30 179h82l71 -492l146 307q44 91 44 165q0 14 -1 20h79q0 -2 0.5 -10t0.5 -9q0 -74 -48 -174l-171 -353h-113l-44 273l-157 -273h-101z" />
    <glyph glyph-name="Wdieresis" unicode="&#x1e84;" horiz-adv-x="964" 
d="M374 764l9 92h74l-9 -92h-74zM583 764l9 92h74l-9 -92h-74zM182 0l-105 707h83l87 -643l226 643h74l106 -645l253 645h80l-283 -707h-110l-96 588l-204 -588h-111z" />
    <glyph glyph-name="wdieresis" unicode="&#x1e85;" horiz-adv-x="776" 
d="M268 669l10 93h75l-10 -93h-75zM465 669l9 93h75l-10 -93h-74zM135 0l-91 546h82l71 -492l180 313l-30 179h82l71 -492l146 307q44 91 44 165q0 14 -1 20h79q0 -2 0.5 -10t0.5 -9q0 -74 -48 -174l-171 -353h-113l-44 273l-157 -273h-101z" />
    <glyph glyph-name="uni1EBC" unicode="&#x1ebc;" horiz-adv-x="567" 
d="M408 747q-20 0 -62 18.5t-60 18.5q-36 0 -73 -25l-27 43q52 45 106 45q25 0 65 -18t58 -18q35 0 74 27l25 -45q-52 -46 -106 -46zM67 0l75 707h393l-7 -65h-314l-26 -254h291l-6 -66h-292l-27 -257h337l-7 -65h-417z" />
    <glyph glyph-name="uni1EBD" unicode="&#x1ebd;" horiz-adv-x="468" 
d="M173 -12q-129 0 -129 204q0 100 29 182.5t90 134.5t144 52q69 0 103 -35.5t34 -89.5q0 -94 -143 -146l-178 -66v-27q0 -141 63 -141q65 0 171 55l27 -57q-37 -21 -61.5 -32.5t-66 -22.5t-83.5 -11zM130 291l159 62q38 15 59.5 36t21.5 44q0 33 -19.5 48t-46.5 15
q-137 0 -174 -205zM375 646q-21 0 -63 18t-59 18q-38 0 -70 -24l-29 42q47 47 105 47q26 0 64.5 -18t56.5 -18q34 0 73 27l27 -43q-45 -49 -105 -49z" />
    <glyph glyph-name="Ygrave" unicode="&#x1ef2;" horiz-adv-x="591" 
d="M402 736l-220 65l27 72l211 -82zM219 0l29 274l-184 433h89l144 -365l235 365h86l-291 -432l-28 -275h-80z" />
    <glyph glyph-name="ygrave" unicode="&#x1ef3;" horiz-adv-x="477" 
d="M66 -220l107 220h-41l-85 546h82l70 -492l147 307q45 90 45 166q0 4 -0.5 10t-0.5 9h79q0 -2 0.5 -10t0.5 -9q0 -72 -48 -174l-277 -573h-79zM322 615l-184 119l38 60l177 -129z" />
    <glyph glyph-name="uni2012" unicode="&#x2012;" horiz-adv-x="393" 
d="M-7 265l6 72h401l-7 -72h-400z" />
    <glyph glyph-name="endash" unicode="&#x2013;" horiz-adv-x="628" 
d="M89 255l6 66h440l-6 -66h-440z" />
    <glyph glyph-name="emdash" unicode="&#x2014;" horiz-adv-x="886" 
d="M89 255l6 66h698l-6 -66h-698z" />
    <glyph glyph-name="quoteleft" unicode="&#x2018;" horiz-adv-x="191" 
d="M79 556q6 115 67 207h59q-35 -77 -47 -207h-79z" />
    <glyph glyph-name="quoteright" unicode="&#x2019;" horiz-adv-x="188" 
d="M71 556q38 84 47 207h79q-3 -68 -20 -114.5t-47 -92.5h-59z" />
    <glyph glyph-name="quotesinglbase" unicode="&#x201a;" horiz-adv-x="208" 
d="M-4 -121q38 83 47 206h79q-3 -68 -20 -114.5t-47 -91.5h-59z" />
    <glyph glyph-name="quotedblleft" unicode="&#x201c;" horiz-adv-x="344" 
d="M79 556q3 68 20 115t47 92h59q-38 -83 -47 -207h-79zM232 556q6 114 68 207h59q-40 -86 -47 -207h-80z" />
    <glyph glyph-name="quotedblright" unicode="&#x201d;" horiz-adv-x="341" 
d="M71 556q38 84 47 207h80q-3 -68 -20.5 -114.5t-47.5 -92.5h-59zM225 556q37 81 46 207h80q-6 -115 -68 -207h-58z" />
    <glyph glyph-name="quotedblbase" unicode="&#x201e;" horiz-adv-x="361" 
d="M-4 -121q38 80 47 206h79q-6 -114 -67 -206h-59zM150 -121q38 83 47 206h78q-3 -68 -20 -114.5t-47 -91.5h-58z" />
    <glyph glyph-name="dagger" unicode="&#x2020;" horiz-adv-x="469" 
d="M163 0l61 517l-169 -7l8 72l167 -7l11 179h80l-25 -179l168 7l-7 -72l-166 7l-49 -517h-79z" />
    <glyph glyph-name="daggerdbl" unicode="&#x2021;" horiz-adv-x="510" 
d="M183 0l25 177l-167 -5l8 72l165 -7l30 279l-168 -6l8 72l165 -6l14 178h79l-25 -178l168 6l-8 -72l-166 6l-30 -279l169 7l-8 -72l-167 5l-13 -177h-79z" />
    <glyph glyph-name="bullet" unicode="&#x2022;" horiz-adv-x="388" 
d="M199 208q-61 0 -103.5 42t-42.5 102t42.5 102.5t102.5 42.5t102.5 -42.5t42.5 -102.5t-42.5 -102t-101.5 -42z" />
    <glyph glyph-name="ellipsis" unicode="&#x2026;" horiz-adv-x="647" 
d="M33 0l10 89h88l-9 -89h-89zM244 0l9 89h89l-10 -89h-88zM464 0l9 89h89l-10 -89h-88z" />
    <glyph glyph-name="perthousand" unicode="&#x2030;" horiz-adv-x="1136" 
d="M205 388q-64 0 -100 33.5t-36 97.5q0 80 47 137.5t125 57.5q137 0 137 -132q0 -81 -47 -137.5t-126 -56.5zM210 445q50 0 76.5 38.5t26.5 90.5q0 86 -77 86q-50 0 -75 -42t-25 -95q0 -78 74 -78zM544 -9q-64 0 -99.5 33.5t-35.5 97.5q0 80 47 137.5t125 57.5
q66 0 102 -33t36 -98q0 -82 -47.5 -138.5t-127.5 -56.5zM550 48q50 0 76 38t26 91q0 86 -77 86q-49 0 -74 -41.5t-25 -94.5q0 -79 74 -79zM903 -9q-64 0 -99.5 33.5t-35.5 97.5q0 80 47 137.5t125 57.5q138 0 138 -131q0 -82 -47.5 -138.5t-127.5 -56.5zM909 48
q50 0 76.5 38.5t26.5 90.5q0 86 -77 86q-50 0 -75 -41.5t-25 -94.5q0 -79 74 -79zM107 59l-36 44l588 532l36 -43z" />
    <glyph glyph-name="guilsinglleft" unicode="&#x2039;" horiz-adv-x="257" 
d="M123 52l-83 220l129 220l54 -22l-108 -198l65 -195z" />
    <glyph glyph-name="guilsinglright" unicode="&#x203a;" horiz-adv-x="257" 
d="M81 52l-52 25l106 195l-65 198l58 22l82 -220z" />
    <glyph glyph-name="uni203D" unicode="&#x203d;" horiz-adv-x="366" 
d="M84 170l11 138l21 209h70l-17 -165q48 44 74 82.5t26 82.5q0 57 -53.5 88t-118.5 38l23 66q90 -7 156.5 -52.5t66.5 -128.5q0 -40 -17 -77t-49.5 -69t-55.5 -50t-59 -42l-15 -120h-63zM57 0l9 85h86l-8 -85h-87z" />
    <glyph glyph-name="fraction" unicode="&#x2044;" horiz-adv-x="132" 
d="M-238 76l-36 40l582 535l34 -38z" />
    <glyph glyph-name="zerosuperior" unicode="&#x2070;" horiz-adv-x="363" 
d="M158 410q-133 0 -133 145q0 12 2 38q9 84 51 138.5t128 54.5q131 0 131 -142q0 -12 -2 -40q-9 -88 -51.5 -141t-125.5 -53zM166 463q87 0 102 137q2 22 2 34q0 98 -72 98q-89 0 -104 -138q-2 -24 -2 -33q0 -98 74 -98z" />
    <glyph glyph-name="foursuperior" unicode="&#x2074;" horiz-adv-x="332" 
d="M170 415l9 88h-168l6 57l155 221h101l-24 -226h62l-5 -52h-62l-10 -88h-64zM68 555h116l20 189z" />
    <glyph glyph-name="fivesuperior" unicode="&#x2075;" horiz-adv-x="321" 
d="M128 407q-48 0 -102 14l21 51q49 -13 86 -13q32 0 53 18t24 45q4 33 -14 49.5t-51 16.5q-20 0 -87 -5l20 198h216l-5 -53h-154l-9 -90h14q13 1 23 1q58 0 89.5 -29t26.5 -81q-5 -56 -48 -89t-103 -33z" />
    <glyph glyph-name="sixsuperior" unicode="&#x2076;" horiz-adv-x="339" 
d="M157 408q-63 0 -94 28.5t-31 96.5q0 11 2 37q11 100 65.5 158t132.5 58q38 0 77 -12l-22 -52q-31 9 -63 9q-39 0 -69.5 -27.5t-43.5 -78.5q37 17 79 17q58 0 88 -28t24 -81q-6 -60 -47 -92.5t-98 -32.5zM165 459q27 0 45.5 19.5t22.5 49.5q3 33 -12.5 50t-43.5 17
q-33 0 -72 -13q-2 -36 -2 -47q-1 -43 13 -59.5t49 -16.5z" />
    <glyph glyph-name="sevensuperior" unicode="&#x2077;" horiz-adv-x="273" 
d="M68 403l-60 21l199 297h-189l6 60h258l-6 -51z" />
    <glyph glyph-name="eightsuperior" unicode="&#x2078;" horiz-adv-x="337" 
d="M146 409q-63 0 -98 23.5t-29 74.5q5 58 80 103q-53 33 -47 83q4 43 43 68t95 25q59 0 90 -24t27 -63q-6 -54 -79 -90q76 -39 70 -95q-5 -52 -46 -78.5t-106 -26.5zM153 457q31 0 52.5 16t25.5 45q0 5 -1 10t-4 9.5t-6 8.5t-9.5 8t-11 7t-13 7t-13.5 6.5t-15 7t-15 6.5
q-52 -29 -58 -73q-2 -29 16 -43.5t52 -14.5zM181 630q53 29 57 62q2 21 -11 32.5t-43 11.5q-64 0 -70 -48q-2 -18 15 -30.5t52 -27.5z" />
    <glyph glyph-name="ninesuperior" unicode="&#x2079;" horiz-adv-x="337" 
d="M116 408q-39 0 -78 13l22 51q38 -9 63 -9q39 0 69 28t43 78q-39 -17 -77 -17q-58 0 -88 28t-24 82q6 60 46.5 92.5t97.5 32.5q63 0 94 -28.5t31 -96.5q0 -11 -2 -37q-11 -101 -65.5 -159t-131.5 -58zM170 599q30 0 72 14q3 27 3 48q-1 42 -15 58.5t-48 16.5
q-26 0 -45 -19.5t-23 -48.5q-3 -33 13 -51t43 -18z" />
    <glyph glyph-name="uni207A" unicode="&#x207a;" horiz-adv-x="400" 
d="M151 452l15 138l-139 -1l6 53h138l15 141h55l-16 -142l147 1l-6 -53l-146 1l-14 -138h-55z" />
    <glyph glyph-name="minussuperior" unicode="&#x207b;" horiz-adv-x="396" 
d="M27 588l6 53h335l-5 -53h-336z" />
    <glyph glyph-name="uni207C" unicode="&#x207c;" horiz-adv-x="398" 
d="M20 521l5 53h336l-5 -53h-336zM33 653l6 53h336l-6 -53h-336z" />
    <glyph glyph-name="parenleftsuperior" unicode="&#x207d;" horiz-adv-x="237" 
d="M161 269q-11 8 -26.5 26t-38.5 52t-38 88t-15 116q0 132 57.5 231.5t129.5 141.5l32 -41q-60 -38 -108 -126.5t-48 -198.5q0 -67 23 -127.5t41.5 -85t31.5 -35.5z" />
    <glyph glyph-name="parenrightsuperior" unicode="&#x207e;" horiz-adv-x="237" 
d="M37 269l-32 41q57 43 107 137t50 203q0 51 -13 95.5t-31.5 73t-31.5 43.5t-22 21l42 41q11 -7 27 -23.5t38.5 -48t38 -83.5t15.5 -113q0 -130 -54.5 -228.5t-133.5 -158.5z" />
    <glyph glyph-name="n.superior" unicode="&#x207f;" horiz-adv-x="393" 
d="M37 416l38 360h63l-7 -55q84 65 139 65q43 0 60.5 -19t16.5 -63q0 -6 -30 -288h-62q6 55 11.5 105.5t8.5 77.5t5 48t3 29.5t1 10.5q0 23 -8.5 32.5t-27.5 9.5q-17 0 -57.5 -22.5t-64.5 -38.5l-27 -252h-62z" />
    <glyph glyph-name="zeroinferior" unicode="&#x2080;" horiz-adv-x="363" 
d="M158 -5q-133 0 -133 145q0 12 2 38q9 84 51 138.5t128 54.5q131 0 131 -142q0 -12 -2 -40q-9 -88 -51.5 -141t-125.5 -53zM166 48q87 0 102 137q2 22 2 34q0 98 -72 98q-89 0 -104 -138q-2 -24 -2 -33q0 -98 74 -98z" />
    <glyph glyph-name="oneinferior" unicode="&#x2081;" horiz-adv-x="253" 
d="M95 0l33 312h-89l5 53q7 0 79 2t78 2l-39 -369h-67z" />
    <glyph glyph-name="twoinferior" unicode="&#x2082;" horiz-adv-x="307" 
d="M-3 0l5 51q12 8 35.5 24t35 24t31.5 22t30 22.5t25 21.5t22.5 22.5t16 21.5t12.5 23t5 23q4 29 -12.5 44t-44.5 15q-53 0 -92 -34q-1 3 -11.5 21t-11.5 21q52 49 128 49q53 0 84.5 -29t26.5 -81q-4 -34 -21.5 -64t-51.5 -57.5t-57.5 -42.5t-66.5 -41h181l-6 -56h-263z
" />
    <glyph glyph-name="threeinferior" unicode="&#x2083;" horiz-adv-x="301" 
d="M114 -5q-55 0 -106 16l19 51q45 -13 86 -13q85 0 90 55q4 36 -21 50t-81 18l4 39q94 8 99 64q1 22 -14.5 33.5t-41.5 11.5q-35 0 -73 -17q-1 3 -6 21.5t-6 21.5q50 26 100 26t80 -24.5t26 -64.5q-7 -62 -70 -86q38 -8 56 -33t15 -59q-6 -57 -50.5 -83.5t-105.5 -26.5z
" />
    <glyph glyph-name="fourinferior" unicode="&#x2084;" horiz-adv-x="332" 
d="M170 1l9 88h-168l6 57l155 221h101l-24 -226h62l-5 -52h-62l-10 -88h-64zM68 141h116l20 189z" />
    <glyph glyph-name="fiveinferior" unicode="&#x2085;" horiz-adv-x="321" 
d="M128 -7q-48 0 -102 14l21 51q49 -13 86 -13q32 0 53 18t24 45q4 33 -14 49.5t-51 16.5q-20 0 -87 -5l20 198h216l-5 -53h-154l-9 -90h14q13 1 23 1q58 0 89.5 -29t26.5 -81q-5 -56 -48 -89t-103 -33z" />
    <glyph glyph-name="sixinferior" unicode="&#x2086;" horiz-adv-x="339" 
d="M157 -6q-63 0 -94 28.5t-31 96.5q0 11 2 37q11 100 65.5 158t132.5 58q38 0 77 -12l-22 -52q-31 9 -63 9q-39 0 -69.5 -27.5t-43.5 -78.5q37 17 79 17q58 0 88 -28t24 -81q-6 -60 -47 -92.5t-98 -32.5zM165 45q27 0 45.5 19.5t22.5 49.5q3 33 -12.5 50t-43.5 17
q-33 0 -72 -13q-2 -36 -2 -47q-1 -43 13 -59.5t49 -16.5z" />
    <glyph glyph-name="seveninferior" unicode="&#x2087;" horiz-adv-x="273" 
d="M68 -11l-60 21l199 297h-189l6 60h258l-6 -51z" />
    <glyph glyph-name="eightinferior" unicode="&#x2088;" horiz-adv-x="337" 
d="M146 -5q-63 0 -98 23.5t-29 74.5q5 58 80 103q-53 33 -47 83q4 43 43 68t95 25q59 0 90 -24t27 -63q-6 -54 -79 -90q76 -39 70 -95q-5 -52 -46 -78.5t-106 -26.5zM153 43q31 0 52.5 16t25.5 45q0 5 -1 10t-4 9.5t-6 8.5t-9.5 8t-11 7t-13 7t-13.5 6.5t-15 7t-15 6.5
q-52 -29 -58 -73q-2 -29 16 -43.5t52 -14.5zM181 216q53 29 57 62q2 21 -11 32.5t-43 11.5q-64 0 -70 -48q-2 -18 15 -30.5t52 -27.5z" />
    <glyph glyph-name="nineinferior" unicode="&#x2089;" horiz-adv-x="337" 
d="M116 -7q-39 0 -78 13l22 51q38 -9 63 -9q39 0 69 28t43 78q-39 -17 -77 -17q-58 0 -88 28t-24 82q6 60 46.5 92.5t97.5 32.5q63 0 94 -28.5t31 -96.5q0 -11 -2 -37q-11 -101 -65.5 -159t-131.5 -58zM170 184q30 0 72 14q3 27 3 48q-1 42 -15 58.5t-48 16.5
q-26 0 -45 -19.5t-23 -48.5q-3 -33 13 -51t43 -18z" />
    <glyph glyph-name="parenleft.inferior" unicode="&#x208d;" horiz-adv-x="237" 
d="M161 -147q-11 8 -26.5 26t-38.5 52t-38 88t-15 116q0 132 57.5 231.5t129.5 141.5l32 -41q-60 -38 -108 -126.5t-48 -198.5q0 -67 23 -127.5t41.5 -85t31.5 -35.5z" />
    <glyph glyph-name="parenright.inferior" unicode="&#x208e;" horiz-adv-x="237" 
d="M37 -147l-32 41q57 43 107 137t50 203q0 51 -13 95.5t-31.5 73t-31.5 43.5t-22 21l42 41q11 -7 27 -23.5t38.5 -48t38 -83.5t15.5 -113q0 -130 -54.5 -228.5t-133.5 -158.5z" />
    <glyph glyph-name="colonsign" unicode="&#x20a1;" horiz-adv-x="708" 
d="M56 -75l81 157q-81 84 -81 228q0 183 104.5 293t286.5 110h13l45 87h60l-47 -92q47 -6 91 -23l58 115h63l-378 -736q22 -3 49 -3q88 0 152 21l15 -66q-82 -26 -194 -26q-20 0 -58 4l-35 -69h-63l42 81q-44 13 -82 40l-62 -121h-60zM296 76l281 547q-53 16 -93 20
l-268 -524q33 -27 80 -43zM179 163l246 480q-137 -5 -212 -94.5t-75 -233.5q0 -93 41 -152z" />
    <glyph glyph-name="uni20A2" unicode="&#x20a2;" horiz-adv-x="648" 
d="M378 -10q-147 0 -234 86t-87 234q0 183 105.5 293t288.5 110q100 0 164 -28l-27 -63q-65 23 -143 23q-145 0 -225.5 -90.5t-80.5 -239.5q0 -90 39.5 -150t110.5 -85l41 386h75l-9 -91q1 1 11.5 11t15.5 14t16.5 14t19.5 15.5t20.5 14t22.5 13t22 9.5t24 7.5t24 2.5
q7 0 25 -2l-14 -71q-5 1 -24 1q-23 0 -60.5 -22t-54.5 -35.5t-55 -45.5l-25 -238q26 -2 48 -2q78 0 144 21l15 -66q-82 -26 -193 -26z" />
    <glyph glyph-name="franc" unicode="&#x20a3;" horiz-adv-x="673" 
d="M61 0l75 707h352l-7 -65h-273l-23 -220h276l-9 -91q29 27 45.5 41.5t57 37t72.5 22.5q6 0 26 -2l-15 -72q-7 2 -24 2q-10 0 -22 -3.5t-26.5 -11.5t-25 -14t-28.5 -20t-24 -18.5t-25 -20.5l-19 -15l-27 -257h-76l36 356h-199l-37 -356h-80z" />
    <glyph glyph-name="lira" unicode="&#x20a4;" horiz-adv-x="525" 
d="M38 0l8 67q20 7 38 31t30 54.5t19.5 55t10.5 42.5h-95l8 62h102q5 36 8 67h-103l7 62h102q0 10 1 21t2.5 25t2.5 22q6 55 27.5 94.5t48.5 59t63 30t64 13t59 3.5h15l-4 -68q-5 0 -26 -1.5t-27.5 -2.5t-25 -3.5t-25 -5t-21.5 -8t-21.5 -12l-16.5 -16.5t-15 -22t-10 -28.5
t-7 -36.5q-1 -10 -2 -20.5t-2 -23.5t-2 -20h179l-7 -62h-178q-6 -45 -10 -67h181l-8 -62h-186q-28 -130 -83 -183h325l-8 -67h-418z" />
    <glyph glyph-name="mill" unicode="&#x20a5;" horiz-adv-x="787" 
d="M98 -134l271 536q3 29 3 46q0 22 -10 30.5t-37 8.5q-12 0 -38 -14t-48.5 -29.5t-49.5 -34.5t-32 -22l-41 -387h-76l57 546h77l-9 -89q1 1 12.5 10t15.5 12.5t16.5 13t19 14t19 13t21.5 13l21 10.5t22 9.5t21.5 5.5t21.5 2q61 0 76 -34l110 215h70l-125 -247q89 66 153 66
q53 0 73.5 -21t20.5 -69q0 -18 -6 -76l-42 -394h-76l41 378q6 44 6 68t-10.5 33.5t-37.5 9.5q-35 0 -165 -95l-42 -394h-76l24 221l-181 -355h-70z" />
    <glyph glyph-name="uni20A6" unicode="&#x20a6;" horiz-adv-x="863" 
d="M136 0l27 253h-119l6 57h119l12 107h-120l6 56h120l25 234h116l96 -234h210l24 234h79l-26 -234h120l-6 -56h-119l-12 -107h120l-6 -57h-121l-26 -253h-123l-103 253h-193l-26 -253h-80zM247 310h164l-42 107h-110zM491 310h126l11 107h-181zM265 473h80l-63 160zM592 58
l20 195h-98z" />
    <glyph glyph-name="uni20A7" unicode="&#x20a7;" horiz-adv-x="1353" 
d="M61 0l75 707h229q95 0 151 -48.5t56 -141.5q0 -130 -86.5 -193.5t-220.5 -63.5h-96l-27 -260h-81zM176 326h94q217 0 217 184q0 133 -150 133h-128zM1081 -9q-92 0 -149 25l22 66q68 -25 132 -25q18 0 36.5 3t39 11t33.5 25t13 41q0 25 -15.5 47.5t-39 39t-51 36.5
t-51 38.5t-39 47t-15.5 61.5q0 78 50.5 113.5t128.5 35.5q82 0 142 -30l-23 -59q-72 26 -129 26q-41 0 -69 -18t-28 -57q0 -29 22 -55t53.5 -47t62.5 -43.5t53 -57t22 -75.5t-18.5 -71.5t-49 -46.5t-64 -23.5t-69.5 -7.5zM748 -12q-99 0 -102 106q-2 21 1 41l38 347h-80
l7 64h81l11 112h75l-11 -112h169l-6 -64h-170l-37 -345q-9 -80 45 -80q50 0 114 33l17 -58q-67 -44 -152 -44z" />
    <glyph glyph-name="uni20A8" unicode="&#x20a8;" horiz-adv-x="969" 
d="M695 -14q-94 0 -154.5 34.5t-112.5 116.5l-107 167q-31 -3 -85 -3h-62l-32 -301h-81l75 707h218q94 0 151.5 -45t57.5 -127q0 -76 -41 -133t-119 -79l89 -140q47 -76 93.5 -103.5t120.5 -28.5q41 0 80 20.5t39 65.5q0 25 -15.5 48t-39 39.5t-50.5 37t-50.5 40t-39 48.5
t-15.5 62q0 77 50.5 110.5t129.5 33.5q83 0 141 -30l-23 -59q-78 26 -128 26q-97 0 -97 -70q0 -25 15.5 -48t39 -39.5t50.5 -37.5t50.5 -41.5t39 -51t15.5 -65.5q0 -41 -17.5 -72t-47.5 -48.5t-64.5 -25.5t-73.5 -8zM181 365h93q96 0 150 41t54 126q0 111 -151 111h-118z
" />
    <glyph glyph-name="uni20A9" unicode="&#x20a9;" horiz-adv-x="1093" 
d="M64 459l6 56h94l-28 192h83l26 -192h219l68 192h74l31 -192h253l75 192h80l-77 -192h96l-6 -56h-112l-51 -127h151l-6 -56h-168l-110 -276h-110l-45 276h-160l-95 -276h-111l-41 276h-154l6 56h140l-19 127h-109zM646 459l21 -127h151l50 127h-222zM252 459l17 -127h131
l44 127h-192zM676 276l36 -214l84 214h-120zM511 459l-44 -127h131l-21 127h-66zM277 276l29 -212l74 212h-103zM556 588l-26 -73h38z" />
    <glyph glyph-name="uni20AA" unicode="&#x20aa;" horiz-adv-x="869" 
d="M269 0l48 466h80l-41 -395h155q65 0 103.5 12.5t59 51.5t26.5 68t14 104q1 4 1 6l41 394h80l-41 -393q-6 -60 -12.5 -97t-19 -77t-32 -62.5t-51 -42t-76 -27.5t-106.5 -8h-229zM61 0l74 707h226q139 0 190.5 -44.5t51.5 -145.5q0 -49 -8 -124l-16 -152h-80l16 152
q8 66 8 109q0 70 -34 102t-128 32h-154l-66 -636h-80z" />
    <glyph glyph-name="dong" unicode="&#x20ab;" horiz-adv-x="555" 
d="M173 89q-118 0 -118 155t90 234.5t221 76.5h17l7 67h-142l6 52h142l9 83h76l-9 -83h86l-6 -52h-86l-53 -520h-76l11 100q-100 -113 -175 -113zM192 161q13 0 29.5 7t30 16.5t31.5 24.5t28.5 25t25.5 25.5t18 17.5l20 214h-35q-83 1 -144.5 -61.5t-61.5 -165.5
q0 -56 13.5 -79.5t44.5 -23.5zM45 0l1 49h397l-2 -49h-396z" />
    <glyph glyph-name="Euro" unicode="&#x20ac;" horiz-adv-x="581" 
d="M348 -10q-98 0 -168 46.5t-88 139.5h-64l6 54h53v11q0 39 11 80h-54l5 54h66q37 89 113.5 134.5t175.5 45.5q86 0 163 -31l-28 -61q-76 26 -141 26q-66 0 -120 -28.5t-83 -85.5h253l-5 -54h-268q-10 -39 -10 -83v-8h268l-6 -54h-252q19 -62 71.5 -92t122.5 -30
q57 0 135 23l13 -60q-66 -27 -169 -27z" />
    <glyph glyph-name="uni20AD" unicode="&#x20ad;" horiz-adv-x="672" 
d="M532 -25l-259 371h-42l-36 -346h-80l36 346h-108l6 66h110l31 295h79l-31 -295h49l280 295h100l-287 -295h229l-7 -66h-229l231 -329z" />
    <glyph glyph-name="uni20AE" unicode="&#x20ae;" horiz-adv-x="631" 
d="M242 0l23 207l-148 -76l7 66l147 76l11 102l-148 -76l7 62l148 76l21 200h-242l8 70h566l-8 -70h-242l-16 -157l143 75l-6 -62l-144 -75l-11 -102l144 75l-7 -66l-144 -75l-26 -250h-83z" />
    <glyph glyph-name="uni20B1" unicode="&#x20b1;" horiz-adv-x="749" 
d="M734 577l-6 -57h-93v-7q0 -33 -6 -62h91l-5 -57h-105q-34 -69 -109.5 -103t-172.5 -33h-96l-27 -258h-81l42 394h-112l6 57h112l7 69h-111l5 57h113l13 130h229q77 0 129 -33t70 -97h107zM252 451h292q6 24 6 57q0 8 -1 12h-290zM246 394l-7 -70h84q145 0 195 70h-272z
M266 577h268q-29 66 -134 66h-127z" />
    <glyph glyph-name="uni2113" unicode="&#x2113;" horiz-adv-x="440" 
d="M160 -12q-52 0 -75 27.5t-23 86.5q0 23 16 167l-60 -40l-26 40q52 35 93 67l20 187q14 126 56 178.5t115 52.5q43 0 70.5 -23t27.5 -73q0 -153 -216 -335q-20 -194 -20 -208q0 -38 11.5 -52t38.5 -14q44 0 76 37l28 -30q-55 -68 -132 -68zM166 398q136 134 136 243
q0 34 -10 47.5t-32 13.5q-62 0 -76 -140z" />
    <glyph glyph-name="uni2116" unicode="&#x2116;" horiz-adv-x="926" 
d="M724 223q-54 0 -84.5 33t-28.5 82q2 70 42.5 114t108.5 44q59 0 87 -32t26 -82q-2 -63 -39.5 -111t-111.5 -48zM732 275q39 0 59.5 30t21.5 70q2 69 -56 69q-41 0 -62.5 -30t-22.5 -67q-2 -72 60 -72zM580 81l7 56h268l-7 -56h-268zM53 0l60 546h101l215 -469l48 469h76
l-61 -546h-105l-210 457l-48 -457h-76z" />
    <glyph glyph-name="uni2117" unicode="&#x2117;" horiz-adv-x="805" 
d="M562 356q0 -38 -15 -65.5t-40 -42t-52 -20.5t-57 -6h-46v-147h-61v410h136q63 0 99 -32.5t36 -96.5zM501 353q0 42 -20.5 62t-64.5 20h-64v-161h50q99 0 99 79zM394 -91q-162 0 -253.5 100t-91.5 266t100 264.5t264 98.5q165 0 254 -101.5t89 -263.5q0 -165 -97 -264.5
t-265 -99.5zM397 -37q145 0 221 86.5t76 224.5q0 136 -77 222.5t-213 86.5q-140 0 -216 -85.5t-76 -221.5q0 -133 74.5 -223t210.5 -90z" />
    <glyph glyph-name="uni2120" unicode="&#x2120;" horiz-adv-x="841" 
d="M178 348q-73 0 -121 19l18 51q55 -20 99 -20q47 0 74 15t27 38q0 26 -28 43t-61 25.5t-61 32.5t-28 63q0 49 42.5 76.5t100.5 27.5t103 -15l-17 -46q-47 13 -93 13q-33 0 -55.5 -13t-22.5 -34q0 -26 28.5 -43t62 -26.5t62 -33.5t28.5 -61q0 -57 -50.5 -84.5t-107.5 -27.5
zM366 353l80 354h65l71 -303l151 303h63l-6 -354h-58l8 255l-128 -255h-74l-62 259l-54 -259h-56z" />
    <glyph glyph-name="trademark" unicode="&#x2122;" horiz-adv-x="785" 
d="M308 353l81 354h64l71 -303l151 303h63l-6 -354h-58l8 255l-127 -255h-75l-62 259l-54 -259h-56zM140 353l32 301h-118l6 53h293l-6 -53h-117l-32 -301h-58z" />
    <glyph glyph-name="Omega" unicode="&#x2126;" horiz-adv-x="816" 
d="M44 0l7 71h167q-59 31 -104 102t-45 165q0 168 108.5 274t278.5 106q148 0 226 -86t78 -223q0 -109 -59 -203.5t-153 -134.5h171l-7 -71h-270l6 69q228 122 228 334q0 112 -58 179.5t-173 67.5q-138 0 -217 -90t-79 -223q0 -161 168 -268l-6 -69h-267z" />
    <glyph glyph-name="estimated" unicode="&#x212e;" horiz-adv-x="630" 
d="M320 -8q-127 0 -205 72t-78 200t80 212t207 84q117 0 188.5 -64t72.5 -178v-51h-438v-65q0 -57 51 -105t126 -48q122 0 196 99l41 -32q-40 -62 -104 -93t-137 -31zM147 317h328v28q0 77 -38 121t-113 44q-80 0 -128.5 -44.5t-48.5 -120.5v-28z" />
    <glyph glyph-name="uni2139" unicode="&#x2139;" horiz-adv-x="800" 
d="M368 -8q-149 0 -255.5 106t-106.5 256q0 149 106.5 255.5t255.5 106.5t255.5 -106.5t106.5 -255.5q0 -150 -106.5 -256t-255.5 -106zM368 48q127 0 216 89.5t90 216.5q0 127 -89.5 216.5t-216.5 89.5t-216.5 -89.5t-89.5 -216.5t89.5 -216.5t216.5 -89.5zM368 454
q-31 0 -53 21.5t-22 53.5q0 30 22.5 51t52.5 21t52.5 -21t22.5 -51q0 -32 -22 -53.5t-53 -21.5zM296 140v280h143v-280h-143z" />
    <glyph glyph-name="uni213B" unicode="&#x213b;" horiz-adv-x="804" 
d="M722 0h-704v309h111v344h309l175 -175v-169h109v-309zM553 483l-109 110v-110h109zM574 309v135h-170v170h-236v-305h406zM683 39l-1 231h-625v-231h626zM358 529h-144v39h144v-39zM528 360h-314v38h314v-38zM358 444h-144v39h144v-39zM358 80h-144v39h144v-39z" />
    <glyph glyph-name="onethird" unicode="&#x2153;" horiz-adv-x="787" 
d="M95 76l-36 40l582 535l34 -38zM538 -5q-55 0 -106 16l19 51q45 -13 86 -13q85 0 90 55q4 36 -21 50t-81 18l4 39q94 8 99 64q1 22 -14.5 33.5t-41.5 11.5q-35 0 -73 -17q-1 3 -6 21.5t-6 21.5q50 26 100 26t80 -24.5t26 -64.5q-7 -62 -70 -86q38 -8 56 -33t15 -59
q-6 -57 -50.5 -83.5t-105.5 -26.5zM120 415l33 312h-89l5 53q7 0 79 2t78 2l-39 -369h-67z" />
    <glyph glyph-name="twothirds" unicode="&#x2154;" horiz-adv-x="792" 
d="M9 415l5 51q12 8 35.5 24t35 24t31.5 22t30 22.5t25 21.5t22.5 22.5t16 21.5t12.5 23t5 23q4 29 -12.5 44t-44.5 15q-53 0 -92 -34q-1 3 -11.5 21t-11.5 21q52 49 128 49q53 0 84.5 -29t26.5 -81q-4 -34 -21.5 -64t-51.5 -57.5t-57.5 -42.5t-66.5 -41h181l-6 -56h-263z
M118 76l-36 40l582 535l34 -38zM543 -5q-55 0 -106 16l19 51q45 -13 86 -13q84 0 90 55q4 36 -21 50t-81 18l4 39q94 8 99 64q1 22 -14.5 33.5t-41.5 11.5q-35 0 -73 -17q0 3 -6 21.5t-6 21.5q50 26 100 26t80 -24.5t26 -64.5q-7 -62 -70 -86q38 -8 56 -33t15 -59
q-6 -57 -50.5 -83.5t-105.5 -26.5z" />
    <glyph glyph-name="oneeighth" unicode="&#x215b;" horiz-adv-x="791" 
d="M529 -5q-63 0 -98 23.5t-29 74.5q5 58 80 103q-53 33 -47 83q4 43 43 68t95 25q59 0 90 -24t27 -63q-6 -54 -79 -90q76 -39 70 -95q-5 -52 -46 -78.5t-106 -26.5zM536 43q31 0 52.5 16t25.5 45q0 5 -1 10t-4 9.5t-6 8.5t-9.5 8t-11 7t-13 7t-13.5 6.5t-15 7t-15 6.5
q-52 -29 -58 -73q-2 -29 16 -43.5t52 -14.5zM564 216q53 29 57 62q2 21 -11 32.5t-43 11.5q-64 0 -70 -48q-2 -18 15 -30.5t52 -27.5zM121 415l33 312h-89l5 53q7 0 79 2t78 2l-39 -369h-67zM87 76l-36 40l582 535l34 -38z" />
    <glyph glyph-name="threeeighths" unicode="&#x215c;" horiz-adv-x="795" 
d="M532 -5q-63 0 -98 23.5t-29 74.5q5 58 80 103q-53 33 -47 83q4 43 43 68t95 25q59 0 90 -24t27 -63q-6 -54 -79 -90q76 -39 70 -95q-5 -52 -46 -78.5t-106 -26.5zM92 76l-36 40l582 535l34 -38zM133 410q-55 0 -106 16l19 51q45 -13 86 -13q84 0 90 55q4 36 -21 50
t-81 18l4 39q94 8 99 64q1 22 -14.5 33.5t-41.5 11.5q-35 0 -73 -17q-1 3 -6.5 21.5t-5.5 21.5q50 26 100 26t80 -24.5t26 -64.5q-7 -62 -70 -86q38 -8 56 -33t15 -59q-6 -57 -50.5 -83.5t-105.5 -26.5zM539 43q31 0 52.5 16t25.5 45q0 5 -1 10t-4 9.5t-6 8.5t-9.5 8t-11 7
t-13 7t-13.5 6.5t-15 7t-15 6.5q-52 -29 -58 -73q-2 -29 16 -43.5t52 -14.5zM567 216q53 29 57 62q2 21 -11 32.5t-43 11.5q-64 0 -70 -48q-2 -18 15 -30.5t52 -27.5z" />
    <glyph glyph-name="fiveeighths" unicode="&#x215d;" horiz-adv-x="795" 
d="M532 -5q-63 0 -98 23.5t-29 74.5q5 58 80 103q-53 33 -47 83q4 43 43 68t95 25q59 0 90 -24t27 -63q-6 -54 -79 -90q76 -39 70 -95q-5 -52 -46 -78.5t-106 -26.5zM539 43q31 0 52.5 16t25.5 45q0 5 -1 10t-4 9.5t-6 8.5t-9.5 8t-11 7t-13 7t-13.5 6.5t-15 7t-15 6.5
q-52 -29 -58 -73q-2 -29 16 -43.5t52 -14.5zM567 216q53 29 57 62q2 21 -11 32.5t-43 11.5q-64 0 -70 -48q-2 -18 15 -30.5t52 -27.5zM149 407q-48 0 -102 14l21 51q49 -13 86 -13q32 0 53 18t24 45q4 33 -14 49.5t-51 16.5q-20 0 -87 -5l20 198h216l-5 -53h-154l-9 -90h13
q14 1 24 1q58 0 89.5 -29t26.5 -81q-5 -56 -48 -89t-103 -33zM94 76l-36 40l582 535l34 -38z" />
    <glyph glyph-name="seveneighths" unicode="&#x215e;" horiz-adv-x="760" 
d="M498 -5q-63 0 -98 23.5t-29 74.5q5 58 80 103q-53 33 -47 83q4 43 43 68t95 25q59 0 90 -24t27 -63q-6 -54 -79 -90q76 -39 70 -95q-5 -52 -46 -78.5t-106 -26.5zM505 43q31 0 52.5 16t25.5 45q0 5 -1 10t-4 9.5t-6 8.5t-9.5 8t-11 7t-13 7t-13.5 6.5t-15 7t-15 6.5
q-52 -29 -58 -73q-2 -29 16 -43.5t52 -14.5zM533 216q53 29 57 62q2 21 -11 32.5t-43 11.5q-64 0 -70 -48q-2 -18 15 -30.5t52 -27.5zM60 76l-36 40l582 535l34 -38zM95 403l-60 21l199 297h-189l6 60h258l-6 -51z" />
    <glyph glyph-name="uni2190" unicode="&#x2190;" horiz-adv-x="697" 
d="M257 62l-207 239l255 239l44 -48l-164 -155h512l-7 -72h-514l133 -157z" />
    <glyph glyph-name="arrowup" unicode="&#x2191;" horiz-adv-x="745" 
d="M303 -21l54 514l-174 -150l-41 48l264 231l214 -230l-52 -48l-140 147l-54 -512h-71z" />
    <glyph glyph-name="uni2192" unicode="&#x2192;" horiz-adv-x="698" 
d="M391 62l-43 48l164 155h-512l7 72h514l-133 157l52 46l207 -239z" />
    <glyph glyph-name="arrowdown" unicode="&#x2193;" horiz-adv-x="745" 
d="M338 -48l-214 230l52 48l140 -148l54 513l71 -1l-54 -513l173 150l41 -48z" />
    <glyph glyph-name="uni2196" unicode="&#x2196;" horiz-adv-x="745" 
d="M536 38l-325 363l-21 -217h-68l35 333l332 1l-7 -67h-214l324 -362z" />
    <glyph glyph-name="uni2197" unicode="&#x2197;" horiz-adv-x="745" 
d="M158 36l-46 51l401 362l-217 -1l7 68h334l-35 -332h-67l22 214z" />
    <glyph glyph-name="uni2198" unicode="&#x2198;" horiz-adv-x="745" 
d="M255 42l7 68h214l-325 362l57 51l324 -363l22 217h68l-35 -334z" />
    <glyph glyph-name="uni2199" unicode="&#x2199;" horiz-adv-x="745" 
d="M107 46l35 332h67l-22 -214l400 362l45 -51l-401 -362l217 1l-7 -68h-334z" />
    <glyph glyph-name="partialdiff" unicode="&#x2202;" horiz-adv-x="560" 
d="M196 -13q-69 0 -110 43t-41 140q0 114 63 189t175 75q57 0 135 -21q-18 190 -197 244l27 63q124 -32 187.5 -120t63.5 -223q0 -67 -18.5 -133.5t-54 -125t-95.5 -95t-135 -36.5zM200 50q56 0 99.5 29t68 76t37 96.5t14.5 100.5q-102 20 -144 20q-76 0 -115 -59t-39 -140
q0 -59 20.5 -91t58.5 -32z" />
    <glyph glyph-name="Delta" unicode="&#x2206;" horiz-adv-x="643" 
d="M42 68h435l-120 538l-12 61l-28 -61zM-74 0l365 707h118l166 -707h-649z" />
    <glyph glyph-name="product" unicode="&#x220f;" horiz-adv-x="706" 
d="M55 -219l90 859h-100l7 67h697l-7 -67h-101l-90 -859h-83l90 859h-330l-90 -859h-83z" />
    <glyph glyph-name="summation" unicode="&#x2211;" horiz-adv-x="499" 
d="M-18 -220l6 61l226 402l-143 402l6 62h448l-7 -68h-369l145 -394l-225 -394h366l-7 -71h-446z" />
    <glyph glyph-name="minus" unicode="&#x2212;" horiz-adv-x="468" 
d="M5 319l6 68h389l-8 -68h-387z" />
    <glyph glyph-name="radical" unicode="&#x221a;" horiz-adv-x="615" 
d="M251 0l-74 478h-134l6 68h199l69 -484l309 775h75l-338 -837h-112z" />
    <glyph glyph-name="infinity" unicode="&#x221e;" horiz-adv-x="942" 
d="M223 193q-68 0 -108 34.5t-40 100.5q0 80 52.5 130.5t132.5 50.5q23 0 46.5 -6t40.5 -12.5t41 -22t36 -24t38.5 -29t34.5 -26.5q9 5 46 30t54 34.5t48.5 26t59 23t54.5 6.5q67 0 109 -34.5t42 -99.5q0 -79 -54.5 -129.5t-134.5 -50.5q-23 0 -47 6.5t-39 11.5t-43 23.5
t-35 23t-39.5 30t-33.5 26.5q-8 -5 -37.5 -25t-43.5 -29t-42 -25t-47 -23.5t-44 -14t-47 -6.5zM235 254q16 0 35 5.5t34.5 11.5t37.5 19t33.5 20t34 22l28.5 19q-2 1 -26 19.5t-31 24t-29 19.5t-34.5 19.5t-31 11t-34.5 5.5q-48 0 -79.5 -31.5t-31.5 -79.5q0 -41 26 -63
t68 -22zM732 254q48 0 79.5 31.5t31.5 79.5q0 41 -26.5 63t-68.5 22q-12 0 -26.5 -3t-26 -6.5t-28.5 -12l-26 -13t-27.5 -16t-24.5 -15.5t-25 -17t-21 -14q3 -2 26.5 -20t31.5 -23.5t29.5 -19.5t34.5 -19.5t32 -11t35 -5.5z" />
    <glyph glyph-name="integral" unicode="&#x222b;" horiz-adv-x="433" 
d="M-90 -231l1 65q8 1 30 2.5t30.5 3t27 4t26.5 6.5l22 11t21 16.5t15.5 22.5t13 30.5t6.5 39.5l57 548q4 40 15.5 71.5t25.5 52t36.5 35.5t42.5 23t49 12.5t51 5.5t54 1l-2 -67q-11 -1 -34 -3t-34 -3.5t-30 -5t-29 -9t-23.5 -15t-21 -22t-13.5 -32t-9 -43.5l-58 -550
q-5 -46 -18 -80t-34 -55.5t-43.5 -35t-54.5 -19.5t-57.5 -8t-62.5 -2z" />
    <glyph glyph-name="approxequal" unicode="&#x2248;" horiz-adv-x="600" 
d="M387 133q-54 0 -115 31.5t-95 31.5q-43 0 -92 -31l-32 50q66 56 138 56q52 0 108.5 -31t96.5 -31q44 0 91 33l37 -45q-66 -64 -137 -64zM410 344q-54 0 -115.5 31.5t-95.5 31.5q-43 0 -92 -31l-31 50q66 56 137 56q53 0 109 -31t97 -31t90 33l37 -45q-66 -64 -136 -64z
" />
    <glyph glyph-name="notequal" unicode="&#x2260;" horiz-adv-x="600" 
d="M14 11l138 155h-115l7 66h166l129 144h-279l6 66h331l126 139h66l-125 -139h98l-6 -66h-149l-128 -144h262l-8 -66h-312l-138 -155h-69z" />
    <glyph glyph-name="lessequal" unicode="&#x2264;" horiz-adv-x="600" 
d="M498 144l-410 159l10 101l445 159l-8 -74l-387 -136l358 -135zM50 0l8 69h438l-8 -69h-438z" />
    <glyph glyph-name="greaterequal" unicode="&#x2265;" horiz-adv-x="600" 
d="M70 144l8 74l387 135l-358 136l8 74l411 -159l-11 -101zM50 0l8 69h437l-7 -69h-438z" />
    <glyph glyph-name="uni231A" unicode="&#x231a;" horiz-adv-x="786" 
d="M754 354q0 -150 -106 -255.5t-255 -105.5t-255 105.5t-106 255.5q0 149 106 255t255 106t255 -106t106 -255zM712 354q0 133 -93 226t-226 93t-226 -93t-93 -226t93 -226t226 -93t226 93t93 226zM557 601l-20 -25l-26 15l15 31zM660 488l-32 -15l-15 27l26 20zM690 341
h-30v31h30v-31zM277 591l-26 -16l-20 26l31 21zM659 225l-21 -31l-26 20l15 26zM410 340h-200v33h167v263h33v-296zM175 500l-15 -27l-31 15l20 32zM557 112l-32 -19l-15 30l27 15zM409 61h-30v32h30v-32zM129 341h-31v31h31v-31zM176 214l-27 -20l-20 31l32 15zM277 123
l-15 -30l-31 19l20 26z" />
    <glyph glyph-name="uni235F" unicode="&#x235f;" horiz-adv-x="666" 
d="M616 333q0 -115 -81.5 -196.5t-196.5 -81.5t-196.5 81.5t-81.5 196.5t81.5 196.5t196.5 81.5q116 0 197 -81.5t81 -196.5zM491 385l-128 -10l-30 124l-30 -124l-127 10l109 -67l-49 -118l97 84l98 -84l-50 118z" />
    <glyph glyph-name="uni24BB" unicode="&#x24bb;" horiz-adv-x="793" 
d="M761 354q0 -151 -106.5 -258t-256.5 -107q-151 0 -258 107t-107 258t107 258t257 107q151 0 257.5 -107t106.5 -258zM705 354q0 128 -90 218t-217 90q-128 0 -218.5 -90t-90.5 -218t90.5 -218t217.5 -90q128 0 218 90t90 218zM491 458h-136v-96h128v-39h-128v-116h-51
v292h187v-41z" />
    <glyph glyph-name="uni24C2" unicode="&#x24c2;" horiz-adv-x="793" 
d="M233 207v292h70l91 -251l102 251h65v-292h-51v178l3 43l-89 -221h-64l-80 222l4 -40v-182h-51zM398 -11q-151 0 -258 107t-107 258t107 258t257 107q151 0 257.5 -107t106.5 -258t-106.5 -258t-256.5 -107zM397 46q128 0 218 90t90 218t-90 218t-217 90
q-128 0 -218.5 -90t-90.5 -218t90.5 -218t217.5 -90z" />
    <glyph glyph-name="uni24C9" unicode="&#x24c9;" horiz-adv-x="793" 
d="M761 353q0 -151 -106.5 -257.5t-256.5 -106.5q-151 0 -258 106.5t-107 257.5t107 258t257 107q151 0 257.5 -107t106.5 -258zM705 353q0 128 -90 218t-217 90q-128 0 -218.5 -90t-90.5 -218q0 -127 90.5 -217.5t217.5 -90.5q128 0 218 90t90 218zM518 456h-96v-250h-51
v250h-97v42h244v-42z" />
    <glyph glyph-name="uni24CA" unicode="&#x24ca;" horiz-adv-x="817" 
d="M400 -91q-162 0 -253.5 100t-91.5 266t100 264t264 98q165 0 254 -101t89 -263q0 -165 -97 -264.5t-265 -99.5zM403 -37q145 0 221 86.5t76 224.5q0 136 -77 222.5t-213 86.5q-140 0 -216 -85.5t-76 -221.5q0 -133 74 -223t211 -90zM577 279q0 -211 -163 -211
q-166 0 -166 192v174h63v-168q0 -78 24.5 -110.5t77.5 -32.5q56 0 79 36t23 124v151h62v-155z" />
    <glyph glyph-name="uni24CC" unicode="&#x24cc;" horiz-adv-x="793" 
d="M761 352q0 -151 -106.5 -258t-256.5 -107q-151 0 -258 107t-107 258q0 150 107 257t257 107q151 0 257.5 -107t106.5 -257zM705 352q0 128 -90 218t-217 90q-128 0 -218.5 -90t-90.5 -218t90 -218.5t218 -90.5t218 90.5t90 218.5zM607 496l-91 -292h-66l-43 121l-13 44
l-16 -43l-48 -122h-68l-75 292h51l50 -201l11 -58l22 59l52 127l-25 73h51l67 -202l17 -56l16 59l59 199h49z" />
    <glyph glyph-name="uni25A0" unicode="&#x25a0;" horiz-adv-x="800" 
d="M24 13l71 681h680l-71 -681h-680z" />
    <glyph glyph-name="uni25A1" unicode="&#x25a1;" horiz-adv-x="800" 
d="M24 13l71 681h680l-71 -681h-680zM101 83h540l57 541h-540z" />
    <glyph glyph-name="uni25AA" unicode="&#x25aa;" horiz-adv-x="766" 
d="M81 0l57 547h546l-57 -547h-546z" />
    <glyph glyph-name="uni25AB" unicode="&#x25ab;" horiz-adv-x="766" 
d="M81 0l57 547h546l-57 -547h-546zM164 76h395l42 396h-395z" />
    <glyph glyph-name="uni25B6" unicode="&#x25b6;" horiz-adv-x="665" 
d="M74 -41l71 670l500 -335z" />
    <glyph glyph-name="uni25B7" unicode="&#x25b7;" horiz-adv-x="665" 
d="M74 -41l71 670l500 -335zM165 93l357 200l-314 205z" />
    <glyph glyph-name="uni25B8" unicode="&#x25b8;" horiz-adv-x="465" 
d="M444 273l-370 -335l71 670z" />
    <glyph glyph-name="uni25B9" unicode="&#x25b9;" horiz-adv-x="465" 
d="M444 273l-370 -335l71 670zM334 273l-131 146l-30 -292z" />
    <glyph glyph-name="uni25BA" unicode="&#x25ba;" horiz-adv-x="1013" 
d="M1013 273l-939 -335l71 670z" />
    <glyph glyph-name="uni25BB" unicode="&#x25bb;" horiz-adv-x="1013" 
d="M1013 273l-939 -335l71 670zM801 273l-588 219l-47 -438z" />
    <glyph glyph-name="uni25C0" unicode="&#x25c0;" horiz-adv-x="665" 
d="M519 -41l-499 335l570 335z" />
    <glyph glyph-name="uni25C1" unicode="&#x25c1;" horiz-adv-x="665" 
d="M519 -41l-499 335l570 335zM456 93l43 405l-357 -205z" />
    <glyph glyph-name="uni25C2" unicode="&#x25c2;" horiz-adv-x="464" 
d="M318 -62l-298 336l369 334z" />
    <glyph glyph-name="uni25C3" unicode="&#x25c3;" horiz-adv-x="464" 
d="M318 -62l-298 336l369 334zM261 127l30 292l-161 -146z" />
    <glyph glyph-name="uni25C4" unicode="&#x25c4;" horiz-adv-x="1013" 
d="M867 -62l-867 334l938 336z" />
    <glyph glyph-name="uni25C5" unicode="&#x25c5;" horiz-adv-x="1013" 
d="M867 -62l-867 334l938 336zM799 54l47 438l-635 -220z" />
    <glyph glyph-name="uni25C6" unicode="&#x25c6;" horiz-adv-x="510" 
d="M236 172l-156 175l192 174l1 1l157 -175z" />
    <glyph glyph-name="uni25C9" unicode="&#x25c9;" horiz-adv-x="891" 
d="M800 353q0 -145 -104 -249q-104 -105 -250 -105q-148 0 -251 105q-104 104 -104 249q0 147 104 251t251 104q146 0 250 -104t104 -251zM747 353q0 126 -88 214q-87 87 -213 87q-127 0 -214 -87t-87 -214q0 -125 87 -212q89 -89 214 -89q126 0 213 89q88 87 88 212z
M602 353q0 -64 -46 -110q-45 -45 -110 -45q-66 0 -111 45q-46 46 -46 110q0 65 46 111t111 46q64 0 110 -46t46 -111z" />
    <glyph glyph-name="lozenge" unicode="&#x25ca;" horiz-adv-x="541" 
d="M173 0l-149 357l229 351h112l149 -354l-231 -354h-110zM233 54l192 296l-121 304l-192 -296z" />
    <glyph glyph-name="uni25CB" unicode="&#x25cb;" horiz-adv-x="737" 
d="M368 -7q-117 0 -200 83t-83 200q0 118 82.5 200.5t200.5 82.5t200.5 -82.5t82.5 -200.5q0 -117 -83 -200t-200 -83zM368 73q85 0 145 59t60 144t-60 145t-145 60t-145 -60t-60 -145t60 -144t145 -59z" />
    <glyph glyph-name="uni25CE" unicode="&#x25ce;" horiz-adv-x="891" 
d="M799 361q0 -146 -104 -249q-103 -104 -249 -104q-147 0 -250 104q-104 102 -104 249t104 250q103 104 250 104t249 -104q104 -103 104 -250zM743 361q0 122 -87 211q-88 86 -210 86q-124 0 -211 -86q-86 -87 -86 -211q0 -122 86 -210q90 -87 211 -87t210 87q87 87 87 210
zM655 361q0 -85 -62 -147q-60 -61 -147 -61t-148 61t-61 147q0 87 61 148t148 61t147 -61q62 -62 62 -148zM598 361q0 63 -44 109q-46 44 -108 44q-64 0 -108 -44q-45 -45 -45 -109q0 -63 45 -108q44 -44 108 -44q62 0 108 44q44 46 44 108zM510 361q0 -27 -19 -45
q-18 -19 -45 -19t-45 19q-19 19 -19 45q0 27 19 45q17 20 45 20q26 0 45 -20q19 -18 19 -45z" />
    <glyph glyph-name="uni25CF" unicode="&#x25cf;" horiz-adv-x="766" 
d="M382 -5q-115 0 -197 81.5t-82 196.5t81.5 196.5t197.5 81.5q115 0 196.5 -81.5t81.5 -196.5t-81.5 -196.5t-196.5 -81.5z" />
    <glyph glyph-name="uni25EF" unicode="&#x25ef;" horiz-adv-x="887" 
d="M444 -5q-149 0 -254 105t-105 254t105 254t254 105q148 0 253 -105t105 -254t-105 -254t-253 -105zM444 74q116 0 198 82t82 198t-82 198t-198 82t-198.5 -82t-81.5 -198q-1 -116 81.5 -198t198.5 -82z" />
    <glyph glyph-name="uni2605" unicode="&#x2605;" horiz-adv-x="585" 
d="M100 105l94 195l-161 116l207 -8l77 201l36 -201l209 8l-185 -116l51 -195l-150 129z" />
    <glyph glyph-name="uni260F" unicode="&#x260f;" horiz-adv-x="658" 
d="M608 125q-89 -85 -126 -97q-16 -6 -42 4q-117 45 -250 231q-78 112 -107 182q-30 74 -33 129q5 32 10 40q12 19 57 51t72 45l102 -178l-64 -47l186 -259l58 50zM542 129l-73 80l-50 -44q-13 -13 -29 11l-219 305q-8 9 -6.5 17.5t8.5 11.5l51 43l-56 90
q-22 -12 -45.5 -41.5t-20.5 -52.5q19 -113 125 -258q125 -166 211 -207q20 -9 51 7.5t53 37.5z" />
    <glyph glyph-name="uni2610" unicode="&#x2610;" horiz-adv-x="800" 
d="M60 13v681h680v-681h-680zM111 65h578v577h-578v-577z" />
    <glyph glyph-name="uni2611" unicode="&#x2611;" horiz-adv-x="800" 
d="M60 13v681h680v-681h-680zM111 65h578v577h-578v-577zM521 526q10 14 36.5 27.5t49.5 15.5l8 -9q-187 -276 -316 -412h-21q-26 20 -53 101t-23 104q28 36 49 42l22 -7q3 -101 36 -164q51 59 212 302z" />
    <glyph glyph-name="uni2612" unicode="&#x2612;" horiz-adv-x="766" 
d="M110 0v547h546v-547h-546zM383 314l156 155h-312zM229 78h314l-160 154zM188 118l154 155l-154 155v-310zM578 123v305l-154 -155z" />
    <glyph glyph-name="uni261A" unicode="&#x261a;" horiz-adv-x="765" 
d="M715 97h-67q-11 0 -38.5 -21t-54.5 -21h-188q-39 0 -60.5 20.5t-21.5 51.5q0 9 3 18q-21 7 -34 26t-13 41q0 14 8 32q-15 16 -15 42q0 11 6 27h-116q-35 0 -54.5 21t-19.5 50q0 30 21.5 52.5t60.5 22.5h263l-45 42q-30 29 -30 59q0 43 59 100l237 -190h98z" />
    <glyph glyph-name="uni261B" unicode="&#x261b;" horiz-adv-x="765" 
d="M715 384q0 -29 -19.5 -50t-54.5 -21h-116q6 -16 6 -27q0 -24 -15 -42q8 -18 8 -32q0 -22 -13 -41t-34 -26q3 -9 3 -18q0 -31 -21.5 -51.5t-60.5 -20.5h-188q-27 0 -54.5 21t-38.5 21h-67l1 373h98l237 190q59 -57 59 -100q0 -30 -30 -59l-45 -42h263q39 0 60.5 -22.5
t21.5 -52.5z" />
    <glyph glyph-name="uni261C" unicode="&#x261c;" horiz-adv-x="765" 
d="M715 97h-67q-11 0 -38.5 -21t-54.5 -21h-188q-39 0 -60.5 20.5t-21.5 51.5q0 9 3 18q-21 7 -34 26t-13 41q0 14 8 32q-15 16 -15 42q0 11 6 27h-116q-35 0 -54.5 21t-19.5 50q0 30 21.5 52.5t60.5 22.5h263l-45 42q-30 29 -30 59q0 43 59 100l237 -190h98v-38h-112
l-222 178q-20 -20 -20 -43q0 -29 29 -53l108 -93h-365q-21 0 -32.5 -10.5t-11.5 -25.5q0 -14 9.5 -24t26.5 -10h334v-38h-178q-8 -14 -8 -22q0 -9 7 -17.5t22 -8.5h157v-38h-175q-5 -6 -5 -22q0 -26 47 -26h133v-38h-131q-4 -4 -4 -16q0 -14 14 -23t30 -9h188q18 0 44 21
t49 21h67v-38z" />
    <glyph glyph-name="uni261D" unicode="&#x261d;" horiz-adv-x="705" 
d="M655 361l-190 -237v-124h-38v138l178 222q-20 20 -43 20q-29 0 -53 -29l-93 -108v365q0 21 -10.5 32.5t-25.5 11.5q-14 0 -24 -9.5t-10 -26.5v-334h-38v178q-14 8 -22 8q-9 0 -17.5 -7t-8.5 -22v-157h-38v175q-6 5 -22 5q-26 0 -26 -47v-133h-38v130q-4 5 -16 5
q-14 0 -23 -14t-9 -30v-188q0 -18 21 -44t21 -49v-93h-38v93q0 11 -21 38.5t-21 54.5v188q0 39 20.5 60.5t51.5 21.5q9 0 18 -3q7 21 26 34t41 13q14 0 32 -8q18 15 42 15q11 0 27 -6v116q0 35 21 54.5t50 19.5q30 0 52.5 -21.5t22.5 -60.5v-263l42 45q28 30 59 30
q43 0 100 -59z" />
    <glyph glyph-name="uni261E" unicode="&#x261e;" horiz-adv-x="765" 
d="M715 384q0 -29 -19.5 -50t-54.5 -21h-116q6 -16 6 -27q0 -24 -15 -42q8 -18 8 -32q0 -22 -13 -41t-34 -26q3 -9 3 -18q0 -31 -21.5 -51.5t-60.5 -20.5h-188q-27 0 -54.5 21t-38.5 21h-67v38h67q23 0 49 -21t44 -21h188q16 0 30 9t14 23q0 12 -5 16h-130v38h133
q47 0 47 26q0 16 -5 22h-175v38h157q15 0 22 8.5t7 17.5q0 8 -8 22h-178v38h334q17 0 26.5 10t9.5 24q0 15 -11.5 25.5t-32.5 10.5h-365l108 93q29 24 29 53q0 23 -20 43l-222 -178h-112v38h98l237 190q59 -57 59 -100q0 -30 -30 -59l-45 -42h263q39 0 60.5 -22.5
t21.5 -52.5z" />
    <glyph glyph-name="uni261F" unicode="&#x261f;" horiz-adv-x="705" 
d="M655 361l-190 -237v-124h-38v138l178 222q-20 20 -43 20q-29 0 -53 -29l-93 -108v160q0 44 -26 44q-14 0 -24 -9.5t-10 -26.5v-129h-38v337q0 17 -9.5 27.5t-21.5 10.5t-19.5 -10.5t-7.5 -27.5v-337h-38v161q-6 5 -22 5q-15 0 -20.5 -6t-5.5 -27v-133h-38v130q-4 5 -16 5
q-14 0 -23 -14t-9 -30v-188q0 -18 21 -44t21 -49v-93h-38v93q0 11 -21 38.5t-21 54.5v188q0 39 20.5 60.5t51.5 21.5q9 0 18 -3q20 33 58 33q10 0 24 -7v153q0 28 22.5 47.5t47.5 19.5q26 0 45.5 -19t19.5 -44v-156q14 6 32 6q29 0 47 -21t18 -61v-58l42 45q27 28 67 28
q22 0 42 -13t50 -44z" />
    <glyph glyph-name="uni263A" unicode="&#x263a;" horiz-adv-x="830" 
d="M415 136q-74 0 -132.5 46t-76.5 117l52 16q15 -54 58.5 -88t99.5 -34q58 0 102 35.5t56 91.5l50 -20q-16 -71 -74.5 -117.5t-134.5 -46.5zM298 397q-22 0 -37 14.5t-15 35.5t15 35.5t37 14.5q21 0 37 -14.5t16 -35.5t-16 -35.5t-37 -14.5zM415 -6q-149 0 -254 105.5
t-105 254.5t105 254t254 105t254 -105t105 -254t-105 -254.5t-254 -105.5zM415 67q119 0 203 84t84 203q0 118 -84.5 202t-202.5 84t-202.5 -84t-84.5 -202q0 -119 84 -203t203 -84zM532 397q-22 0 -37 14.5t-15 35.5t15 35.5t37 14.5q21 0 37 -14.5t16 -35.5t-16 -35.5
t-37 -14.5z" />
    <glyph glyph-name="uni2641" unicode="&#x2641;" horiz-adv-x="786" 
d="M753 354q0 -150 -105.5 -255t-254.5 -105t-254.5 105t-105.5 255q0 149 105.5 254.5t254.5 105.5t254.5 -105.5t105.5 -254.5zM202 561l-29 -21l-16 25l1 1h-2l1 -1q-82 -88 -82 -211q0 -133 92.5 -225.5t225.5 -92.5t225.5 92.5t92.5 225.5q0 33 -7 69l-5 -49l-49 -32
l17 -20l-28 -14l-10 18l-5 -1l5 -26l21 -12l-8 -7l-13 4l3 -10l11 -1l10 -19l30 -11l2 -10l-36 6l-48 51l19 -2l-27 64v16h-8l-3 -15l-27 -20v-19l-25 -6l-13 36l-9 3l1 21l-81 14l13 -21l18 5l14 -14l-14 -18l-39 -12l-34 67h-10l-1 -13l23 -48l18 -13l32 2l-54 -76l6 -6
l2 -24l-15 -15l-1 -18l-38 -46l-35 2l-27 77l8 11v19l-22 27l9 6l-22 14l-49 2l-26 27l-1 49l62 54l32 3l8 -9l-2 -13l25 -8l13 16l9 -14h40l6 6v24l-14 -24l-24 30l8 -30l-22 18l-3 19l-21 24l-4 -4l17 -20l-11 -19l-2 16l-22 17l-11 -10l-6 4l-41 -34l-14 35l26 -1l9 11
l-14 9l21 13l10 1l17 16l-5 18l10 4l6 -14l32 4l1 12l40 13l-6 7l-27 -7l-7 14l16 12l-9 10l-21 -27l8 -6l-2 -16l-20 -6l-5 12l-22 -3l2 19l36 49l44 9l60 -14l-11 -16l-23 2l15 -16l46 30h35l-20 27l23 26l33 14q-52 19 -111 19q-146 0 -235 -106l30 8zM564 625
q-40 20 -60 28l5 -11l-31 -11l-18 -23l36 -23l-6 11l22 24l45 -15zM438 219l-14 -51l-21 14l6 26l21 16zM702 277l-13 -25l-23 6l1 19l21 21zM251 496l-1 -13h-27l6 13l-15 21l12 11l6 -18zM218 491l-10 -11l-11 10l9 18zM296 419l-9 4l6 9z" />
    <glyph glyph-name="uni2661" unicode="&#x2661;" horiz-adv-x="673" 
d="M623 375q0 -74 -98 -188l-189 -223l-154 175q-58 65 -95 130t-37 106q0 82 49.5 132t112.5 50t125 -56q58 56 124 56q63 0 112.5 -50t49.5 -132zM564 375q0 59 -32.5 91t-70.5 32q-24 0 -43.5 -8.5t-35.5 -27.5t-24 -32t-22 -39q-22 42 -37 61q-39 46 -87 46
q-38 0 -70.5 -33t-32.5 -90q0 -29 31.5 -81.5t73.5 -101.5l123 -142l143 169q37 44 60.5 88t23.5 68z" />
    <glyph glyph-name="uni2665" unicode="&#x2665;" horiz-adv-x="673" 
d="M623 375q0 -74 -98 -188l-189 -223l-154 175q-58 65 -95 130t-37 106q0 82 49.5 132t112.5 50t125 -56q58 56 124 56q63 0 112.5 -50t49.5 -132z" />
    <glyph glyph-name="uni267E" unicode="&#x267e;" horiz-adv-x="817" 
d="M400 -91q-162 0 -253.5 100t-91.5 266t100 264t264 98q165 0 254 -101t89 -263q0 -165 -97 -264.5t-265 -99.5zM403 -37q145 0 221 86.5t76 224.5q0 136 -77 222.5t-213 86.5q-140 0 -216 -85.5t-76 -221.5q0 -133 74 -223t211 -90zM298 145q-45 0 -71 39t-26 87
q0 47 27 86.5t70 39.5q24 0 47 -16t34.5 -30.5t31.5 -44.5q61 91 113 91q44 0 71 -39.5t27 -86.5q0 -49 -26 -87.5t-72 -38.5q-18 0 -34 7t-32 24t-23.5 27t-23.5 33q-61 -91 -113 -91zM522 196q21 0 35 21t14 54q0 34 -14 55.5t-35 21.5q-31 0 -86 -77q17 -22 27 -34
t28 -26.5t31 -14.5zM301 196q34 0 87 76q-56 76 -87 76q-24 0 -35.5 -23t-11.5 -54q0 -29 13.5 -52t33.5 -23z" />
    <glyph glyph-name="uni2708" unicode="&#x2708;" horiz-adv-x="786" 
d="M754 354q0 -149 -106 -255t-255 -106t-255 106t-106 255t106 255t255 106t255 -106t106 -255zM712 354q0 133 -93 226t-226 93t-226 -93t-93 -226t93 -226t226 -93t226 93t93 226zM572 512q0 -15 -8 -25l-79 -87l85 -187l-43 -45l-115 161l-74 -76l14 -103l-36 -12
l-44 96l-97 41l5 37l109 -13l74 77l-163 108l43 45l188 -78l86 81q10 10 23 10q14 0 23 -9t9 -21z" />
    <glyph glyph-name="uni2709" unicode="&#x2709;" horiz-adv-x="756" 
d="M706 51h-656v484h656v-484zM665 116v351l-186 -168zM642 495h-524l263 -227zM637 89l-190 182l-32 -31q-13 -13 -38 -13q-19 0 -37 17l-33 29l-190 -184h520zM278 300l-189 163v-351z" />
    <glyph glyph-name="uni270E" unicode="&#x270e;" horiz-adv-x="764" 
d="M714 498l-377 -380l-287 -108l111 278l383 380zM586 571l-45 41l-316 -320l45 -42zM657 496l-45 45l-316 -320l45 -46zM316 148l-121 118l-53 -123l43 -46z" />
    <glyph glyph-name="uni2713" unicode="&#x2713;" horiz-adv-x="683" 
d="M521 526q10 14 36.5 27.5t49.5 15.5l8 -9q-187 -276 -316 -412h-21q-26 20 -53 101t-23 104q28 36 49 42l22 -7q3 -101 36 -164q51 59 212 302z" />
    <glyph glyph-name="uni2740" unicode="&#x2740;" horiz-adv-x="434" 
d="M384 211l-137 -206v-5h-59v3l-138 208q16 4 37 4q29 0 50 -11q41 -24 51 -108v156q-42 12 -66 43.5t-24 72.5q0 22 0.5 102t0.5 102l71 -45l44 47l47 -48l74 46v-204q0 -41 -23.5 -72t-64.5 -43v-149q9 76 50 100q21 11 50 11zM282 368v112l-20 -20l-47 48l-45 -49
l-19 20v-111q0 -27 19 -46t46 -19t46.5 19t19.5 46z" />
    <glyph glyph-name="uni2780" unicode="&#x2780;" horiz-adv-x="840" 
d="M420 -5q-149 0 -254.5 105t-105.5 254t105.5 254t254.5 105t254.5 -105t105.5 -254q0 -148 -105.5 -253.5t-254.5 -105.5zM420 48q127 0 216.5 89.5t89.5 216.5t-89.5 216.5t-216.5 89.5t-216.5 -89.5t-89.5 -216.5t89.5 -216.5t216.5 -89.5zM401 182v312h-89v53l157 4
v-369h-68z" />
    <glyph glyph-name="uni2781" unicode="&#x2781;" horiz-adv-x="840" 
d="M287 192v51q10 8 33 24.5t33 24t29 22t28 22.5t22.5 21t20.5 22.5t14 21.5t10 23t3 23q0 29 -18 44t-45 15q-55 0 -89 -34l-28 42q47 49 123 49q53 0 88 -29.5t35 -80.5q0 -27 -12 -53.5t-26.5 -45t-43 -41t-45 -34t-49.5 -31.5h181v-56h-264zM420 -5q-149 0 -254.5 105
t-105.5 254t105.5 254t254.5 105t254.5 -105t105.5 -254q0 -148 -105.5 -253.5t-254.5 -105.5zM420 48q127 0 216.5 89.5t89.5 216.5t-89.5 216.5t-216.5 89.5t-216.5 -89.5t-89.5 -216.5t89.5 -216.5t216.5 -89.5z" />
    <glyph glyph-name="uni2782" unicode="&#x2782;" horiz-adv-x="840" 
d="M410 173q-54 0 -107 16l14 51q52 -13 87 -13q84 0 84 55q0 36 -26 50t-83 18v39q92 8 92 65q0 20 -17.5 32t-43.5 12q-34 0 -70 -17l-17 43q44 26 98 26q50 0 82.5 -24t32.5 -65q0 -28 -16 -51t-45 -35q38 -8 59 -33.5t21 -58.5q0 -56 -42 -83t-103 -27zM420 -5
q-149 0 -254.5 105t-105.5 254t105.5 254t254.5 105t254.5 -105t105.5 -254q0 -148 -105.5 -253.5t-254.5 -105.5zM420 48q127 0 216.5 89.5t89.5 216.5t-89.5 216.5t-216.5 89.5t-216.5 -89.5t-89.5 -216.5t89.5 -216.5t216.5 -89.5z" />
    <glyph glyph-name="uni2783" unicode="&#x2783;" horiz-adv-x="840" 
d="M420 -5q-149 0 -254.5 105t-105.5 254t105.5 254t254.5 105t254.5 -105t105.5 -254q0 -148 -105.5 -253.5t-254.5 -105.5zM420 48q127 0 216.5 89.5t89.5 216.5t-89.5 216.5t-216.5 89.5t-216.5 -89.5t-89.5 -216.5t89.5 -216.5t216.5 -89.5zM421 182v88h-168v57l132 220
h101v-225h62v-52h-62v-88h-65zM305 322h116v188z" />
    <glyph glyph-name="uni2784" unicode="&#x2784;" horiz-adv-x="840" 
d="M420 -5q-149 0 -254.5 105t-105.5 254t105.5 254t254.5 105t254.5 -105t105.5 -254q0 -148 -105.5 -253.5t-254.5 -105.5zM420 48q127 0 216.5 89.5t89.5 216.5t-89.5 216.5t-216.5 89.5t-216.5 -89.5t-89.5 -216.5t89.5 -216.5t216.5 -89.5zM409 163q-48 0 -104 14
l16 51q51 -13 87 -13q33 0 52 18t19 46q0 32 -19.5 48.5t-52.5 16.5q-37 0 -87 -5v198h216v-53h-154v-89h37q58 0 93 -28.5t35 -81.5q0 -56 -39 -89t-99 -33z" />
    <glyph glyph-name="uni2785" unicode="&#x2785;" horiz-adv-x="840" 
d="M420 -5q-149 0 -254.5 105t-105.5 254t105.5 254t254.5 105t254.5 -105t105.5 -254q0 -148 -105.5 -253.5t-254.5 -105.5zM420 48q127 0 216.5 89.5t89.5 216.5t-89.5 216.5t-216.5 89.5t-216.5 -89.5t-89.5 -216.5t89.5 -216.5t216.5 -89.5zM414 172q-70 0 -104.5 36.5
t-34.5 125.5q0 100 48.5 158t126.5 58q37 0 78 -12l-16 -52q-32 9 -65 9q-39 0 -66 -27.5t-35 -78.5q36 17 77 17q58 0 90.5 -27.5t32.5 -81.5q0 -60 -37.5 -92.5t-94.5 -32.5zM417 223q26 0 43 19.5t17 49.5q0 32 -17.5 49.5t-44.5 17.5q-34 0 -70 -13q0 -72 15 -97.5
t57 -25.5z" />
    <glyph glyph-name="uni2786" unicode="&#x2786;" horiz-adv-x="840" 
d="M420 -5q-149 0 -254.5 105t-105.5 254t105.5 254t254.5 105t254.5 -105t105.5 -254q0 -148 -105.5 -253.5t-254.5 -105.5zM420 48q127 0 216.5 89.5t89.5 216.5t-89.5 216.5t-216.5 89.5t-216.5 -89.5t-89.5 -216.5t89.5 -216.5t216.5 -89.5zM383 149l-63 21l169 297
h-190v60h258v-51z" />
    <glyph glyph-name="uni2787" unicode="&#x2787;" horiz-adv-x="840" 
d="M416 166q-137 0 -137 98q0 58 69 103q-56 31 -56 82q0 44 37 69t92 25q59 0 92.5 -24t33.5 -64q0 -54 -70 -90q81 -39 81 -94q0 -52 -38.5 -78.5t-103.5 -26.5zM418 213q32 0 52 16t20 46q0 29 -85 64q-7 3 -11 5q-49 -29 -49 -73q0 -58 73 -58zM420 -5
q-149 0 -254.5 105t-105.5 254t105.5 254t254.5 105t254.5 -105t105.5 -254q0 -148 -105.5 -253.5t-254.5 -105.5zM420 48q127 0 216.5 89.5t89.5 216.5t-89.5 216.5t-216.5 89.5t-216.5 -89.5t-89.5 -216.5t89.5 -216.5t216.5 -89.5zM428 386q51 32 51 62q0 45 -60 45
q-64 0 -64 -49q0 -12 11.5 -23t24 -17.5t37.5 -17.5z" />
    <glyph glyph-name="uni2788" unicode="&#x2788;" horiz-adv-x="840" 
d="M420 -5q-149 0 -254.5 105t-105.5 254t105.5 254t254.5 105t254.5 -105t105.5 -254q0 -148 -105.5 -253.5t-254.5 -105.5zM420 48q127 0 216.5 89.5t89.5 216.5t-89.5 216.5t-216.5 89.5t-216.5 -89.5t-89.5 -216.5t89.5 -216.5t216.5 -89.5zM385 165q-37 0 -78 12l16 52
q38 -9 64 -9q39 0 66.5 28t34.5 78q-32 -17 -76 -17q-58 0 -91 28t-33 81q0 61 38 93t94 32q70 0 105 -36.5t35 -124.5q0 -101 -49 -159t-126 -58zM420 356q28 0 70 14q-1 71 -15.5 96.5t-56.5 25.5q-27 0 -44 -19t-17 -50q0 -33 17.5 -50t45.5 -17z" />
    <glyph glyph-name="uni278A" unicode="&#x278a;" horiz-adv-x="840" 
d="M420 -5q-149 0 -254.5 105t-105.5 254t105.5 254t254.5 105t254.5 -105t105.5 -254q0 -148 -105.5 -253.5t-254.5 -105.5zM401 182h68v369l-157 -4v-53h89v-312z" />
    <glyph glyph-name="uni278B" unicode="&#x278b;" horiz-adv-x="840" 
d="M287 192h264v56h-181q33 20 49.5 31.5t45 34t43 41t26.5 45t12 53.5q0 51 -35 80.5t-88 29.5q-76 0 -123 -49l28 -42q34 34 89 34q27 0 45 -15t18 -44q0 -12 -3 -23t-10 -23t-14 -21.5t-20.5 -22.5t-22.5 -21t-28 -22.5t-29 -22t-33 -24t-33 -24.5v-51zM420 -5
q-149 0 -254.5 105t-105.5 254t105.5 254t254.5 105t254.5 -105t105.5 -254q0 -148 -105.5 -253.5t-254.5 -105.5z" />
    <glyph glyph-name="uni278C" unicode="&#x278c;" horiz-adv-x="840" 
d="M410 173q61 0 103 27t42 83q0 33 -21 58.5t-59 33.5q29 12 45 35t16 51q0 41 -32.5 65t-82.5 24q-54 0 -98 -26l17 -43q36 17 70 17q26 0 43.5 -12t17.5 -32q0 -57 -92 -65v-39q57 -4 83 -18t26 -50q0 -55 -84 -55q-35 0 -87 13l-14 -51q53 -16 107 -16zM420 -5
q-149 0 -254.5 105t-105.5 254t105.5 254t254.5 105t254.5 -105t105.5 -254q0 -148 -105.5 -253.5t-254.5 -105.5z" />
    <glyph glyph-name="uni278D" unicode="&#x278d;" horiz-adv-x="840" 
d="M420 -5q-149 0 -254.5 105t-105.5 254t105.5 254t254.5 105t254.5 -105t105.5 -254q0 -148 -105.5 -253.5t-254.5 -105.5zM421 182h65v88h62v52h-62v225h-101l-132 -220v-57h168v-88zM305 322l116 188v-188h-116z" />
    <glyph glyph-name="uni278E" unicode="&#x278e;" horiz-adv-x="840" 
d="M420 -5q-149 0 -254.5 105t-105.5 254t105.5 254t254.5 105t254.5 -105t105.5 -254q0 -148 -105.5 -253.5t-254.5 -105.5zM409 163q60 0 99 33t39 89q0 53 -35 81.5t-93 28.5h-37v89h154v53h-216v-198q50 5 87 5q33 0 52.5 -16.5t19.5 -48.5q0 -28 -19 -46t-52 -18
q-36 0 -87 13l-16 -51q56 -14 104 -14z" />
    <glyph glyph-name="uni278F" unicode="&#x278f;" horiz-adv-x="840" 
d="M420 -5q-149 0 -254.5 105t-105.5 254t105.5 254t254.5 105t254.5 -105t105.5 -254q0 -148 -105.5 -253.5t-254.5 -105.5zM414 172q57 0 94.5 32.5t37.5 92.5q0 54 -32.5 81.5t-90.5 27.5q-41 0 -77 -17q8 51 35 78.5t66 27.5q33 0 65 -9l16 52q-41 12 -78 12
q-78 0 -126.5 -58t-48.5 -158q0 -89 34.5 -125.5t104.5 -36.5zM417 223q-39 0 -56 23.5t-16 87.5v12q36 13 70 13q27 0 44.5 -17.5t17.5 -49.5q0 -30 -16.5 -49.5t-43.5 -19.5z" />
    <glyph glyph-name="uni2790" unicode="&#x2790;" horiz-adv-x="840" 
d="M420 -5q-149 0 -254.5 105t-105.5 254t105.5 254t254.5 105t254.5 -105t105.5 -254q0 -148 -105.5 -253.5t-254.5 -105.5zM383 149l174 327v51h-258v-60h190l-169 -297z" />
    <glyph glyph-name="uni2791" unicode="&#x2791;" horiz-adv-x="840" 
d="M416 166q65 0 103.5 26.5t38.5 78.5q0 55 -81 94q70 36 70 90q0 40 -33.5 64t-92.5 24q-55 0 -92 -25t-37 -69q0 -51 56 -82q-69 -45 -69 -103q0 -98 137 -98zM418 213q-73 0 -73 58q0 44 49 73q69 -29 83 -43q13 -12 13 -26q0 -30 -20 -46t-52 -16zM420 -5
q-149 0 -254.5 105t-105.5 254t105.5 254t254.5 105t254.5 -105t105.5 -254q0 -148 -105.5 -253.5t-254.5 -105.5zM428 386q-25 11 -37.5 17.5t-24 17.5t-11.5 23q0 49 64 49q60 0 60 -45q0 -30 -51 -62z" />
    <glyph glyph-name="uni2792" unicode="&#x2792;" horiz-adv-x="840" 
d="M385 165q77 0 126 58t49 159q0 88 -35 124.5t-105 36.5q-56 0 -94 -32t-38 -93q0 -53 33 -81t91 -28q44 0 76 17q-7 -50 -34.5 -78t-66.5 -28q-26 0 -64 9l-16 -52q41 -12 78 -12zM418 492q42 0 57 -26t15 -96q-42 -14 -70 -14t-45.5 17t-17.5 50q0 31 17.5 50t43.5 19z
M780 354q0 -148 -105.5 -253.5t-254.5 -105.5t-254.5 105t-105.5 254t105.5 254t254.5 105t254.5 -105t105.5 -254z" />
    <glyph glyph-name="uni2981" unicode="&#x2981;" horiz-adv-x="926" 
d="M463 -5q-149 0 -254 105t-105 254t105 254t254 105q148 0 253 -105t105 -254t-105 -254t-253 -105z" />
    <glyph glyph-name="uni301A" unicode="&#x301a;" horiz-adv-x="444" 
d="M24 -220l103 974h330l-7 -65h-102l-89 -844h102l-7 -65h-330zM196 689l-90 -844h78l89 844h-77z" />
    <glyph glyph-name="uni301B" unicode="&#x301b;" horiz-adv-x="441" 
d="M410 754l-103 -974h-330l7 65h102l89 844h-102l7 65h330zM238 -155l90 844h-78l-89 -844h77z" />
    <glyph glyph-name="uni301C" unicode="&#x301c;" horiz-adv-x="1017" 
d="M726 167q-56 0 -105.5 16.5t-87 40t-73.5 47.5t-80.5 40.5t-91.5 16.5q-64 0 -109.5 -23t-93.5 -68q-7 8 -26.5 29t-21.5 24q56 54 121.5 85t128.5 31q65 0 126.5 -25.5t102 -56t97.5 -56.5t113 -27q90 -1 203 93l49 -52q-50 -50 -119 -82.5t-133 -32.5z" />
    <glyph glyph-name="apple" unicode="&#xf8ff;" horiz-adv-x="1241" 
d="M1141 357h-10v-10h-11v10h-10v11h10v10h11v-10h10v-11zM1081 377h-11v11h11v-11zM1081 338h-11v10h11v-10zM1041 377h-11v11h11v-11zM1071 357h-10v-10h-11v10h-10v11h10v10h11v-10h10v-11zM1041 338h-11v10h11v-10zM1001 387h-10v-10h-11v11h10v10h11v-11zM1001 328h-11
v10h-10v10h11v-10h10v-10zM951 377h-11v10h-10v11h11v-10h10v-11zM981 357h-10v-10h-11v10h-10v11h10v10h11v-10h10v-11zM951 338h-10v-10h-11v10h10v10h11v-10zM911 338h-31v9h-10v31h10v10h21v-10h10v-21h-30v-9h30v-10zM900 368v9h-19v-9h19zM851 338h-31v9h-10v41h11
v-40h19v40h11v-50zM791 318h-11v20h-20v9h-10v31h10v10h31v-70zM780 348v29h-19v-29h19zM731 338h-31v9h-10v31h10v10h21v-10h10v-21h-30v-9h30v-10zM720 368v9h-19v-9h19zM671 338h-11v39h-19v-39h-11v70h11v-20h20v-10h10v-40zM611 338h-21v9h-10v30h-10v11h10v10h11v-10
h20v-11h-20v-29h20v-10zM551 347h-10v-9h-21v9h-10v31h10v10h21v-10h10v-31zM540 348v29h-19v-29h19zM491 347h-10v-9h-20v-20h-11v70h31v-10h10v-31zM480 348v29h-19v-29h19zM431 347h-10v-9h-10v-10h-10v-10h-11v11h10v18h-10v41h11v-40h19v40h11v-41zM371 338h-21v9h-10
v30h-10v11h10v10h11v-10h20v-11h-20v-29h20v-10zM311 387h-10v-10h-11v11h10v10h11v-11zM311 328h-11v10h-10v10h11v-10h10v-10zM261 377h-11v10h-10v11h11v-10h10v-11zM291 357h-10v-10h-11v10h-10v11h10v10h11v-10h10v-11zM261 338h-10v-10h-11v10h10v10h11v-10zM211 377
h-11v11h11v-11zM211 338h-11v10h11v-10zM171 377h-11v11h11v-11zM201 357h-10v-10h-11v10h-10v11h10v10h11v-10h10v-11zM171 338h-11v10h11v-10zM131 357h-10v-10h-11v10h-10v11h10v10h11v-10h10v-11z" />
    <glyph glyph-name="Q.alt" horiz-adv-x="801" 
d="M731 -157l-381 64l6 62l383 -59zM359 -11q-143 0 -221 85.5t-78 232.5q0 184 104.5 297.5t285.5 113.5q143 0 222 -85.5t79 -232.5q0 -185 -105 -298t-287 -113zM369 55q143 0 221 97t78 245q0 116 -59 184.5t-171 68.5q-141 0 -219 -95.5t-78 -242.5q0 -116 58 -186.5
t170 -70.5z" />
    <glyph glyph-name="uni004A0301" horiz-adv-x="279" 
d="M142 737l-16 54l229 80l19 -70zM-62 -187l-27 59q91 48 126.5 108.5t47.5 170.5l58 556h79l-58 -554q-13 -129 -63 -210.5t-163 -129.5z" />
    <glyph glyph-name="uni006A0301" horiz-adv-x="233" 
d="M121 618l-30 48l186 135l38 -60zM-76 -220q-41 0 -75 13l19 65q36 -11 65 -11q58 0 81 33.5t30 102.5l60 563h76l-60 -564q-11 -111 -61.5 -156.5t-134.5 -45.5z" />
    <glyph glyph-name="questiondown.cap" horiz-adv-x="352" 
d="M259 -3q-91 7 -157.5 52t-66.5 129q0 44 18 80t44.5 61t53.5 47.5t48 51t25 59.5q3 20 -1 57l69 9q6 -24 6 -50q0 -43 -19 -81t-45.5 -64.5t-53.5 -50.5t-46 -52t-19 -57q0 -57 51 -88.5t115 -37.5zM220 621l8 85h87l-8 -85h-87z" />
    <glyph glyph-name="question.smcp" horiz-adv-x="340" 
d="M78 168q-6 28 -6 43q0 42 24 80t52 61t52 52.5t24 55.5q0 19 -10.5 34.5t-23 24.5t-35.5 16.5t-35.5 10.5t-35.5 7l24 68q49 -6 90.5 -21.5t74 -51t32.5 -83.5q0 -43 -25 -78.5t-54.5 -57t-54.5 -54t-25 -69.5q0 -7 2 -23zM51 0l9 85h87l-9 -85h-87z" />
    <glyph glyph-name="questiondown.smcp" horiz-adv-x="301" 
d="M261 546l-8 -85h-87l9 85h86zM241 335q0 -34 -15.5 -65t-38 -53.5t-45 -43.5t-38 -43t-15.5 -44q0 -19 10.5 -34.5t23 -24.5t35.5 -16.5t35.5 -10.5t35.5 -7l-24 -68q-49 6 -90.5 21.5t-74 51t-32.5 83.5q0 43 25 78.5t54.5 57t54.5 54t25 69.5q0 7 -2 23l70 15
q6 -28 6 -43z" />
    <glyph glyph-name="exclamdown.cap" horiz-adv-x="269" 
d="M65 0l42 399l18 138h67l-10 -138l-43 -399h-74zM125 622l8 85h87l-9 -85h-86z" />
    <glyph glyph-name="exclam.smcp" horiz-adv-x="283" 
d="M94 170l10 138l32 299h75l-32 -299l-17 -138h-68zM66 0l9 85h87l-9 -85h-87z" />
    <glyph glyph-name="exclamdown.smcp" horiz-adv-x="244" 
d="M46 -61l31 299l18 138h68l-10 -138l-32 -299h-75zM96 461l8 85h87l-9 -85h-86z" />
    <glyph glyph-name="uni203D.smcp" horiz-adv-x="355" 
d="M90 170l10 128l18 164h70l-12 -107q28 21 40 32.5t21.5 28.5t9.5 38q0 84 -151 99l23 66q200 -15 200 -156q0 -28 -13.5 -54t-39.5 -49t-46.5 -38t-50.5 -33l-15 -119h-64zM63 0l9 85h87l-9 -85h-87z" />
    <glyph glyph-name="hyphen.cap" horiz-adv-x="474" 
d="M87 316l8 68h298l-8 -68h-298z" />
    <glyph glyph-name="endash.cap" horiz-adv-x="615" 
d="M88 317l6 66h440l-6 -66h-440z" />
    <glyph glyph-name="emdash.cap" horiz-adv-x="873" 
d="M88 317l6 66h698l-6 -66h-698z" />
    <glyph glyph-name="slash.smcp" horiz-adv-x="321" 
d="M-8 -62l261 678h70l-260 -678h-71z" />
    <glyph glyph-name="backslash.smcp" horiz-adv-x="323" 
d="M183 -62l-119 678h70l120 -678h-71z" />
    <glyph glyph-name="parenleft.cap" horiz-adv-x="337" 
d="M217 -153q-81 66 -125.5 187t-44.5 235q0 102 30 210.5t94.5 207.5t150.5 151l40 -51q-109 -71 -172 -217.5t-63 -289.5q0 -102 37 -211.5t104 -169.5z" />
    <glyph glyph-name="parenright.cap" horiz-adv-x="336" 
d="M20 -153l-40 52q107 81 172.5 232.5t65.5 296.5q0 99 -37 202.5t-107 156.5l51 51q83 -57 128.5 -173t45.5 -237q0 -161 -76 -327t-203 -254z" />
    <glyph glyph-name="bracketleft.cap" horiz-adv-x="295" 
d="M31 -135l103 974h176l-6 -64h-100l-89 -846h100l-7 -64h-177z" />
    <glyph glyph-name="bracketright.cap" horiz-adv-x="292" 
d="M-9 -135l6 64h100l89 846h-100l7 64h177l-103 -974h-176z" />
    <glyph glyph-name="braceleft.cap" horiz-adv-x="344" 
d="M234 -140q-38 0 -66.5 4.5t-54.5 16.5t-40 36t-14 59q0 22 6 49l42 199q7 33 -14 63.5t-58 30.5l7 70q37 0 65 30t28 65v206q0 164 203 164h20l-7 -64h-23q-61 0 -90 -25t-29 -80l1 -182q0 -123 -100 -146v-2q74 -27 74 -103q0 -18 -5 -43l-40 -184q-3 -15 -3 -28
q0 -72 101 -72h24l-7 -64h-20z" />
    <glyph glyph-name="braceright.cap" horiz-adv-x="342" 
d="M-6 -140l7 64h23q119 0 119 100l-1 184q0 110 100 146v2q-74 19 -74 101q0 24 5 45l40 182q3 18 3 33q0 71 -101 71h-24l8 65h20q174 0 174 -119q0 -18 -5 -45l-43 -206q-8 -35 13.5 -65t58.5 -30l-7 -70q-37 0 -65 -30.5t-28 -63.5l1 -199q0 -41 -11.5 -71.5t-29.5 -48
t-46 -28t-55 -14t-62 -3.5h-20z" />
    <glyph glyph-name="uni301A.cap" horiz-adv-x="434" 
d="M33 -134l103 974h330l-7 -65h-102l-89 -844h102l-7 -65h-330zM205 775l-90 -844h78l89 844h-77z" />
    <glyph glyph-name="uni301B.cap" horiz-adv-x="440" 
d="M418 840l-103 -974h-330l7 65h102l89 844h-102l7 65h330zM246 -69l90 844h-78l-89 -844h77z" />
    <glyph glyph-name="dblparenleft" horiz-adv-x="482" 
d="M254 -172l-47 -49q-168 164 -168 421q0 44 4 83q10 92 37.5 172.5t66.5 139t79.5 100t84.5 71.5l38 -48q-203 -164 -231 -435q-4 -36 -4 -78q0 -221 140 -377zM406 -116l-48 -48q-76 74 -119 162.5t-43 210.5q0 39 4 74q27 257 245 427l39 -47q-84 -68 -139.5 -157.5
t-69.5 -222.5q-4 -35 -4 -74q0 -102 34 -177t101 -148z" />
    <glyph glyph-name="dblparenleft.cap" horiz-adv-x="486" 
d="M264 -103l-47 -49q-168 164 -168 421q0 44 4 83q10 92 37.5 172.5t66.5 139t79.5 100t84.5 71.5l38 -48q-203 -164 -231 -435q-4 -36 -4 -78q0 -221 140 -377zM416 -47l-48 -48q-76 74 -119 162.5t-43 210.5q0 39 4 74q27 257 245 427l39 -47q-84 -68 -139.5 -157.5
t-69.5 -222.5q-4 -35 -4 -74q0 -102 34 -177t101 -148z" />
    <glyph glyph-name="dblparenright" horiz-adv-x="482" 
d="M166 -221l-37 49q204 182 233 455q4 36 4 77q0 219 -145 358l49 48q72 -57 121 -157.5t49 -242.5q0 -44 -4 -83q-33 -313 -270 -504zM27 -164l-37 48q95 86 148 176t67 223q4 46 4 66q0 183 -133 314l48 47q159 -148 159 -360q0 -21 -4 -67q-11 -105 -49.5 -192
t-86.5 -143.5t-116 -111.5z" />
    <glyph glyph-name="dblparenright.cap" horiz-adv-x="488" 
d="M174 -152l-37 49q204 182 233 455q4 36 4 77q0 219 -145 358l49 48q72 -57 121 -157.5t49 -242.5q0 -44 -4 -83q-33 -313 -270 -504zM35 -95l-37 48q95 86 148 176t67 223q4 46 4 66q0 183 -133 314l48 47q159 -148 159 -360q0 -21 -4 -67q-11 -105 -49.5 -192
t-86.5 -143.5t-116 -111.5z" />
    <glyph glyph-name="section.pln" horiz-adv-x="438" 
d="M69 -216q-62 0 -111 39l32 64q48 -37 86 -37q23 0 37.5 21t18 43.5t3.5 46.5q0 39 -7 95l-40 353q-4 46 -4 69q0 127 67 204t192 77q84 0 142 -44l-33 -59q-61 39 -116 39t-55 -101q0 -22 3 -44l46 -367q8 -59 8 -113q0 -124 -73 -205t-196 -81zM178 -138q88 53 88 188
q0 31 -5 73l-46 384q-3 33 -3 63q0 77 21 110l-2 2q-76 -46 -76 -181q0 -30 3 -60l46 -384q4 -32 4 -75q0 -70 -31 -118z" />
    <glyph glyph-name="numbersign.pln" horiz-adv-x="617" 
d="M99 0l26 160h-88l8 67h91l41 253h-106l7 66h109l26 161h72l-25 -161h168l26 161h73l-27 -161h89l-7 -66h-92l-40 -253h106l-8 -67h-110l-25 -160h-72l25 160h-169l-26 -160h-72zM209 227h168l40 253h-168z" />
    <glyph glyph-name="ordfeminine.smcp" horiz-adv-x="451" 
d="M82 395l154 315h82l74 -315h-63l-22 99h-118l-46 -99h-61zM57 296l7 55h334l-7 -55h-334zM211 539h86l-27 127z" />
    <glyph glyph-name="quotedblleft.smcp" horiz-adv-x="363" 
d="M72 458q3 68 20 114.5t47 92.5h59q-38 -83 -47 -207h-79zM225 458q3 68 20.5 114.5t47.5 92.5h59q-40 -85 -47 -207h-80z" />
    <glyph glyph-name="quotedblright.smcp" horiz-adv-x="360" 
d="M66 456q40 85 47 207h80q-3 -68 -20.5 -114t-47.5 -93h-59zM220 456q38 83 47 207h79q-4 -111 -67 -207h-59z" />
    <glyph glyph-name="quoteleft.smcp" horiz-adv-x="209" 
d="M71 454q3 68 20.5 114.5t47.5 92.5h58q-35 -76 -47 -207h-79z" />
    <glyph glyph-name="quoteright.smcp" horiz-adv-x="206" 
d="M66 456q38 80 47 207h79q-3 -68 -20 -115t-47 -92h-59z" />
    <glyph glyph-name="guilsinglright.cap" horiz-adv-x="256" 
d="M88 124l-52 25l106 195l-65 198l58 22l82 -220z" />
    <glyph glyph-name="guilsinglleft.cap" horiz-adv-x="256" 
d="M130 124l-83 220l129 220l54 -22l-108 -198l65 -195z" />
    <glyph glyph-name="guillemotleft.cap" horiz-adv-x="432" 
d="M130 124l-83 220l129 220l54 -22l-108 -198l66 -195zM305 124l-83 220l130 220l53 -22l-108 -198l66 -195z" />
    <glyph glyph-name="guillemotright.cap" horiz-adv-x="431" 
d="M88 124l-52 25l106 195l-66 198l59 22l82 -220zM263 124l-52 25l106 195l-66 198l59 22l82 -220z" />
    <glyph glyph-name="asterisk.alt" horiz-adv-x="343" 
d="M336 698l-92 -54l43 -99l-80 71l-81 -71l43 99l-92 54l107 -10l23 104l23 -104z" />
    <glyph glyph-name="f_i" horiz-adv-x="558" 
d="M48 -205l73 688h-80l7 63h80l3 26q12 111 65 156.5t138 45.5q17 0 69.5 -3.5t81.5 -3.5q17 0 64 5l9 -56q-42 -15 -107 -15q-26 0 -69 3t-56 3q-59 0 -85.5 -34.5t-34.5 -101.5l-2 -25h301l-57 -546h-76l50 483h-225l-73 -688h-76z" />
    <glyph glyph-name="f_l" horiz-adv-x="557" 
d="M48 -205l73 688h-80l7 63h80l3 26q12 111 65 156.5t138 45.5q19 0 68.5 -3.5t76.5 -3.5q34 0 50 2l-82 -769h-75l74 703q-23 -1 -65.5 1.5t-54.5 2.5q-59 0 -85.5 -34.5t-34.5 -101.5l-2 -25h116l-7 -63h-116l-73 -688h-76z" />
    <glyph glyph-name="ampersand.alt" horiz-adv-x="665" 
d="M690 -98q-158 0 -305 142q-76 -53 -175 -53q-78 0 -127.5 38.5t-49.5 116.5q0 68 39 121.5t107 105.5q-22 72 -22 143q0 89 45.5 143.5t136.5 54.5q63 0 100.5 -34t37.5 -96q0 -21 -5.5 -40t-20.5 -38t-26.5 -32.5t-37.5 -33l-38 -28.5t-45.5 -30.5t-42.5 -27.5
q61 -161 184 -274t268 -114q17 0 25 1l3 -61q-23 -4 -51 -4zM219 57q71 0 123 31q-89 99 -140 224q-92 -75 -92 -159q0 -96 109 -96zM241 413q54 36 81.5 56t54 50.5t26.5 56.5q0 32 -19.5 54t-52.5 22q-103 0 -103 -132q0 -52 13 -107zM449 104l6 64q32 24 90 24h84l-8 -65
h-82q-53 0 -90 -23z" />
    <glyph glyph-name="ampersand.smcp" horiz-adv-x="690" 
d="M216 -11q-73 0 -111.5 60t-38.5 163q0 159 65 253.5t177 94.5q53 0 83.5 -26t30.5 -67q0 -98 -82 -146q28 4 47 4h160q55 0 93 50l41 -32q-38 -76 -121 -76h-64q-23 -117 -94.5 -197.5t-185.5 -80.5zM227 57q67 0 123.5 57.5t74.5 152.5h-191l-4 44q47 16 82.5 53.5
t35.5 79.5q0 55 -56 55q-59 0 -105.5 -74.5t-46.5 -186.5q0 -94 21 -137.5t66 -43.5z" />
    <glyph glyph-name="acute.cap" horiz-adv-x="684" 
d="M267 737l-16 54l229 80l19 -70z" />
    <glyph glyph-name="breve.cap" horiz-adv-x="496" 
d="M381 753q-45 0 -82.5 25t-53.5 56l44 38q41 -58 100 -58q68 0 112 57l34 -36q-61 -82 -154 -82z" />
    <glyph glyph-name="caron.cap" horiz-adv-x="684" 
d="M332 739l-159 85l30 54l135 -69l155 68l21 -54z" />
    <glyph glyph-name="circumflex.cap" horiz-adv-x="684" 
d="M485 737l-136 69l-155 -68l-21 54l182 85l160 -85z" />
    <glyph glyph-name="dieresis.cap" horiz-adv-x="545" 
d="M192 764l9 92h74l-9 -92h-74zM401 764l9 92h74l-9 -92h-74z" />
    <glyph glyph-name="dotaccent.cap" horiz-adv-x="338" 
d="M126 765l9 92h74l-9 -92h-74z" />
    <glyph glyph-name="hungarumlaut.cap" horiz-adv-x="630" 
d="M130 737l-36 45l189 152l43 -60zM317 736l-17 55l229 80l19 -71z" />
    <glyph glyph-name="grave.cap" horiz-adv-x="684" 
d="M461 736l-220 65l27 72l211 -82z" />
    <glyph glyph-name="macron.cap" horiz-adv-x="529" 
d="M190 766l7 64h282l-7 -64h-282z" />
    <glyph glyph-name="tilde.cap" horiz-adv-x="778" 
d="M448 747q-20 0 -62 18.5t-60 18.5q-36 0 -73 -25l-27 43q52 45 106 45q25 0 65 -18t58 -18q35 0 74 27l25 -45q-52 -46 -106 -46z" />
    <glyph glyph-name="commaaccent" horiz-adv-x="166" 
d="M25 -261l44 202h72l-55 -202h-61z" />
    <glyph glyph-name="zero.zero" horiz-adv-x="612" 
d="M276 -10q-108 0 -172 65t-64 183q0 140 80 230.5t216 90.5q108 0 172 -64.5t64 -184.5q0 -139 -81.5 -229.5t-214.5 -90.5zM283 54q97 0 155 71t58 174q0 80 -35 130l-283 -340q40 -35 105 -35zM144 130l279 337q-43 28 -94 28q-99 0 -155 -69t-56 -175q0 -75 26 -121z
" />
    <glyph glyph-name="zero.opencirc" horiz-adv-x="840" 
d="M420 -5q-149 0 -254.5 105t-105.5 254t105.5 254t254.5 105t254.5 -105t105.5 -254q0 -148 -105.5 -253.5t-254.5 -105.5zM420 48q127 0 216.5 89.5t89.5 216.5t-89.5 216.5t-216.5 89.5t-216.5 -89.5t-89.5 -216.5t89.5 -216.5t216.5 -89.5zM415 165q-150 0 -150 183
q0 39 7.5 71t24.5 61t49 45t77 16q148 0 148 -182q0 -88 -37 -141t-119 -53zM417 218q87 0 87 137q0 132 -83 132q-89 0 -89 -138q0 -131 85 -131z" />
    <glyph glyph-name="zero.closecirc" horiz-adv-x="840" 
d="M420 -5q-149 0 -254.5 105t-105.5 254t105.5 254t254.5 105t254.5 -105t105.5 -254q0 -148 -105.5 -253.5t-254.5 -105.5zM415 165q82 0 119 53t37 141q0 182 -148 182q-45 0 -77 -16t-49 -45t-24.5 -61t-7.5 -71q0 -183 150 -183zM417 218q-85 0 -85 131q0 138 89 138
q83 0 83 -132q0 -137 -87 -137z" />
    <glyph glyph-name="zero.closecirc_fina" 
d="M136 226q110 0 110 137q0 129 -104 129q-113 0 -113 -137q0 -129 107 -129zM138 269q-55 0 -55 87q0 90 56 90q54 0 54 -86q0 -91 -55 -91zM0 -5v718q149 0 254.5 -105t105.5 -254t-105.5 -254t-254.5 -105z" />
    <glyph glyph-name="one.closecirc_fina" 
d="M0 -5v718q149 0 254.5 -105t105.5 -254t-105.5 -254t-254.5 -105zM115 228h55v261l-116 -3v-44h61v-214z" />
    <glyph glyph-name="two.closecirc_fina" 
d="M35 229h189v46h-122q55 32 87 63.5t32 73.5q0 36 -25 58t-65 22q-51 0 -88 -35l21 -35q24 22 61 22q18 0 29.5 -9.5t11.5 -27.5q0 -16 -9 -32t-33.5 -37.5t-37.5 -31t-51 -37.5v-40zM0 -5v718q149 0 254.5 -105t105.5 -254t-105.5 -254t-254.5 -105z" />
    <glyph glyph-name="three.closecirc_fina" 
d="M105 225q45 0 74.5 19t29.5 60q0 51 -53 65q40 15 40 58q0 31 -23.5 48t-61.5 17t-72 -18l14 -36q28 12 51 12q17 0 27.5 -8t10.5 -21q0 -36 -61 -43v-29q38 -2 55.5 -11t17.5 -32q0 -36 -54 -36q-23 0 -63 8l-9 -41q36 -12 77 -12zM0 -5v718q149 0 254.5 -105
t105.5 -254t-105.5 -254t-254.5 -105z" />
    <glyph glyph-name="four.closecirc_fina" 
d="M139 229h52v61h42v41h-42v157h-81l-88 -153v-45h117v-61zM0 -5v718q149 0 254.5 -105t105.5 -254t-105.5 -254t-254.5 -105zM63 331l76 127v-127h-76z" />
    <glyph glyph-name="five.closecirc_fina" 
d="M0 -5v718q149 0 254.5 -105t105.5 -254t-105.5 -254t-254.5 -105zM111 225q43 0 72.5 24t29.5 64q0 38 -25.5 58t-68.5 20h-22v55h106v43h-156v-142q27 3 62 3q47 0 47 -42q0 -19 -12 -30.5t-34 -11.5q-26 0 -63 10l-11 -41q40 -10 75 -10z" />
    <glyph glyph-name="six.closecirc_fina" 
d="M133 225q41 0 68.5 23t27.5 68q0 38 -23.5 57t-63.5 19q-26 0 -54 -14q5 33 23.5 51.5t44.5 18.5q21 0 47 -6l13 41q-29 10 -61 10q-55 0 -89.5 -40.5t-34.5 -110.5q0 -64 25.5 -90.5t76.5 -26.5zM135 267q-27 0 -36.5 16.5t-10.5 63.5q30 8 45 8q18 0 29 -11t11 -32
q0 -20 -11 -32.5t-27 -12.5zM0 -5v718q149 0 254.5 -105t105.5 -254t-105.5 -254t-254.5 -105z" />
    <glyph glyph-name="seven.closecirc_fina" 
d="M91 222l120 224v42h-183v-50h129l-118 -202zM0 -5v718q149 0 254.5 -105t105.5 -254t-105.5 -254t-254.5 -105z" />
    <glyph glyph-name="eight.closecirc_fina" 
d="M129 226q47 0 75 19.5t28 55.5q0 40 -55 66q47 25 47 62q0 29 -25 46t-67 17q-40 0 -67 -17.5t-27 -49.5q0 -37 39 -58q-48 -31 -48 -71q0 -70 100 -70zM130 264q-46 0 -46 38q0 29 30 47q3 -1 10 -4.5t10.5 -5t9 -4t8.5 -4.5t7.5 -4.5t6.5 -5t4.5 -5.5t3.5 -6t1 -6
q0 -19 -12.5 -29.5t-32.5 -10.5zM138 384q-15 6 -23.5 10.5t-16 11.5t-7.5 15q0 31 40 31q37 0 37 -28q0 -20 -30 -40zM0 -5v718q149 0 254.5 -105t105.5 -254t-105.5 -254t-254.5 -105z" />
    <glyph glyph-name="nine.closecirc_fina" 
d="M106 225q55 0 90 40.5t35 112.5q0 63 -25 89t-76 26q-42 0 -70 -22.5t-28 -67.5q0 -38 23.5 -57t64.5 -19q29 0 53 13q-5 -33 -23 -51t-44 -18q-21 0 -47 6l-13 -42q33 -10 60 -10zM129 364q-40 0 -40 42q0 20 11 32.5t28 12.5q27 0 36 -16.5t10 -61.5q-24 -9 -45 -9z
M0 -5v718q149 0 254.5 -105t105.5 -254t-105.5 -254t-254.5 -105z" />
    <glyph glyph-name="zero.closecirc_init" 
d="M288 226q111 0 111 137q0 130 -105 130q-112 0 -112 -137q0 -130 106 -130zM290 270q-54 0 -54 87q0 90 56 90q54 0 54 -86q0 -91 -56 -91zM420 -5q-149 0 -254.5 105t-105.5 254t105.5 254t254.5 105v-718z" />
    <glyph glyph-name="one.closecirc_init" 
d="M420 -5q-149 0 -254.5 105t-105.5 254t105.5 254t254.5 105v-718zM286 229h55v260l-116 -3v-43h61v-214z" />
    <glyph glyph-name="two.closecirc_init" 
d="M203 229h189v46h-121q35 21 57 37t42 43.5t20 56.5q0 36 -25.5 58t-65.5 22q-51 0 -88 -35l22 -35q24 22 60 22q18 0 29.5 -9.5t11.5 -27.5q0 -22 -21.5 -47.5t-42 -41.5t-67.5 -49v-40zM420 -5q-149 0 -254.5 105t-105.5 254t105.5 254t254.5 105v-718z" />
    <glyph glyph-name="three.closecirc_init" 
d="M279 225q45 0 74.5 19t29.5 60q0 51 -53 65q40 15 40 58q0 31 -23.5 48t-61.5 17t-72 -18l13 -36q30 12 52 12q17 0 27.5 -8t10.5 -21q0 -36 -61 -43v-29q38 -2 55 -11t17 -32q0 -36 -53 -36q-23 0 -63 8l-10 -41q38 -12 78 -12zM420 -5q-149 0 -254.5 105t-105.5 254
t105.5 254t254.5 105v-718z" />
    <glyph glyph-name="four.closecirc_init" 
d="M302 229h52v61h42v41h-42v157h-81l-88 -153v-45h117v-61zM420 -5q-149 0 -254.5 105t-105.5 254t105.5 254t254.5 105v-718zM226 331l76 127v-127h-76z" />
    <glyph glyph-name="five.closecirc_init" 
d="M285 224q43 0 72 24t29 64q0 39 -25.5 59t-68.5 20q-5 0 -13 -0.5t-9 -0.5v55h106v44h-156v-142q28 2 62 2q48 0 48 -42q0 -19 -12.5 -30.5t-34.5 -11.5q-20 0 -62 10l-12 -41q50 -10 76 -10zM420 -5q-149 0 -254.5 105t-105.5 254t105.5 254t254.5 105v-718z" />
    <glyph glyph-name="six.closecirc_init" 
d="M294 225q41 0 68.5 23t27.5 68q0 38 -23.5 57t-63.5 19q-26 0 -54 -14q5 33 23.5 51.5t44.5 18.5q19 0 47 -6l13 41q-29 10 -61 10q-55 0 -90 -40.5t-35 -110.5q0 -64 26 -90.5t77 -26.5zM296 267q-28 0 -37.5 16.5t-9.5 63.5q30 8 44 8q41 0 41 -43q0 -20 -11 -32.5
t-27 -12.5zM420 -5q-149 0 -254.5 105t-105.5 254t105.5 254t254.5 105v-718z" />
    <glyph glyph-name="seven.closecirc_init" 
d="M420 -5q-149 0 -254.5 105t-105.5 254t105.5 254t254.5 105v-718zM271 222l120 224v42h-183v-50h129l-118 -202z" />
    <glyph glyph-name="eight.closecirc_init" 
d="M288 226q46 0 74 19.5t28 55.5q0 41 -54 66q47 25 47 62q0 29 -25 46t-67 17q-40 0 -67 -17.5t-27 -49.5q0 -37 39 -58q-48 -31 -48 -71q0 -70 100 -70zM289 264q-46 0 -46 38q0 29 30 47q3 -1 10 -4.5t10.5 -5t9 -4t8.5 -4.5t7.5 -4.5t6.5 -5t4.5 -5.5t3.5 -6t1 -6
q0 -19 -12.5 -29.5t-32.5 -10.5zM297 384q-47 19 -47 37q0 31 40 31q36 0 36 -28q0 -21 -29 -40zM420 -5q-149 0 -254.5 105t-105.5 254t105.5 254t254.5 105v-718z" />
    <glyph glyph-name="nine.closecirc_init" 
d="M265 225q55 0 89.5 40.5t34.5 112.5q0 63 -25 89t-76 26q-42 0 -69.5 -22.5t-27.5 -67.5q0 -38 23.5 -57t63.5 -19q28 0 54 13q-5 -33 -23.5 -51t-44.5 -18q-21 0 -47 6l-13 -42q33 -10 61 -10zM287 364q-18 0 -29 10.5t-11 31.5q0 20 11 32.5t28 12.5q27 0 36 -16.5
t10 -61.5q-22 -9 -45 -9zM420 -5q-149 0 -254.5 105t-105.5 254t105.5 254t254.5 105v-718z" />
    <glyph glyph-name="zero.closecirc_medi" horiz-adv-x="230" 
d="M115 226q110 0 110 137q0 129 -104 129q-113 0 -113 -137q0 -129 107 -129zM117 268q-55 0 -55 88q0 91 56 91q54 0 54 -87q0 -92 -55 -92zM0 -5v718h230v-718h-230z" />
    <glyph glyph-name="one.closecirc_medi" horiz-adv-x="230" 
d="M104 229h55v260l-116 -3v-43h61v-214zM0 -5v718h230v-718h-230z" />
    <glyph glyph-name="two.closecirc_medi" horiz-adv-x="230" 
d="M20 229h190v46h-122q55 32 87 63.5t32 73.5q0 36 -25 58t-65 22q-52 0 -89 -35l22 -35q24 22 60 22q41 0 41 -37q0 -22 -21.5 -47.5t-42 -41.5t-67.5 -49v-40zM0 -5v718h230v-718h-230z" />
    <glyph glyph-name="three.closecirc_medi" horiz-adv-x="230" 
d="M102 225q45 0 75 19t30 60q0 51 -54 65q41 16 41 58q0 31 -24 48t-62 17t-72 -18l14 -36q28 12 51 12q17 0 28 -8t11 -21q0 -36 -62 -43v-29q38 -2 55.5 -11t17.5 -32q0 -36 -53 -36q-25 0 -63 8l-10 -41q38 -12 77 -12zM0 -5v718h230v-718h-230z" />
    <glyph glyph-name="four.closecirc_medi" horiz-adv-x="230" 
d="M130 229h52v61h33v41h-33v157h-81l-88 -153v-45h117v-61zM0 -5v718h230v-718h-230zM54 331l76 127v-127h-76z" />
    <glyph glyph-name="five.closecirc_medi" horiz-adv-x="230" 
d="M0 -5v718h230v-718h-230zM101 225q43 0 72.5 24t29.5 64q0 38 -25.5 58t-68.5 20h-22v55h106v43h-156v-142q27 3 61 3q48 0 48 -42q0 -19 -12 -30.5t-34 -11.5q-27 0 -63 10l-11 -41q40 -10 75 -10z" />
    <glyph glyph-name="six.closecirc_medi" horiz-adv-x="230" 
d="M119 225q41 0 68 23t27 68q0 76 -86 76q-26 0 -54 -14q5 33 23.5 51.5t44.5 18.5q19 0 47 -6l13 41q-29 10 -61 10q-55 0 -89.5 -40.5t-34.5 -110.5q0 -64 25.5 -90.5t76.5 -26.5zM121 267q-28 0 -37.5 16.5t-9.5 63.5q30 8 44 8q41 0 41 -43q0 -20 -11 -32.5t-27 -12.5z
M0 -5v718h230v-718h-230z" />
    <glyph glyph-name="seven.closecirc_medi" horiz-adv-x="230" 
d="M87 222l120 224v42h-183v-50h129l-118 -202zM0 -5v718h230v-718h-230z" />
    <glyph glyph-name="eight.closecirc_medi" horiz-adv-x="230" 
d="M114 226q46 0 74 19.5t28 55.5q0 40 -54 66q47 25 47 62q0 29 -25 46t-67 17q-40 0 -67 -17.5t-27 -49.5q0 -37 39 -58q-48 -30 -48 -71q0 -70 100 -70zM115 264q-46 0 -46 38q0 29 30 47q3 -1 10 -4.5t10.5 -5t9 -4t8.5 -4.5t7.5 -4.5t6.5 -5t4.5 -5.5t3.5 -6t1 -6
q0 -19 -12.5 -29.5t-32.5 -10.5zM122 384q-46 19 -46 37q0 31 40 31q36 0 36 -28q0 -20 -30 -40zM0 -5v718h230v-718h-230z" />
    <glyph glyph-name="nine.closecirc_medi" horiz-adv-x="230" 
d="M89 225q55 0 90 40.5t35 112.5q0 63 -25 89t-76 26q-42 0 -69.5 -22.5t-27.5 -67.5q0 -38 23.5 -57t63.5 -19q28 0 54 13q-5 -33 -23.5 -51t-44.5 -18q-21 0 -47 6l-13 -42q33 -10 60 -10zM112 364q-18 0 -29 10.5t-11 31.5q0 20 11 32.5t28 12.5q27 0 36 -16.5t10 -61.5
q-24 -9 -45 -9zM0 -5v718h230v-718h-230z" />
    <glyph glyph-name="zero.opencirc_fina" 
d="M0 -5v53q127 0 216.5 89.5t89.5 216.5t-89.5 216.5t-216.5 89.5v53q149 0 254.5 -105t105.5 -254t-105.5 -254t-254.5 -105zM136 226q-107 0 -107 129q0 137 113 137q104 0 104 -129q0 -137 -110 -137zM138 269q55 0 55 91q0 86 -54 86q-56 0 -56 -90q0 -87 55 -87z" />
    <glyph glyph-name="one.opencirc_fina" 
d="M0 -5v53q127 0 216.5 89.5t89.5 216.5t-89.5 216.5t-216.5 89.5v53q149 0 254.5 -105t105.5 -254t-105.5 -254t-254.5 -105zM115 228v214h-61v44l116 3v-261h-55z" />
    <glyph glyph-name="two.opencirc_fina" 
d="M35 229v40q38 28 51 37.5t37.5 31t33.5 37.5t9 32q0 18 -11.5 27.5t-29.5 9.5q-37 0 -61 -22l-21 35q37 35 88 35q40 0 65 -22t25 -58q0 -42 -32 -73.5t-87 -63.5h122v-46h-189zM0 -5v53q127 0 216.5 89.5t89.5 216.5t-89.5 216.5t-216.5 89.5v53q149 0 254.5 -105
t105.5 -254t-105.5 -254t-254.5 -105z" />
    <glyph glyph-name="three.opencirc_fina" 
d="M105 225q-41 0 -77 12l9 41q40 -8 63 -8q54 0 54 36q0 23 -17.5 32t-55.5 11v29q61 7 61 43q0 13 -10.5 21t-27.5 8q-23 0 -51 -12l-14 36q34 18 72 18t61.5 -17t23.5 -48q0 -43 -40 -58q53 -14 53 -65q0 -41 -29.5 -60t-74.5 -19zM0 -5v53q127 0 216.5 89.5t89.5 216.5
t-89.5 216.5t-216.5 89.5v53q149 0 254.5 -105t105.5 -254t-105.5 -254t-254.5 -105z" />
    <glyph glyph-name="four.opencirc_fina" 
d="M0 -5v53q127 0 216.5 89.5t89.5 216.5t-89.5 216.5t-216.5 89.5v53q149 0 254.5 -105t105.5 -254t-105.5 -254t-254.5 -105zM139 229v61h-117v45l88 153h81v-157h42v-41h-42v-61h-52zM63 331h76v127z" />
    <glyph glyph-name="five.opencirc_fina" 
d="M0 -5v53q127 0 216.5 89.5t89.5 216.5t-89.5 216.5t-216.5 89.5v53q149 0 254.5 -105t105.5 -254t-105.5 -254t-254.5 -105zM111 225q-35 0 -75 10l11 41q37 -10 63 -10q22 0 34 11.5t12 30.5q0 42 -47 42q-35 0 -62 -3v142h156v-43h-106v-55h22q43 0 68.5 -20t25.5 -58
q0 -40 -29.5 -64t-72.5 -24z" />
    <glyph glyph-name="six.opencirc_fina" 
d="M133 225q-51 0 -76.5 26.5t-25.5 90.5q0 70 34.5 110.5t89.5 40.5q32 0 61 -10l-13 -41q-26 6 -47 6q-26 0 -44.5 -18.5t-23.5 -51.5q28 14 54 14q40 0 63.5 -19t23.5 -57q0 -45 -27.5 -68t-68.5 -23zM0 -5v53q127 0 216.5 89.5t89.5 216.5t-89.5 216.5t-216.5 89.5v53
q149 0 254.5 -105t105.5 -254t-105.5 -254t-254.5 -105zM135 267q16 0 27 12.5t11 32.5q0 21 -11 32t-29 11q-15 0 -45 -8q1 -47 10.5 -63.5t36.5 -16.5z" />
    <glyph glyph-name="seven.opencirc_fina" 
d="M0 -5v53q127 0 216.5 89.5t89.5 216.5t-89.5 216.5t-216.5 89.5v53q149 0 254.5 -105t105.5 -254t-105.5 -254t-254.5 -105zM91 222l-52 14l118 202h-129v50h183v-42z" />
    <glyph glyph-name="eight.opencirc_fina" 
d="M129 226q-100 0 -100 70q0 40 48 71q-39 21 -39 58q0 32 27 49.5t67 17.5q42 0 67 -17t25 -46q0 -37 -47 -62q55 -26 55 -66q0 -36 -28 -55.5t-75 -19.5zM0 -5v53q127 0 216.5 89.5t89.5 216.5t-89.5 216.5t-216.5 89.5v53q149 0 254.5 -105t105.5 -254t-105.5 -254
t-254.5 -105zM130 264q20 0 32.5 10.5t12.5 29.5q0 3 -1 6t-3.5 6t-4.5 5.5t-6.5 5t-7.5 4.5t-8.5 4.5t-9 4t-10.5 5t-10 4.5q-30 -18 -30 -47q0 -38 46 -38zM138 384q30 20 30 40q0 28 -37 28q-40 0 -40 -31q0 -8 7.5 -15t16 -11.5t23.5 -10.5z" />
    <glyph glyph-name="nine.opencirc_fina" 
d="M106 225q-27 0 -60 10l13 42q26 -6 47 -6q26 0 44 18t23 51q-24 -13 -53 -13q-41 0 -64.5 19t-23.5 57q0 45 28 67.5t70 22.5q51 0 76 -26t25 -89q0 -72 -35 -112.5t-90 -40.5zM0 -5v53q127 0 216.5 89.5t89.5 216.5t-89.5 216.5t-216.5 89.5v53q149 0 254.5 -105
t105.5 -254t-105.5 -254t-254.5 -105zM129 364q21 0 45 9q-1 45 -10 61.5t-36 16.5q-17 0 -28 -12.5t-11 -32.5q0 -42 40 -42z" />
    <glyph glyph-name="zero.opencirc_init" 
d="M420 -5q-149 0 -254.5 105t-105.5 254t105.5 254t254.5 105v-53q-127 0 -216.5 -89.5t-89.5 -216.5t89.5 -216.5t216.5 -89.5v-53zM288 226q-106 0 -106 130q0 137 112 137q105 0 105 -130q0 -137 -111 -137zM290 270q56 0 56 91q0 86 -54 86q-56 0 -56 -90q0 -87 54 -87
z" />
    <glyph glyph-name="one.opencirc_init" 
d="M420 -5q-149 0 -254.5 105t-105.5 254t105.5 254t254.5 105v-53q-127 0 -216.5 -89.5t-89.5 -216.5t89.5 -216.5t216.5 -89.5v-53zM286 229v214h-61v43l116 3v-260h-55z" />
    <glyph glyph-name="two.opencirc_init" 
d="M203 229v40q47 33 67.5 49t42 41.5t21.5 47.5q0 18 -11.5 27.5t-29.5 9.5q-36 0 -60 -22l-22 35q37 35 88 35q40 0 65.5 -22t25.5 -58q0 -29 -20 -56.5t-42 -43.5t-57 -37h121v-46h-189zM420 -5q-149 0 -254.5 105t-105.5 254t105.5 254t254.5 105v-53
q-127 0 -216.5 -89.5t-89.5 -216.5t89.5 -216.5t216.5 -89.5v-53z" />
    <glyph glyph-name="three.opencirc_init" 
d="M279 225q-40 0 -78 12l10 41q40 -8 63 -8q53 0 53 36q0 23 -17 32t-55 11v29q61 7 61 43q0 13 -10.5 21t-27.5 8q-22 0 -52 -12l-13 36q34 18 72 18t61.5 -17t23.5 -48q0 -43 -40 -58q53 -14 53 -65q0 -41 -29.5 -60t-74.5 -19zM420 -5q-149 0 -254.5 105t-105.5 254
t105.5 254t254.5 105v-53q-127 0 -216.5 -89.5t-89.5 -216.5t89.5 -216.5t216.5 -89.5v-53z" />
    <glyph glyph-name="four.opencirc_init" 
d="M420 -5q-149 0 -254.5 105t-105.5 254t105.5 254t254.5 105v-53q-127 0 -216.5 -89.5t-89.5 -216.5t89.5 -216.5t216.5 -89.5v-53zM302 229v61h-117v45l88 153h81v-157h42v-41h-42v-61h-52zM226 331h76v127z" />
    <glyph glyph-name="five.opencirc_init" 
d="M285 224q-26 0 -76 10l12 41q42 -10 62 -10q22 0 34.5 11.5t12.5 30.5q0 42 -48 42q-34 0 -62 -2v142h156v-44h-106v-55q1 0 9 0.5t13 0.5q43 0 68.5 -20t25.5 -59q0 -40 -29 -64t-72 -24zM420 -5q-149 0 -254.5 105t-105.5 254t105.5 254t254.5 105v-53
q-127 0 -216.5 -89.5t-89.5 -216.5t89.5 -216.5t216.5 -89.5v-53z" />
    <glyph glyph-name="six.opencirc_init" 
d="M294 225q-51 0 -77 26.5t-26 90.5q0 70 35 110.5t90 40.5q32 0 61 -10l-13 -41q-28 6 -47 6q-26 0 -44.5 -18.5t-23.5 -51.5q28 14 54 14q40 0 63.5 -19t23.5 -57q0 -45 -27.5 -68t-68.5 -23zM420 -5q-149 0 -254.5 105t-105.5 254t105.5 254t254.5 105v-53
q-127 0 -216.5 -89.5t-89.5 -216.5t89.5 -216.5t216.5 -89.5v-53zM296 267q16 0 27 12.5t11 32.5q0 43 -41 43q-14 0 -44 -8q0 -47 9.5 -63.5t37.5 -16.5z" />
    <glyph glyph-name="seven.opencirc_init" 
d="M420 -5q-149 0 -254.5 105t-105.5 254t105.5 254t254.5 105v-53q-127 0 -216.5 -89.5t-89.5 -216.5t89.5 -216.5t216.5 -89.5v-53zM271 222l-52 14l118 202h-129v50h183v-42z" />
    <glyph glyph-name="eight.opencirc_init" 
d="M288 226q-100 0 -100 70q0 40 48 71q-39 21 -39 58q0 32 27 49.5t67 17.5q42 0 67 -17t25 -46q0 -37 -47 -62q54 -25 54 -66q0 -36 -28 -55.5t-74 -19.5zM420 -5q-149 0 -254.5 105t-105.5 254t105.5 254t254.5 105v-53q-127 0 -216.5 -89.5t-89.5 -216.5t89.5 -216.5
t216.5 -89.5v-53zM289 264q20 0 32.5 10.5t12.5 29.5q0 3 -1 6t-3.5 6t-4.5 5.5t-6.5 5t-7.5 4.5t-8.5 4.5t-9 4t-10.5 5t-10 4.5q-30 -18 -30 -47q0 -38 46 -38zM297 384q29 19 29 40q0 28 -36 28q-40 0 -40 -31q0 -18 47 -37z" />
    <glyph glyph-name="nine.opencirc_init" 
d="M265 225q-28 0 -61 10l13 42q26 -6 47 -6q26 0 44.5 18t23.5 51q-26 -13 -54 -13q-40 0 -63.5 19t-23.5 57q0 45 27.5 67.5t69.5 22.5q51 0 76 -26t25 -89q0 -72 -34.5 -112.5t-89.5 -40.5zM420 -5q-149 0 -254.5 105t-105.5 254t105.5 254t254.5 105v-53
q-127 0 -216.5 -89.5t-89.5 -216.5t89.5 -216.5t216.5 -89.5v-53zM287 364q23 0 45 9q-1 45 -10 61.5t-36 16.5q-17 0 -28 -12.5t-11 -32.5q0 -21 11 -31.5t29 -10.5z" />
    <glyph glyph-name="zero.opencirc_medi" horiz-adv-x="230" 
d="M115 226q-107 0 -107 129q0 137 113 137q104 0 104 -129q0 -137 -110 -137zM117 269q55 0 55 91q0 86 -54 86q-56 0 -56 -90q0 -87 55 -87zM0 -5v53h230v-53h-230zM0 660v53h230v-53h-230z" />
    <glyph glyph-name="one.opencirc_medi" horiz-adv-x="230" 
d="M104 229v214h-61v43l116 3v-260h-55zM0 -5v53h230v-53h-230zM0 660v53h230v-53h-230z" />
    <glyph glyph-name="two.opencirc_medi" horiz-adv-x="230" 
d="M20 229v40q47 33 67.5 49t42 41.5t21.5 47.5q0 37 -41 37q-36 0 -60 -22l-22 35q37 35 89 35q40 0 65 -22t25 -58q0 -42 -32 -73.5t-87 -63.5h122v-46h-190zM0 -5v53h230v-53h-230zM0 660v53h230v-53h-230z" />
    <glyph glyph-name="three.opencirc_medi" horiz-adv-x="230" 
d="M102 225q-39 0 -77 12l10 41q38 -8 63 -8q53 0 53 36q0 23 -17.5 32t-55.5 11v29q62 7 62 43q0 13 -11 21t-28 8q-23 0 -51 -12l-14 36q34 18 72 18t62 -17t24 -48q0 -42 -41 -58q54 -14 54 -65q0 -41 -30 -60t-75 -19zM0 -5v53h230v-53h-230zM0 660v53h230v-53h-230z
" />
    <glyph glyph-name="four.opencirc_medi" horiz-adv-x="230" 
d="M130 229v61h-117v45l88 153h81v-157h34v-41h-34v-61h-52zM0 -5v53h230v-53h-230zM0 660v53h230v-53h-230zM54 331h76v127z" />
    <glyph glyph-name="five.opencirc_medi" horiz-adv-x="230" 
d="M101 225q-35 0 -75 10l11 41q36 -10 63 -10q22 0 34 11.5t12 30.5q0 42 -48 42q-34 0 -61 -3v142h156v-43h-106v-55h22q43 0 68.5 -20t25.5 -58q0 -40 -29.5 -64t-72.5 -24zM0 660v53h230v-53h-230zM0 -5v53h230v-53h-230z" />
    <glyph glyph-name="six.opencirc_medi" horiz-adv-x="230" 
d="M119 225q-51 0 -77 26.5t-26 90.5q0 70 35 110.5t90 40.5q32 0 61 -10l-13 -41q-28 6 -47 6q-26 0 -44.5 -18.5t-23.5 -51.5q28 14 54 14q40 0 63.5 -19t23.5 -57q0 -45 -27.5 -68t-68.5 -23zM121 267q16 0 27 12.5t11 32.5q0 43 -41 43q-14 0 -44 -8q0 -47 9.5 -63.5
t37.5 -16.5zM0 -5v53h230v-53h-230zM0 660v53h230v-53h-230z" />
    <glyph glyph-name="seven.opencirc_medi" horiz-adv-x="230" 
d="M87 222l-52 14l118 202h-129v50h183v-42zM0 -5v53h230v-53h-230zM0 660v53h230v-53h-230z" />
    <glyph glyph-name="eight.opencirc_medi" horiz-adv-x="230" 
d="M114 226q-101 0 -101 70q0 41 49 71q-39 21 -39 58q0 32 27 49.5t67 17.5q42 0 67 -17t25 -46q0 -37 -47 -62q54 -26 54 -66q0 -36 -28 -55.5t-74 -19.5zM115 264q20 0 32.5 10.5t12.5 29.5q0 3 -1 6t-3.5 6t-4.5 5.5t-6.5 5t-7.5 4.5t-8.5 4.5t-9 4t-10.5 5t-10 4.5
q-30 -18 -30 -47q0 -38 46 -38zM122 384q30 20 30 40q0 28 -36 28q-40 0 -40 -31q0 -18 46 -37zM0 -5v53h230v-53h-230zM0 660v53h230v-53h-230z" />
    <glyph glyph-name="nine.opencirc_medi" horiz-adv-x="230" 
d="M89 225q-27 0 -60 10l13 42q26 -6 47 -6q26 0 44.5 18t23.5 51q-26 -13 -54 -13q-40 0 -63.5 19t-23.5 57q0 45 27.5 67.5t69.5 22.5q51 0 76 -26t25 -89q0 -72 -35 -112.5t-90 -40.5zM112 364q21 0 45 9q-1 45 -10 61.5t-36 16.5q-17 0 -28 -12.5t-11 -32.5
q0 -21 11 -31.5t29 -10.5zM0 -5v53h230v-53h-230zM0 660v53h230v-53h-230z" />
    <glyph glyph-name="zero.plnzero" horiz-adv-x="626" 
d="M274 -9q-215 0 -215 267q0 63 8.5 123t30.5 121.5t56 107t89 74.5t124 29q210 0 210 -259q0 -63 -8 -123.5t-29 -123.5t-54 -109.5t-87.5 -76.5t-124.5 -30zM286 57q53 0 93 27.5t61.5 68t35 96.5t17.5 101.5t4 94.5q0 93 -30 144l-279 -495q35 -37 98 -37zM139 266
q0 -76 20 -125l272 486q-32 21 -77 21q-44 0 -79.5 -18t-58 -50t-38.5 -70t-24 -83t-11.5 -83.5t-3.5 -77.5z" />
    <glyph glyph-name="zero.pln" horiz-adv-x="626" 
d="M274 -9q-215 0 -215 267q0 63 8.5 123t30.5 121.5t56 107t89 74.5t124 29q210 0 210 -259q0 -63 -8 -123.5t-29 -123.5t-54 -109.5t-87.5 -76.5t-124.5 -30zM286 57q53 0 93 27.5t61.5 68t35 96.5t17.5 101.5t4 94.5q0 203 -143 203q-44 0 -79.5 -18t-58 -50t-38.5 -70
t-24 -83t-11.5 -83.5t-3.5 -77.5q0 -209 147 -209z" />
    <glyph glyph-name="one.pln" horiz-adv-x="288" 
d="M95 0l67 642h-141l7 59l216 6l-74 -707h-75z" />
    <glyph glyph-name="two.pln" horiz-adv-x="501" 
d="M-9 0l7 63q2 1 44 37.5t54 47t53 47.5t57.5 55.5t49.5 53.5t48.5 59.5t34.5 55.5t26.5 59t7.5 54q0 116 -116 116q-85 0 -154 -44l-25 57q83 56 193 56q86 0 133 -45.5t47 -131.5q0 -52 -23.5 -107.5t-55 -99t-84 -95.5t-88.5 -83t-89 -75q-11 -9 -16 -13h352l-7 -67
h-449z" />
    <glyph glyph-name="three.pln" horiz-adv-x="463" 
d="M157 -11q-112 0 -172 32l27 64q73 -26 143 -26q175 0 175 139q0 64 -53.5 99t-124.5 40l6 59q68 5 124 51.5t56 111.5q0 90 -114 90q-60 0 -121 -22l-18 58q60 31 154 31q78 0 125 -38.5t47 -114.5q0 -61 -45 -117.5t-107 -70.5q61 -17 104 -63t43 -108
q0 -110 -68 -162.5t-181 -52.5z" />
    <glyph glyph-name="four.pln" horiz-adv-x="518" 
d="M280 0l20 191h-309l7 64l312 452h121l-47 -450h123l-7 -66h-123l-20 -191h-77zM77 257h231l41 398z" />
    <glyph glyph-name="five.pln" horiz-adv-x="466" 
d="M177 -11q-92 0 -165 29l22 66q89 -28 149 -28q80 0 126.5 44.5t46.5 119.5q0 42 -26.5 74t-71.5 51t-90.5 29t-96.5 15l33 318h333l-6 -64h-264l-19 -193q123 -19 203 -73t80 -148q0 -103 -71 -171.5t-183 -68.5z" />
    <glyph glyph-name="six.pln" horiz-adv-x="528" 
d="M266 -11q-104 0 -156.5 60.5t-52.5 174.5q0 71 10 137t34.5 132t62 114.5t97 78.5t134.5 30q55 0 93 -17l-22 -65q-37 14 -86 14q-178 0 -229 -246q76 34 148 34q85 0 139.5 -49.5t54.5 -140.5q0 -111 -59.5 -184t-167.5 -73zM276 52q69 0 103.5 54.5t34.5 131.5
q0 133 -133 133q-54 0 -140 -36q-6 -57 -6 -116q0 -79 36.5 -123t104.5 -44z" />
    <glyph glyph-name="seven.pln" horiz-adv-x="409" 
d="M74 -11l-65 30l361 620h-346l8 68h426l-7 -66z" />
    <glyph glyph-name="eight.pln" horiz-adv-x="517" 
d="M222 -10q-81 0 -136.5 40.5t-55.5 108.5q0 141 176 232q-36 28 -55.5 46t-37 51t-17.5 70q0 83 61 129.5t152 46.5q67 0 116.5 -36.5t49.5 -99.5q0 -123 -154 -209q61 -40 98.5 -84t37.5 -101q0 -92 -71.5 -143t-163.5 -51zM237 52q62 0 102.5 36t40.5 96
q0 24 -11.5 46.5t-37.5 45.5t-38.5 32t-42.5 30q-65 -39 -104 -81.5t-39 -102.5q0 -48 36.5 -75t93.5 -27zM274 401q124 71 124 169q0 39 -30.5 61t-75.5 22q-53 0 -87.5 -30.5t-34.5 -80.5q0 -28 20.5 -58t35.5 -43t48 -40z" />
    <glyph glyph-name="nine.pln" horiz-adv-x="530" 
d="M145 -13q-54 0 -92 17l22 65q34 -14 86 -14q174 0 227 238q-66 -26 -146 -26q-85 0 -139.5 49.5t-54.5 140.5q0 112 59.5 184.5t167.5 72.5q208 0 208 -236q0 -71 -10 -137t-34.5 -131.5t-61.5 -114t-97 -78.5t-135 -30zM260 332q63 0 138 28q8 66 8 124q0 79 -36.5 123
t-104.5 44q-70 0 -104.5 -54.5t-34.5 -131.5q0 -133 134 -133z" />
    <glyph glyph-name="zero.tlnzero" horiz-adv-x="600" 
d="M251 -9q-207 0 -207 274q0 63 8 122t29.5 120t54 105.5t86 72.5t122.5 28q203 0 203 -267q0 -64 -7.5 -123t-28 -121t-52.5 -107.5t-85.5 -74.5t-122.5 -29zM263 57q62 0 105.5 39.5t63 104.5t27 123t7.5 121q0 109 -39 155l-236 -523q29 -20 72 -20zM125 266
q0 -94 30 -142l230 513q-24 11 -54 11q-63 0 -106.5 -38.5t-63.5 -102t-28 -121t-8 -120.5z" />
    <glyph glyph-name="zero.tln" horiz-adv-x="600" 
d="M251 -9q-207 0 -207 274q0 63 8 122t29.5 120t54 105.5t86 72.5t122.5 28q203 0 203 -267q0 -64 -7.5 -123t-28 -121t-52.5 -107.5t-85.5 -74.5t-122.5 -29zM263 57q62 0 105.5 39.5t63 104.5t27 123t7.5 121q0 203 -135 203q-63 0 -106.5 -38.5t-63.5 -102t-28 -121
t-8 -120.5q0 -209 138 -209z" />
    <glyph glyph-name="one.tln" horiz-adv-x="600" 
d="M68 0l6 68h174l60 574h-198l5 59l275 11l-67 -644h175l-6 -68h-424z" />
    <glyph glyph-name="two.tln" horiz-adv-x="600" 
d="M62 0l7 63q13 11 70 59t88.5 75.5t83 78t80 88t51 84t22.5 84.5q0 57 -37 86.5t-99 29.5q-85 0 -154 -44l-25 57q83 56 193 56q89 0 144.5 -46.5t55.5 -130.5q0 -34 -11.5 -70t-27 -66t-45.5 -67t-51.5 -60.5t-62.5 -60.5t-60.5 -53t-63 -51.5t-54.5 -44.5h357l-8 -67
h-453z" />
    <glyph glyph-name="three.tln" horiz-adv-x="600" 
d="M211 -14q-90 0 -153 32l23 61q61 -27 131 -27q90 0 147.5 44.5t57.5 122.5q0 55 -54 87.5t-140 38.5l-1 55q195 66 195 169q0 34 -37 56.5t-95 22.5q-66 0 -119 -23l-17 58q61 32 148 32q82 0 139 -36t57 -100t-44 -113.5t-119 -78.5q75 -16 120 -61t45 -103
q0 -108 -81.5 -172.5t-202.5 -64.5z" />
    <glyph glyph-name="four.tln" horiz-adv-x="600" 
d="M319 0l20 191h-313l6 64l317 452h120l-47 -449h123l-7 -67h-123l-20 -191h-76zM110 258h236l42 402z" />
    <glyph glyph-name="five.tln" horiz-adv-x="600" 
d="M230 -11q-92 0 -165 29l22 66q89 -28 149 -28q87 0 140 45t53 119q0 42 -26 74t-71.5 51t-96.5 29.5t-111 14.5l33 318h353l-6 -64h-281l-21 -193q133 -15 217.5 -70.5t84.5 -150.5q0 -104 -74.5 -172t-199.5 -68z" />
    <glyph glyph-name="six.tln" horiz-adv-x="600" 
d="M280 -11q-116 0 -169 69t-53 202q0 76 19 151.5t58 146.5t110 115.5t164 44.5q61 0 106 -20l-22 -65q-41 17 -100 17q-68 0 -120 -39t-79.5 -92.5t-42.5 -121.5q86 41 171 41q94 0 148 -47t54 -143q0 -110 -66.5 -184.5t-177.5 -74.5zM287 55q71 0 114.5 55.5t43.5 129.5
q0 133 -140 133q-83 0 -165 -42q-5 -33 -5 -73q0 -106 37 -154.5t115 -48.5z" />
    <glyph glyph-name="seven.tln" horiz-adv-x="600" 
d="M161 -13l-65 29l380 623h-377l8 68h457l-7 -66z" />
    <glyph glyph-name="eight.tln" horiz-adv-x="600" 
d="M258 -10q-83 0 -143 41t-60 108q0 137 187 232q-68 51 -88 77q-33 41 -33 90q0 83 64.5 129.5t158.5 46.5q69 0 122.5 -37t53.5 -99q0 -118 -164 -209q31 -20 52.5 -36.5t45 -40t36 -51t12.5 -57.5q0 -91 -75.5 -142.5t-168.5 -51.5zM272 52q63 0 108 36.5t45 95.5
q0 11 -2.5 21.5t-9.5 21.5t-12.5 19t-17.5 19l-18 16.5t-21.5 16.5t-20 14l-21 14t-17.5 12q-33 -20 -53 -34t-47 -38t-40 -52t-13 -60q0 -47 40.5 -74.5t99.5 -27.5zM310 401q133 77 133 169q0 39 -35 61t-80 22q-54 0 -93.5 -31t-39.5 -80q0 -10 2 -19.5t7.5 -19t10 -17
t13.5 -17t14.5 -15t17.5 -15t17 -13.5t17.5 -13.5t15.5 -11.5z" />
    <glyph glyph-name="nine.tln" horiz-adv-x="600" 
d="M180 -16q-61 0 -106 20l22 65q41 -17 99 -17q53 0 95.5 21t71 58t47.5 80t30 94q-86 -41 -173 -41q-93 0 -147 47t-54 143q0 110 66.5 184.5t177.5 74.5q116 0 169 -69t53 -202q0 -63 -11 -125t-38 -123t-66 -107t-100 -74.5t-136 -28.5zM284 329q78 0 166 43q4 32 4 72
q0 105 -37.5 154t-114.5 49q-71 0 -115 -55.5t-44 -129.5q0 -133 141 -133z" />
    <glyph glyph-name="zero.tonzero" horiz-adv-x="600" 
d="M263 -10q-108 0 -170 65t-62 183q0 140 79 230.5t213 90.5q108 0 169.5 -64.5t61.5 -184.5q0 -140 -79.5 -230t-211.5 -90zM270 54q95 0 152 71t57 174q0 79 -33 129l-281 -338q39 -36 105 -36zM109 251q0 -72 23 -118l277 334q-37 28 -93 28q-98 0 -152.5 -69
t-54.5 -175z" />
    <glyph glyph-name="zero.ton" horiz-adv-x="600" 
d="M263 -10q-108 0 -170 65t-62 183q0 140 79 230.5t213 90.5q108 0 169.5 -64.5t61.5 -184.5q0 -140 -79.5 -230t-211.5 -90zM270 54q95 0 152 71t57 174q0 89 -42 142.5t-121 53.5q-98 0 -152.5 -69t-54.5 -175q0 -90 40 -143.5t121 -53.5z" />
    <glyph glyph-name="one.ton" horiz-adv-x="600" 
d="M62 0l8 68h173l45 426h-191l6 59l267 11l-52 -496h175l-7 -68h-424z" />
    <glyph glyph-name="two.ton" horiz-adv-x="600" 
d="M58 0l7 62q58 38 98 66.5t89.5 67t79 70t50 67.5t20.5 67q0 44 -35.5 68.5t-96.5 24.5q-71 0 -140 -40l-26 53q68 54 179 54q99 0 148.5 -44.5t49.5 -105.5q0 -163 -309 -343h321l-7 -67h-428z" />
    <glyph glyph-name="three.ton" horiz-adv-x="600" 
d="M189 -169q-80 0 -150 35l23 62q67 -30 130 -30q90 0 147.5 44.5t57.5 122.5q0 55 -54 87.5t-140 38.5l-1 55q98 33 146.5 74t48.5 95q0 34 -37.5 56.5t-94.5 22.5q-66 0 -119 -23l-18 58q59 31 149 31q82 0 139 -35.5t57 -99.5t-44.5 -113.5t-118.5 -78.5
q75 -16 120 -61.5t45 -102.5q0 -109 -82 -173.5t-204 -64.5z" />
    <glyph glyph-name="four.ton" horiz-adv-x="600" 
d="M318 -161l20 189h-314l7 65l312 453h126l-47 -450h123l-8 -68h-122l-20 -189h-77zM111 96h234l42 405z" />
    <glyph glyph-name="five.ton" horiz-adv-x="600" 
d="M218 -172q-91 0 -166 29l22 66q89 -28 149 -28q88 0 141 45t53 119q0 42 -26.5 74t-72 51t-96.5 29.5t-111 14.5l33 318h354l-7 -64h-281l-21 -193q133 -15 218 -70.5t85 -150.5q0 -104 -74.5 -172t-199.5 -68z" />
    <glyph glyph-name="six.ton" horiz-adv-x="600" 
d="M286 -11q-116 0 -169 69t-53 202q0 59 11 119.5t38 122t66 109t100 77.5t136 30q61 0 106 -20l-22 -65q-41 17 -100 17q-68 0 -120 -39t-79.5 -92.5t-42.5 -121.5q86 41 171 41q94 0 148 -47t54 -143q0 -110 -66.5 -184.5t-177.5 -74.5zM293 55q71 0 115 55.5t44 129.5
q0 133 -141 133q-81 0 -165 -42q-5 -33 -5 -73q0 -105 37.5 -154t114.5 -49z" />
    <glyph glyph-name="seven.ton" horiz-adv-x="600" 
d="M151 -173l-65 29l379 623h-376l8 68h457l-7 -67z" />
    <glyph glyph-name="eight.ton" horiz-adv-x="600" 
d="M267 -12q-83 0 -143 41t-60 109q0 76 50 131t137 101q-32 24 -45 34.5t-35 33t-31 46.5t-9 52q0 83 64.5 129.5t158.5 46.5q69 0 122.5 -36.5t53.5 -99.5q0 -67 -45 -116.5t-119 -91.5q43 -28 69.5 -49.5t51.5 -59t25 -77.5q0 -91 -75.5 -142.5t-169.5 -51.5zM281 51
q64 0 108.5 36t44.5 96q0 22 -11.5 43t-35.5 42t-39 32t-44 30l-9 6q-34 -21 -53.5 -34.5t-46.5 -37.5t-40.5 -51.5t-13.5 -59.5q0 -47 41 -74.5t99 -27.5zM319 400q134 75 134 169q0 39 -35 60.5t-81 21.5q-54 0 -93 -30.5t-39 -79.5q0 -12 3.5 -24t12 -24.5t14.5 -20.5
t21 -21t20 -17.5t23.5 -18.5t19.5 -15z" />
    <glyph glyph-name="nine.ton" horiz-adv-x="600" 
d="M182 -169q-63 0 -106 20l21 65q41 -17 100 -17q52 0 95 21t71.5 58t47 80t29.5 94q-86 -41 -172 -41q-93 0 -147.5 47t-54.5 143q0 110 67 184.5t177 74.5q117 0 170 -69t53 -202q0 -63 -11 -125t-38 -123t-66 -107t-100 -74.5t-136 -28.5zM286 176q79 0 165 43
q4 32 4 72q0 106 -37 154.5t-114 48.5q-72 0 -115.5 -55t-43.5 -130q0 -133 141 -133z" />
    <glyph glyph-name="registered.pln" horiz-adv-x="828" 
d="M565 257q-60 4 -107 62q-4 3 -23 27.5t-36 47t-17 23.5q-18 -2 -30 -2h-47v-151h-59v408h135q63 0 99 -31.5t36 -94.5q0 -83 -75 -115q6 -7 27.5 -34t34 -40.5t33.5 -30t41 -22.5zM374 89q-162 0 -253.5 100.5t-91.5 265.5q0 166 100 264t263 98q165 0 254.5 -101
t89.5 -263q0 -165 -97.5 -264.5t-264.5 -99.5zM377 143q145 0 220.5 86.5t75.5 224.5q0 136 -77 222.5t-212 86.5q-141 0 -216.5 -85.5t-75.5 -221.5q0 -133 74 -223t211 -90zM305 466h51q98 0 98 76q0 43 -20 62t-65 19h-64v-157z" />
    <glyph glyph-name="copyright.pln" horiz-adv-x="828" 
d="M385 152q-94 0 -143.5 49.5t-47.5 129.5q2 108 63 174t171 66q68 0 117 -28l-25 -47q-46 21 -97 21q-73 0 -120 -47t-48 -132q-1 -64 40.5 -97.5t107.5 -33.5q35 0 95 17l13 -48q-64 -24 -126 -24zM335 -10q-143 0 -225 85t-82 226q0 183 112 300.5t291 117.5
q145 0 225.5 -86t80.5 -226q0 -181 -110 -299t-292 -118zM344 44q155 0 243.5 101.5t88.5 253.5q0 120 -66 192.5t-190 72.5q-151 0 -240.5 -101t-89.5 -251q0 -117 64.5 -192.5t189.5 -75.5z" />
    <glyph glyph-name="uni2117.pln" horiz-adv-x="817" 
d="M536 433q0 -38 -15 -65.5t-40 -42t-52 -20.5t-57 -6h-46v-147h-61v410h136q63 0 99 -32.5t36 -96.5zM475 430q0 42 -20.5 62t-64.5 20h-64v-161h50q99 0 99 79zM368 -14q-162 0 -253.5 100t-91.5 266t100 264.5t264 98.5q165 0 254 -101.5t89 -263.5q0 -165 -97 -264.5
t-265 -99.5zM371 40q145 0 221 86.5t76 224.5q0 136 -77 222.5t-213 86.5q-140 0 -216 -85.5t-76 -221.5q0 -133 74.5 -223t210.5 -90z" />
    <glyph glyph-name="uni267E.pln" horiz-adv-x="817" 
d="M400 -13q-162 0 -253.5 100t-91.5 266t100 264t264 98q165 0 254 -101t89 -263q0 -165 -97 -264.5t-265 -99.5zM403 41q145 0 221 86.5t76 224.5q0 136 -77 222.5t-213 86.5q-140 0 -216 -85.5t-76 -221.5q0 -133 74 -223t211 -90zM298 223q-45 0 -71 39t-26 87
q0 47 27 86.5t70 39.5q24 0 47 -16t34.5 -30.5t31.5 -44.5q61 91 113 91q44 0 71 -39.5t27 -86.5q0 -49 -26 -87.5t-72 -38.5q-18 0 -34 7t-32 24t-23.5 27t-23.5 33q-61 -91 -113 -91zM522 274q21 0 35 21t14 54q0 34 -14 55.5t-35 21.5q-31 0 -86 -77q17 -22 27 -34
t28 -26.5t31 -14.5zM301 274q34 0 87 76q-56 76 -87 76q-24 0 -35.5 -23t-11.5 -54q0 -29 13.5 -52t33.5 -23z" />
    <glyph glyph-name="uni24CA.pln" horiz-adv-x="817" 
d="M400 -13q-162 0 -253.5 100t-91.5 266t100 264t264 98q165 0 254 -101t89 -263q0 -165 -97 -264.5t-265 -99.5zM403 41q145 0 221 86.5t76 224.5q0 136 -77 222.5t-213 86.5q-140 0 -216 -85.5t-76 -221.5q0 -133 74 -223t211 -90zM577 357q0 -211 -163 -211
q-166 0 -166 192v174h63v-168q0 -78 24.5 -110.5t77.5 -32.5q56 0 79 36t23 124v151h62v-155z" />
    <glyph glyph-name="Euro.pln" horiz-adv-x="630" 
d="M390 -10q-122 0 -184.5 69t-76.5 173h-91l7 61h80q0 65 11 119h-79l6 62h89q35 108 113 174t200 66q88 0 146 -29l-27 -60q-52 20 -127 20q-84 0 -140.5 -47.5t-86.5 -123.5h245l-6 -62h-258q-9 -42 -9 -87v-32h254l-6 -61h-239q31 -172 195 -172q77 0 140 21l17 -64
q-73 -27 -173 -27z" />
    <glyph glyph-name="dollar.pln" horiz-adv-x="489" 
d="M176 -98l10 87q-50 1 -103.5 15t-83.5 33l32 66q94 -43 162 -44l30 279q-46 28 -74 50.5t-51 62.5t-22 87q1 74 53.5 118t132.5 53l10 90h67l-10 -88q96 -6 150 -38l-25 -60q-60 26 -132 30l-27 -256q35 -23 56.5 -38.5t46.5 -40.5t36.5 -54t10.5 -63q-1 -84 -54 -133
t-137 -62l-10 -94h-68zM367 191q0 31 -21 56.5t-60 51.5l-25 -234q105 22 106 126zM154 537q-1 -55 78 -110l23 214q-100 -15 -101 -104z" />
    </font>
</defs>
</svg>
